<svg xmlns="http://www.w3.org/2000/svg" width="320" height="660" viewBox="0 0 320 660" role="img" aria-label="Medical ID screen"><defs>
      <linearGradient id="gScr" x1="0" y1="0" x2="0" y2="1">
        <stop offset="0" stop-color="#0e1626"/><stop offset="1" stop-color="#0a0f1c"/></linearGradient>
      <linearGradient id="gFrame" x1="0" y1="0" x2="1" y2="1">
        <stop offset="0" stop-color="#20263a"/><stop offset="1" stop-color="#0c1020"/></linearGradient>
      <linearGradient id="gCard" x1="0" y1="0" x2="0" y2="1">
        <stop offset="0" stop-color="#182238"/><stop offset="1" stop-color="#1f2b45"/></linearGradient>
      <linearGradient id="gBrand" x1="0" y1="0" x2="1" y2="0">
        <stop offset="0" stop-color="#7c5cff"/><stop offset="1" stop-color="#3aa0ff"/></linearGradient>
      <linearGradient id="gEmer" x1="0" y1="0" x2="0" y2="1">
        <stop offset="0" stop-color="#ff5b52"/><stop offset="1" stop-color="#ff3b30"/></linearGradient>
      <linearGradient id="mV" x1="0" y1="0" x2="1" y2="0"><stop offset="0" stop-color="#7c5cff"/><stop offset="1" stop-color="#3aa0ff"/></linearGradient>
      <linearGradient id="mO" x1="0" y1="0" x2="1" y2="0"><stop offset="0" stop-color="#f7b731"/><stop offset="1" stop-color="#ff7a45"/></linearGradient>
      <linearGradient id="mG" x1="0" y1="0" x2="1" y2="0"><stop offset="0" stop-color="#2fd27a"/><stop offset="1" stop-color="#43e08a"/></linearGradient>
      <radialGradient id="orb" cx="34%" cy="30%" r="75%">
        <stop offset="0" stop-color="#c3b0ff"/><stop offset="42%" stop-color="#7c5cff"/>
        <stop offset="80%" stop-color="#2f6cf0"/><stop offset="100%" stop-color="#14204a"/></radialGradient>
    </defs><rect x="10.0" y="12.0" width="300.0" height="636.0" rx="40" fill="url(#gFrame)"/><rect x="20.0" y="22.0" width="280.0" height="616.0" rx="31" fill="url(#gScr)"/><rect x="130.0" y="27.0" width="60.0" height="15.0" rx="7.5" fill="#05070d"/><text x="34.0" y="56.0" font-family="-apple-system,BlinkMacSystemFont,'SF Pro Text','Segoe UI',Roboto,system-ui,sans-serif" font-size="11" font-weight="600" fill="#8a94ad" text-anchor="start">9:41</text><rect x="264.0" y="50.0" width="20.0" height="11.0" rx="3" fill="none" stroke="#8a94ad" stroke-width="1.1"/><rect x="266.0" y="52.0" width="14.0" height="7.0" rx="2" fill="#8a94ad"/><rect x="284.6" y="53.5" width="2.0" height="5.0" rx="1" fill="#8a94ad"/><path d="M251 55 a6 6 0 0 1 11 0" fill="none" stroke="#8a94ad" stroke-width="1.3"/><circle cx="256.5" cy="59" r="1.2" fill="#8a94ad"/><rect x="234.0" y="58.1" width="2.6" height="1.9" rx="0.8" fill="#8a94ad"/><rect x="238.0" y="56.2" width="2.6" height="3.8" rx="0.8" fill="#8a94ad"/><rect x="242.0" y="54.3" width="2.6" height="5.7" rx="0.8" fill="#8a94ad"/><rect x="246.0" y="52.4" width="2.6" height="7.6" rx="0.8" fill="#8a94ad"/><text x="34.0" y="88.0" font-family="-apple-system,BlinkMacSystemFont,'SF Pro Text','Segoe UI',Roboto,system-ui,sans-serif" font-size="20" font-weight="700" fill="#eef1f7" text-anchor="start" letter-spacing="-0.4">Medical ID</text><text x="34.0" y="106.0" font-family="-apple-system,BlinkMacSystemFont,'SF Pro Text','Segoe UI',Roboto,system-ui,sans-serif" font-size="11.5" font-weight="400" fill="#8a94ad" text-anchor="start">Scannable on a locked phone</text><rect x="98.0" y="122.0" width="124.0" height="124.0" rx="14" fill="#ffffff"/><rect x="157.5" y="132.0" width="5.0" height="5.0" rx="0" fill="#0a0f1c"/><rect x="167.4" y="132.0" width="5.0" height="5.0" rx="0" fill="#0a0f1c"/><rect x="162.5" y="141.9" width="5.0" height="5.0" rx="0" fill="#0a0f1c"/><rect x="152.6" y="146.9" width="5.0" height="5.0" rx="0" fill="#0a0f1c"/><rect x="157.5" y="146.9" width="5.0" height="5.0" rx="0" fill="#0a0f1c"/><rect x="162.5" y="146.9" width="5.0" height="5.0" rx="0" fill="#0a0f1c"/><rect x="147.6" y="151.8" width="5.0" height="5.0" rx="0" fill="#0a0f1c"/><rect x="157.5" y="151.8" width="5.0" height="5.0" rx="0" fill="#0a0f1c"/><rect x="157.5" y="156.8" width="5.0" height="5.0" rx="0" fill="#0a0f1c"/><rect x="167.4" y="156.8" width="5.0" height="5.0" rx="0" fill="#0a0f1c"/><rect x="147.6" y="161.7" width="5.0" height="5.0" rx="0" fill="#0a0f1c"/><rect x="157.5" y="161.7" width="5.0" height="5.0" rx="0" fill="#0a0f1c"/><rect x="152.6" y="166.7" width="5.0" height="5.0" rx="0" fill="#0a0f1c"/><rect x="167.4" y="166.7" width="5.0" height="5.0" rx="0" fill="#0a0f1c"/><rect x="117.9" y="171.6" width="5.0" height="5.0" rx="0" fill="#0a0f1c"/><rect x="122.9" y="171.6" width="5.0" height="5.0" rx="0" fill="#0a0f1c"/><rect x="132.8" y="171.6" width="5.0" height="5.0" rx="0" fill="#0a0f1c"/><rect x="137.7" y="171.6" width="5.0" height="5.0" rx="0" fill="#0a0f1c"/><rect x="142.7" y="171.6" width="5.0" height="5.0" rx="0" fill="#0a0f1c"/><rect x="147.6" y="171.6" width="5.0" height="5.0" rx="0" fill="#0a0f1c"/><rect x="157.5" y="171.6" width="5.0" height="5.0" rx="0" fill="#0a0f1c"/><rect x="172.4" y="171.6" width="5.0" height="5.0" rx="0" fill="#0a0f1c"/><rect x="192.2" y="171.6" width="5.0" height="5.0" rx="0" fill="#0a0f1c"/><rect x="197.1" y="171.6" width="5.0" height="5.0" rx="0" fill="#0a0f1c"/><rect x="202.1" y="171.6" width="5.0" height="5.0" rx="0" fill="#0a0f1c"/><rect x="207.0" y="171.6" width="5.0" height="5.0" rx="0" fill="#0a0f1c"/><rect x="113.0" y="176.6" width="5.0" height="5.0" rx="0" fill="#0a0f1c"/><rect x="117.9" y="176.6" width="5.0" height="5.0" rx="0" fill="#0a0f1c"/><rect x="122.9" y="176.6" width="5.0" height="5.0" rx="0" fill="#0a0f1c"/><rect x="132.8" y="176.6" width="5.0" height="5.0" rx="0" fill="#0a0f1c"/><rect x="137.7" y="176.6" width="5.0" height="5.0" rx="0" fill="#0a0f1c"/><rect x="147.6" y="176.6" width="5.0" height="5.0" rx="0" fill="#0a0f1c"/><rect x="157.5" y="176.6" width="5.0" height="5.0" rx="0" fill="#0a0f1c"/><rect x="162.5" y="176.6" width="5.0" height="5.0" rx="0" fill="#0a0f1c"/><rect x="167.4" y="176.6" width="5.0" height="5.0" rx="0" fill="#0a0f1c"/><rect x="172.4" y="176.6" width="5.0" height="5.0" rx="0" fill="#0a0f1c"/><rect x="187.2" y="176.6" width="5.0" height="5.0" rx="0" fill="#0a0f1c"/><rect x="113.0" y="181.5" width="5.0" height="5.0" rx="0" fill="#0a0f1c"/><rect x="132.8" y="181.5" width="5.0" height="5.0" rx="0" fill="#0a0f1c"/><rect x="147.6" y="181.5" width="5.0" height="5.0" rx="0" fill="#0a0f1c"/><rect x="152.6" y="181.5" width="5.0" height="5.0" rx="0" fill="#0a0f1c"/><rect x="157.5" y="181.5" width="5.0" height="5.0" rx="0" fill="#0a0f1c"/><rect x="162.5" y="181.5" width="5.0" height="5.0" rx="0" fill="#0a0f1c"/><rect x="182.3" y="181.5" width="5.0" height="5.0" rx="0" fill="#0a0f1c"/><rect x="187.2" y="181.5" width="5.0" height="5.0" rx="0" fill="#0a0f1c"/><rect x="113.0" y="186.5" width="5.0" height="5.0" rx="0" fill="#0a0f1c"/><rect x="137.7" y="186.5" width="5.0" height="5.0" rx="0" fill="#0a0f1c"/><rect x="142.7" y="186.5" width="5.0" height="5.0" rx="0" fill="#0a0f1c"/><rect x="147.6" y="186.5" width="5.0" height="5.0" rx="0" fill="#0a0f1c"/><rect x="157.5" y="186.5" width="5.0" height="5.0" rx="0" fill="#0a0f1c"/><rect x="162.5" y="186.5" width="5.0" height="5.0" rx="0" fill="#0a0f1c"/><rect x="172.4" y="186.5" width="5.0" height="5.0" rx="0" fill="#0a0f1c"/><rect x="177.3" y="186.5" width="5.0" height="5.0" rx="0" fill="#0a0f1c"/><rect x="182.3" y="186.5" width="5.0" height="5.0" rx="0" fill="#0a0f1c"/><rect x="187.2" y="186.5" width="5.0" height="5.0" rx="0" fill="#0a0f1c"/><rect x="207.0" y="186.5" width="5.0" height="5.0" rx="0" fill="#0a0f1c"/><rect x="162.5" y="191.4" width="5.0" height="5.0" rx="0" fill="#0a0f1c"/><rect x="167.4" y="191.4" width="5.0" height="5.0" rx="0" fill="#0a0f1c"/><rect x="197.1" y="191.4" width="5.0" height="5.0" rx="0" fill="#0a0f1c"/><rect x="202.1" y="191.4" width="5.0" height="5.0" rx="0" fill="#0a0f1c"/><rect x="172.4" y="196.4" width="5.0" height="5.0" rx="0" fill="#0a0f1c"/><rect x="187.2" y="196.4" width="5.0" height="5.0" rx="0" fill="#0a0f1c"/><rect x="192.2" y="196.4" width="5.0" height="5.0" rx="0" fill="#0a0f1c"/><rect x="202.1" y="196.4" width="5.0" height="5.0" rx="0" fill="#0a0f1c"/><rect x="147.6" y="201.3" width="5.0" height="5.0" rx="0" fill="#0a0f1c"/><rect x="152.6" y="201.3" width="5.0" height="5.0" rx="0" fill="#0a0f1c"/><rect x="157.5" y="201.3" width="5.0" height="5.0" rx="0" fill="#0a0f1c"/><rect x="162.5" y="201.3" width="5.0" height="5.0" rx="0" fill="#0a0f1c"/><rect x="182.3" y="201.3" width="5.0" height="5.0" rx="0" fill="#0a0f1c"/><rect x="187.2" y="201.3" width="5.0" height="5.0" rx="0" fill="#0a0f1c"/><rect x="192.2" y="201.3" width="5.0" height="5.0" rx="0" fill="#0a0f1c"/><rect x="207.0" y="201.3" width="5.0" height="5.0" rx="0" fill="#0a0f1c"/><rect x="147.6" y="206.3" width="5.0" height="5.0" rx="0" fill="#0a0f1c"/><rect x="152.6" y="206.3" width="5.0" height="5.0" rx="0" fill="#0a0f1c"/><rect x="157.5" y="206.3" width="5.0" height="5.0" rx="0" fill="#0a0f1c"/><rect x="162.5" y="206.3" width="5.0" height="5.0" rx="0" fill="#0a0f1c"/><rect x="167.4" y="206.3" width="5.0" height="5.0" rx="0" fill="#0a0f1c"/><rect x="207.0" y="206.3" width="5.0" height="5.0" rx="0" fill="#0a0f1c"/><rect x="147.6" y="211.2" width="5.0" height="5.0" rx="0" fill="#0a0f1c"/><rect x="157.5" y="211.2" width="5.0" height="5.0" rx="0" fill="#0a0f1c"/><rect x="162.5" y="211.2" width="5.0" height="5.0" rx="0" fill="#0a0f1c"/><rect x="167.4" y="211.2" width="5.0" height="5.0" rx="0" fill="#0a0f1c"/><rect x="197.1" y="211.2" width="5.0" height="5.0" rx="0" fill="#0a0f1c"/><rect x="202.1" y="211.2" width="5.0" height="5.0" rx="0" fill="#0a0f1c"/><rect x="207.0" y="211.2" width="5.0" height="5.0" rx="0" fill="#0a0f1c"/><rect x="152.6" y="216.2" width="5.0" height="5.0" rx="0" fill="#0a0f1c"/><rect x="157.5" y="216.2" width="5.0" height="5.0" rx="0" fill="#0a0f1c"/><rect x="167.4" y="216.2" width="5.0" height="5.0" rx="0" fill="#0a0f1c"/><rect x="172.4" y="216.2" width="5.0" height="5.0" rx="0" fill="#0a0f1c"/><rect x="177.3" y="216.2" width="5.0" height="5.0" rx="0" fill="#0a0f1c"/><rect x="182.3" y="216.2" width="5.0" height="5.0" rx="0" fill="#0a0f1c"/><rect x="197.1" y="216.2" width="5.0" height="5.0" rx="0" fill="#0a0f1c"/><rect x="207.0" y="216.2" width="5.0" height="5.0" rx="0" fill="#0a0f1c"/><rect x="147.6" y="221.1" width="5.0" height="5.0" rx="0" fill="#0a0f1c"/><rect x="162.5" y="221.1" width="5.0" height="5.0" rx="0" fill="#0a0f1c"/><rect x="167.4" y="221.1" width="5.0" height="5.0" rx="0" fill="#0a0f1c"/><rect x="187.2" y="221.1" width="5.0" height="5.0" rx="0" fill="#0a0f1c"/><rect x="192.2" y="221.1" width="5.0" height="5.0" rx="0" fill="#0a0f1c"/><rect x="202.1" y="221.1" width="5.0" height="5.0" rx="0" fill="#0a0f1c"/><rect x="207.0" y="221.1" width="5.0" height="5.0" rx="0" fill="#0a0f1c"/><rect x="147.6" y="226.1" width="5.0" height="5.0" rx="0" fill="#0a0f1c"/><rect x="157.5" y="226.1" width="5.0" height="5.0" rx="0" fill="#0a0f1c"/><rect x="172.4" y="226.1" width="5.0" height="5.0" rx="0" fill="#0a0f1c"/><rect x="177.3" y="226.1" width="5.0" height="5.0" rx="0" fill="#0a0f1c"/><rect x="182.3" y="226.1" width="5.0" height="5.0" rx="0" fill="#0a0f1c"/><rect x="187.2" y="226.1" width="5.0" height="5.0" rx="0" fill="#0a0f1c"/><rect x="197.1" y="226.1" width="5.0" height="5.0" rx="0" fill="#0a0f1c"/><rect x="202.1" y="226.1" width="5.0" height="5.0" rx="0" fill="#0a0f1c"/><rect x="162.5" y="231.0" width="5.0" height="5.0" rx="0" fill="#0a0f1c"/><rect x="182.3" y="231.0" width="5.0" height="5.0" rx="0" fill="#0a0f1c"/><rect x="197.1" y="231.0" width="5.0" height="5.0" rx="0" fill="#0a0f1c"/><rect x="202.1" y="231.0" width="5.0" height="5.0" rx="0" fill="#0a0f1c"/><rect x="108.0" y="132.0" width="5.0" height="5.0" rx="0" fill="#0a0f1c"/><rect x="113.0" y="132.0" width="5.0" height="5.0" rx="0" fill="#0a0f1c"/><rect x="117.9" y="132.0" width="5.0" height="5.0" rx="0" fill="#0a0f1c"/><rect x="122.9" y="132.0" width="5.0" height="5.0" rx="0" fill="#0a0f1c"/><rect x="127.8" y="132.0" width="5.0" height="5.0" rx="0" fill="#0a0f1c"/><rect x="132.8" y="132.0" width="5.0" height="5.0" rx="0" fill="#0a0f1c"/><rect x="137.7" y="132.0" width="5.0" height="5.0" rx="0" fill="#0a0f1c"/><rect x="108.0" y="137.0" width="5.0" height="5.0" rx="0" fill="#0a0f1c"/><rect x="137.7" y="137.0" width="5.0" height="5.0" rx="0" fill="#0a0f1c"/><rect x="108.0" y="141.9" width="5.0" height="5.0" rx="0" fill="#0a0f1c"/><rect x="117.9" y="141.9" width="5.0" height="5.0" rx="0" fill="#0a0f1c"/><rect x="122.9" y="141.9" width="5.0" height="5.0" rx="0" fill="#0a0f1c"/><rect x="127.8" y="141.9" width="5.0" height="5.0" rx="0" fill="#0a0f1c"/><rect x="137.7" y="141.9" width="5.0" height="5.0" rx="0" fill="#0a0f1c"/><rect x="108.0" y="146.9" width="5.0" height="5.0" rx="0" fill="#0a0f1c"/><rect x="117.9" y="146.9" width="5.0" height="5.0" rx="0" fill="#0a0f1c"/><rect x="122.9" y="146.9" width="5.0" height="5.0" rx="0" fill="#0a0f1c"/><rect x="127.8" y="146.9" width="5.0" height="5.0" rx="0" fill="#0a0f1c"/><rect x="137.7" y="146.9" width="5.0" height="5.0" rx="0" fill="#0a0f1c"/><rect x="108.0" y="151.8" width="5.0" height="5.0" rx="0" fill="#0a0f1c"/><rect x="117.9" y="151.8" width="5.0" height="5.0" rx="0" fill="#0a0f1c"/><rect x="122.9" y="151.8" width="5.0" height="5.0" rx="0" fill="#0a0f1c"/><rect x="127.8" y="151.8" width="5.0" height="5.0" rx="0" fill="#0a0f1c"/><rect x="137.7" y="151.8" width="5.0" height="5.0" rx="0" fill="#0a0f1c"/><rect x="108.0" y="156.8" width="5.0" height="5.0" rx="0" fill="#0a0f1c"/><rect x="137.7" y="156.8" width="5.0" height="5.0" rx="0" fill="#0a0f1c"/><rect x="108.0" y="161.7" width="5.0" height="5.0" rx="0" fill="#0a0f1c"/><rect x="113.0" y="161.7" width="5.0" height="5.0" rx="0" fill="#0a0f1c"/><rect x="117.9" y="161.7" width="5.0" height="5.0" rx="0" fill="#0a0f1c"/><rect x="122.9" y="161.7" width="5.0" height="5.0" rx="0" fill="#0a0f1c"/><rect x="127.8" y="161.7" width="5.0" height="5.0" rx="0" fill="#0a0f1c"/><rect x="132.8" y="161.7" width="5.0" height="5.0" rx="0" fill="#0a0f1c"/><rect x="137.7" y="161.7" width="5.0" height="5.0" rx="0" fill="#0a0f1c"/><rect x="177.3" y="132.0" width="5.0" height="5.0" rx="0" fill="#0a0f1c"/><rect x="182.3" y="132.0" width="5.0" height="5.0" rx="0" fill="#0a0f1c"/><rect x="187.2" y="132.0" width="5.0" height="5.0" rx="0" fill="#0a0f1c"/><rect x="192.2" y="132.0" width="5.0" height="5.0" rx="0" fill="#0a0f1c"/><rect x="197.1" y="132.0" width="5.0" height="5.0" rx="0" fill="#0a0f1c"/><rect x="202.1" y="132.0" width="5.0" height="5.0" rx="0" fill="#0a0f1c"/><rect x="207.0" y="132.0" width="5.0" height="5.0" rx="0" fill="#0a0f1c"/><rect x="177.3" y="137.0" width="5.0" height="5.0" rx="0" fill="#0a0f1c"/><rect x="207.0" y="137.0" width="5.0" height="5.0" rx="0" fill="#0a0f1c"/><rect x="177.3" y="141.9" width="5.0" height="5.0" rx="0" fill="#0a0f1c"/><rect x="187.2" y="141.9" width="5.0" height="5.0" rx="0" fill="#0a0f1c"/><rect x="192.2" y="141.9" width="5.0" height="5.0" rx="0" fill="#0a0f1c"/><rect x="197.1" y="141.9" width="5.0" height="5.0" rx="0" fill="#0a0f1c"/><rect x="207.0" y="141.9" width="5.0" height="5.0" rx="0" fill="#0a0f1c"/><rect x="177.3" y="146.9" width="5.0" height="5.0" rx="0" fill="#0a0f1c"/><rect x="187.2" y="146.9" width="5.0" height="5.0" rx="0" fill="#0a0f1c"/><rect x="192.2" y="146.9" width="5.0" height="5.0" rx="0" fill="#0a0f1c"/><rect x="197.1" y="146.9" width="5.0" height="5.0" rx="0" fill="#0a0f1c"/><rect x="207.0" y="146.9" width="5.0" height="5.0" rx="0" fill="#0a0f1c"/><rect x="177.3" y="151.8" width="5.0" height="5.0" rx="0" fill="#0a0f1c"/><rect x="187.2" y="151.8" width="5.0" height="5.0" rx="0" fill="#0a0f1c"/><rect x="192.2" y="151.8" width="5.0" height="5.0" rx="0" fill="#0a0f1c"/><rect x="197.1" y="151.8" width="5.0" height="5.0" rx="0" fill="#0a0f1c"/><rect x="207.0" y="151.8" width="5.0" height="5.0" rx="0" fill="#0a0f1c"/><rect x="177.3" y="156.8" width="5.0" height="5.0" rx="0" fill="#0a0f1c"/><rect x="207.0" y="156.8" width="5.0" height="5.0" rx="0" fill="#0a0f1c"/><rect x="177.3" y="161.7" width="5.0" height="5.0" rx="0" fill="#0a0f1c"/><rect x="182.3" y="161.7" width="5.0" height="5.0" rx="0" fill="#0a0f1c"/><rect x="187.2" y="161.7" width="5.0" height="5.0" rx="0" fill="#0a0f1c"/><rect x="192.2" y="161.7" width="5.0" height="5.0" rx="0" fill="#0a0f1c"/><rect x="197.1" y="161.7" width="5.0" height="5.0" rx="0" fill="#0a0f1c"/><rect x="202.1" y="161.7" width="5.0" height="5.0" rx="0" fill="#0a0f1c"/><rect x="207.0" y="161.7" width="5.0" height="5.0" rx="0" fill="#0a0f1c"/><rect x="108.0" y="201.3" width="5.0" height="5.0" rx="0" fill="#0a0f1c"/><rect x="113.0" y="201.3" width="5.0" height="5.0" rx="0" fill="#0a0f1c"/><rect x="117.9" y="201.3" width="5.0" height="5.0" rx="0" fill="#0a0f1c"/><rect x="122.9" y="201.3" width="5.0" height="5.0" rx="0" fill="#0a0f1c"/><rect x="127.8" y="201.3" width="5.0" height="5.0" rx="0" fill="#0a0f1c"/><rect x="132.8" y="201.3" width="5.0" height="5.0" rx="0" fill="#0a0f1c"/><rect x="137.7" y="201.3" width="5.0" height="5.0" rx="0" fill="#0a0f1c"/><rect x="108.0" y="206.3" width="5.0" height="5.0" rx="0" fill="#0a0f1c"/><rect x="137.7" y="206.3" width="5.0" height="5.0" rx="0" fill="#0a0f1c"/><rect x="108.0" y="211.2" width="5.0" height="5.0" rx="0" fill="#0a0f1c"/><rect x="117.9" y="211.2" width="5.0" height="5.0" rx="0" fill="#0a0f1c"/><rect x="122.9" y="211.2" width="5.0" height="5.0" rx="0" fill="#0a0f1c"/><rect x="127.8" y="211.2" width="5.0" height="5.0" rx="0" fill="#0a0f1c"/><rect x="137.7" y="211.2" width="5.0" height="5.0" rx="0" fill="#0a0f1c"/><rect x="108.0" y="216.2" width="5.0" height="5.0" rx="0" fill="#0a0f1c"/><rect x="117.9" y="216.2" width="5.0" height="5.0" rx="0" fill="#0a0f1c"/><rect x="122.9" y="216.2" width="5.0" height="5.0" rx="0" fill="#0a0f1c"/><rect x="127.8" y="216.2" width="5.0" height="5.0" rx="0" fill="#0a0f1c"/><rect x="137.7" y="216.2" width="5.0" height="5.0" rx="0" fill="#0a0f1c"/><rect x="108.0" y="221.1" width="5.0" height="5.0" rx="0" fill="#0a0f1c"/><rect x="117.9" y="221.1" width="5.0" height="5.0" rx="0" fill="#0a0f1c"/><rect x="122.9" y="221.1" width="5.0" height="5.0" rx="0" fill="#0a0f1c"/><rect x="127.8" y="221.1" width="5.0" height="5.0" rx="0" fill="#0a0f1c"/><rect x="137.7" y="221.1" width="5.0" height="5.0" rx="0" fill="#0a0f1c"/><rect x="108.0" y="226.1" width="5.0" height="5.0" rx="0" fill="#0a0f1c"/><rect x="137.7" y="226.1" width="5.0" height="5.0" rx="0" fill="#0a0f1c"/><rect x="108.0" y="231.0" width="5.0" height="5.0" rx="0" fill="#0a0f1c"/><rect x="113.0" y="231.0" width="5.0" height="5.0" rx="0" fill="#0a0f1c"/><rect x="117.9" y="231.0" width="5.0" height="5.0" rx="0" fill="#0a0f1c"/><rect x="122.9" y="231.0" width="5.0" height="5.0" rx="0" fill="#0a0f1c"/><rect x="127.8" y="231.0" width="5.0" height="5.0" rx="0" fill="#0a0f1c"/><rect x="132.8" y="231.0" width="5.0" height="5.0" rx="0" fill="#0a0f1c"/><rect x="137.7" y="231.0" width="5.0" height="5.0" rx="0" fill="#0a0f1c"/><text x="160.0" y="264.0" font-family="-apple-system,BlinkMacSystemFont,'SF Pro Text','Segoe UI',Roboto,system-ui,sans-serif" font-size="10" font-weight="500" fill="#a78bfa" text-anchor="middle">jim.app/medical-id/med_rM7…QKyk</text><rect x="34.0" y="280.0" width="252.0" height="48.0" rx="16" fill="url(#gCard)" stroke="#26314e" stroke-width="1"/><rect x="46.0" y="287.0" width="34.0" height="34.0" rx="11" fill="rgba(255,77,94,0.16)"/><path d="M63 297.56 v12.88 M56.56 304.0 h12.88" fill="none" stroke="#ff4d5e" stroke-width="2.76" stroke-linecap="round"/><text x="90.0" y="298.0" font-family="-apple-system,BlinkMacSystemFont,'SF Pro Text','Segoe UI',Roboto,system-ui,sans-serif" font-size="13" font-weight="600" fill="#eef1f7" text-anchor="start">David Bianchi · 41</text><text x="90.0" y="313.0" font-family="-apple-system,BlinkMacSystemFont,'SF Pro Text','Segoe UI',Roboto,system-ui,sans-serif" font-size="11" font-weight="400" fill="#8a94ad" text-anchor="start">Known: acute anxiety / panic</text><rect x="34.0" y="338.0" width="252.0" height="48.0" rx="16" fill="url(#gCard)" stroke="#26314e" stroke-width="1"/><rect x="46.0" y="345.0" width="34.0" height="34.0" rx="11" fill="rgba(255,77,94,0.16)"/><path d="M63 367.52 C54.72 359.24,56.56 353.72,63 358.32 C69.44 353.72,71.28 359.24,63 367.52 Z" fill="#ff4d5e"/><text x="90.0" y="356.0" font-family="-apple-system,BlinkMacSystemFont,'SF Pro Text','Segoe UI',Roboto,system-ui,sans-serif" font-size="13" font-weight="600" fill="#eef1f7" text-anchor="start">Resting HR 60 bpm</text><text x="90.0" y="371.0" font-family="-apple-system,BlinkMacSystemFont,'SF Pro Text','Segoe UI',Roboto,system-ui,sans-serif" font-size="11" font-weight="400" fill="#8a94ad" text-anchor="start">learned baseline</text><rect x="34.0" y="396.0" width="252.0" height="48.0" rx="16" fill="url(#gCard)" stroke="#26314e" stroke-width="1"/><rect x="46.0" y="403.0" width="34.0" height="34.0" rx="11" fill="rgba(255,77,94,0.16)"/><path d="M57.48 414.48 c0 8.280000000000001 2.7600000000000002 11.040000000000001 11.040000000000001 11.040000000000001 l0.0 -3.68 l-3.68 -1.84 l-1.84 1.84 c-2.7600000000000002 -0.92 -3.68 -1.84 -3.68 -3.68 l1.84 -1.84 l-1.84 -3.68 Z" fill="#ff4d5e"/><text x="90.0" y="414.0" font-family="-apple-system,BlinkMacSystemFont,'SF Pro Text','Segoe UI',Roboto,system-ui,sans-serif" font-size="13" font-weight="600" fill="#eef1f7" text-anchor="start">Maria Bianchi</text><text x="90.0" y="429.0" font-family="-apple-system,BlinkMacSystemFont,'SF Pro Text','Segoe UI',Roboto,system-ui,sans-serif" font-size="11" font-weight="400" fill="#8a94ad" text-anchor="start">emergency contact</text><rect x="20.0" y="586.0" width="280.0" height="52.0" rx="0" fill="#0b1220"/><rect x="20" y="586" width="280" height="1" fill="#26314e"/><circle cx="48.0" cy="604" r="5.3999999999999995" fill="none" stroke="#626d88" stroke-width="1.22" stroke-linecap="round" stroke-linejoin="round"/><circle cx="48.0" cy="604" r="2.52" fill="none" stroke="#626d88" stroke-width="1.22" stroke-linecap="round" stroke-linejoin="round"/><circle cx="48.0" cy="604" r="0.648" fill="#626d88"/><text x="48.0" y="626.0" font-family="-apple-system,BlinkMacSystemFont,'SF Pro Text','Segoe UI',Roboto,system-ui,sans-serif" font-size="8.5" font-weight="600" fill="#626d88" text-anchor="middle">Home</text><path d="M98.24 599.68 h11.52 a2 2 0 0 1 2 2 v5.04 a2 2 0 0 1 -2 2 h-6.4799999999999995 l-2.88 2.88 v-2.88 h-2.16 a2 2 0 0 1 -2 -2 v-5.04 a2 2 0 0 1 2 -2 Z" fill="none" stroke="#626d88" stroke-width="1.22" stroke-linecap="round" stroke-linejoin="round"/><text x="104.0" y="626.0" font-family="-apple-system,BlinkMacSystemFont,'SF Pro Text','Segoe UI',Roboto,system-ui,sans-serif" font-size="8.5" font-weight="600" fill="#626d88" text-anchor="middle">Chat</text><rect x="157.84" y="598.24" width="4.32" height="7.92" rx="2.16" fill="none" stroke="#626d88" stroke-width="1.22" stroke-linecap="round" stroke-linejoin="round"/><path d="M155.68 604 c0 3.5999999999999996 8.64 3.5999999999999996 8.64 0 M160.0 607.6 v2.16" fill="none" stroke="#626d88" stroke-width="1.22" stroke-linecap="round" stroke-linejoin="round"/><text x="160.0" y="626.0" font-family="-apple-system,BlinkMacSystemFont,'SF Pro Text','Segoe UI',Roboto,system-ui,sans-serif" font-size="8.5" font-weight="600" fill="#626d88" text-anchor="middle">Voice</text><rect x="210.96" y="598.96" width="10.08" height="10.08" rx="2" fill="none" stroke="#626d88" stroke-width="1.22" stroke-linecap="round" stroke-linejoin="round"/><path d="M216.0 598.96 v10.08" fill="none" stroke="#626d88" stroke-width="1.22" stroke-linecap="round" stroke-linejoin="round"/><text x="216.0" y="626.0" font-family="-apple-system,BlinkMacSystemFont,'SF Pro Text','Segoe UI',Roboto,system-ui,sans-serif" font-size="8.5" font-weight="600" fill="#626d88" text-anchor="middle">Memories</text><circle cx="272.0" cy="601.12" r="2.448" fill="none" stroke="#eef1f7" stroke-width="1.22" stroke-linecap="round" stroke-linejoin="round"/><path d="M267.68 609.04 c0 -4.32 8.64 -4.32 8.64 0" fill="none" stroke="#eef1f7" stroke-width="1.22" stroke-linecap="round" stroke-linejoin="round"/><text x="272.0" y="626.0" font-family="-apple-system,BlinkMacSystemFont,'SF Pro Text','Segoe UI',Roboto,system-ui,sans-serif" font-size="8.5" font-weight="600" fill="#eef1f7" text-anchor="middle">Profile</text><rect x="118.0" y="631.0" width="84.0" height="4.0" rx="2" fill="rgba(255,255,255,0.6)"/></svg>