<svg xmlns="http://www.w3.org/2000/svg" width="320" height="660" viewBox="0 0 320 660" role="img" aria-label="Ambient Jump-in screen"><defs>
      <linearGradient id="gScr" x1="0" y1="0" x2="0" y2="1">
        <stop offset="0" stop-color="#0e1626"/><stop offset="1" stop-color="#0a0f1c"/></linearGradient>
      <linearGradient id="gFrame" x1="0" y1="0" x2="1" y2="1">
        <stop offset="0" stop-color="#20263a"/><stop offset="1" stop-color="#0c1020"/></linearGradient>
      <linearGradient id="gCard" x1="0" y1="0" x2="0" y2="1">
        <stop offset="0" stop-color="#182238"/><stop offset="1" stop-color="#1f2b45"/></linearGradient>
      <linearGradient id="gBrand" x1="0" y1="0" x2="1" y2="0">
        <stop offset="0" stop-color="#7c5cff"/><stop offset="1" stop-color="#3aa0ff"/></linearGradient>
      <linearGradient id="gEmer" x1="0" y1="0" x2="0" y2="1">
        <stop offset="0" stop-color="#ff5b52"/><stop offset="1" stop-color="#ff3b30"/></linearGradient>
      <linearGradient id="mV" x1="0" y1="0" x2="1" y2="0"><stop offset="0" stop-color="#7c5cff"/><stop offset="1" stop-color="#3aa0ff"/></linearGradient>
      <linearGradient id="mO" x1="0" y1="0" x2="1" y2="0"><stop offset="0" stop-color="#f7b731"/><stop offset="1" stop-color="#ff7a45"/></linearGradient>
      <linearGradient id="mG" x1="0" y1="0" x2="1" y2="0"><stop offset="0" stop-color="#2fd27a"/><stop offset="1" stop-color="#43e08a"/></linearGradient>
      <radialGradient id="orb" cx="34%" cy="30%" r="75%">
        <stop offset="0" stop-color="#c3b0ff"/><stop offset="42%" stop-color="#7c5cff"/>
        <stop offset="80%" stop-color="#2f6cf0"/><stop offset="100%" stop-color="#14204a"/></radialGradient>
    </defs><rect x="10.0" y="12.0" width="300.0" height="636.0" rx="40" fill="url(#gFrame)"/><rect x="20.0" y="22.0" width="280.0" height="616.0" rx="31" fill="url(#gScr)"/><rect x="126.0" y="26.0" width="68.0" height="17.0" rx="9" fill="#05070d"/><text x="34.0" y="56.0" font-family="-apple-system,BlinkMacSystemFont,'SF Pro Text','Segoe UI',Roboto,system-ui,sans-serif" font-size="11" font-weight="600" fill="#8a94ad" text-anchor="start">10:09</text><text x="286.0" y="56.0" font-family="-apple-system,BlinkMacSystemFont,'SF Pro Text','Segoe UI',Roboto,system-ui,sans-serif" font-size="10" font-weight="700" fill="#7c5cff" text-anchor="end">● 27</text><text x="34.0" y="88.0" font-family="-apple-system,BlinkMacSystemFont,'SF Pro Text','Segoe UI',Roboto,system-ui,sans-serif" font-size="20" font-weight="700" fill="#eef1f7" text-anchor="start" letter-spacing="-0.4">Ambient Jump-in</text><text x="34.0" y="106.0" font-family="-apple-system,BlinkMacSystemFont,'SF Pro Text','Segoe UI',Roboto,system-ui,sans-serif" font-size="11.5" font-weight="400" fill="#8a94ad" text-anchor="start">Before you ask</text><rect x="34.0" y="122.0" width="252.0" height="52.0" rx="16" fill="url(#gCard)" stroke="#26314e" stroke-width="1"/><rect x="46.0" y="131.0" width="34.0" height="34.0" rx="11" fill="rgba(247,183,49,0.16)"/><path d="M63 140.64 L70.36 153.52 H55.64 Z" fill="none" stroke="#f7b731" stroke-width="1.56" stroke-linecap="round" stroke-linejoin="round"/><path d="M63 145.24 v3.68" fill="none" stroke="#f7b731" stroke-width="1.56" stroke-linecap="round" stroke-linejoin="round"/><circle cx="63" cy="151.68" r="0.8280000000000001" fill="#f7b731"/><text x="90.0" y="142.0" font-family="-apple-system,BlinkMacSystemFont,'SF Pro Text','Segoe UI',Roboto,system-ui,sans-serif" font-size="13" font-weight="600" fill="#eef1f7" text-anchor="start">You&#x27;ve retried this a few times</text><text x="90.0" y="157.0" font-family="-apple-system,BlinkMacSystemFont,'SF Pro Text','Segoe UI',Roboto,system-ui,sans-serif" font-size="11" font-weight="400" fill="#8a94ad" text-anchor="start">fixing the car · 50 min</text><rect x="34.0" y="184.0" width="252.0" height="52.0" rx="16" fill="url(#gCard)" stroke="#26314e" stroke-width="1"/><rect x="46.0" y="193.0" width="34.0" height="34.0" rx="11" fill="rgba(124,92,255,0.16)"/><path d="M55.64 204.48 h14.72 a2 2 0 0 1 2 2 v6.44 a2 2 0 0 1 -2 2 h-8.280000000000001 l-3.68 3.68 v-3.68 h-2.7600000000000002 a2 2 0 0 1 -2 -2 v-6.44 a2 2 0 0 1 2 -2 Z" fill="none" stroke="#7c5cff" stroke-width="1.56" stroke-linecap="round" stroke-linejoin="round"/><text x="90.0" y="204.0" font-family="-apple-system,BlinkMacSystemFont,'SF Pro Text','Segoe UI',Roboto,system-ui,sans-serif" font-size="13" font-weight="600" fill="#eef1f7" text-anchor="start">“Want a hand?”</text><text x="90.0" y="219.0" font-family="-apple-system,BlinkMacSystemFont,'SF Pro Text','Segoe UI',Roboto,system-ui,sans-serif" font-size="11" font-weight="400" fill="#8a94ad" text-anchor="start">frustration signals detected</text><rect x="34.0" y="246.0" width="252.0" height="42.0" rx="13" fill="url(#gBrand)"/><text x="160.0" y="271.5" font-family="-apple-system,BlinkMacSystemFont,'SF Pro Text','Segoe UI',Roboto,system-ui,sans-serif" font-size="13" font-weight="700" fill="#fff" text-anchor="middle">Yes, help me</text><rect x="20.0" y="586.0" width="280.0" height="52.0" rx="0" fill="#0b1220"/><rect x="20" y="586" width="280" height="1" fill="#26314e"/><circle cx="48.0" cy="604" r="5.3999999999999995" fill="none" stroke="#eef1f7" stroke-width="1.22" stroke-linecap="round" stroke-linejoin="round"/><circle cx="48.0" cy="604" r="2.52" fill="none" stroke="#eef1f7" stroke-width="1.22" stroke-linecap="round" stroke-linejoin="round"/><circle cx="48.0" cy="604" r="0.648" fill="#eef1f7"/><text x="48.0" y="626.0" font-family="-apple-system,BlinkMacSystemFont,'SF Pro Text','Segoe UI',Roboto,system-ui,sans-serif" font-size="8.5" font-weight="600" fill="#eef1f7" text-anchor="middle">Home</text><path d="M98.24 599.68 h11.52 a2 2 0 0 1 2 2 v5.04 a2 2 0 0 1 -2 2 h-6.4799999999999995 l-2.88 2.88 v-2.88 h-2.16 a2 2 0 0 1 -2 -2 v-5.04 a2 2 0 0 1 2 -2 Z" fill="none" stroke="#626d88" stroke-width="1.22" stroke-linecap="round" stroke-linejoin="round"/><text x="104.0" y="626.0" font-family="-apple-system,BlinkMacSystemFont,'SF Pro Text','Segoe UI',Roboto,system-ui,sans-serif" font-size="8.5" font-weight="600" fill="#626d88" text-anchor="middle">Chat</text><rect x="157.84" y="598.24" width="4.32" height="7.92" rx="2.16" fill="none" stroke="#626d88" stroke-width="1.22" stroke-linecap="round" stroke-linejoin="round"/><path d="M155.68 604 c0 3.5999999999999996 8.64 3.5999999999999996 8.64 0 M160.0 607.6 v2.16" fill="none" stroke="#626d88" stroke-width="1.22" stroke-linecap="round" stroke-linejoin="round"/><text x="160.0" y="626.0" font-family="-apple-system,BlinkMacSystemFont,'SF Pro Text','Segoe UI',Roboto,system-ui,sans-serif" font-size="8.5" font-weight="600" fill="#626d88" text-anchor="middle">Voice</text><rect x="210.96" y="598.96" width="10.08" height="10.08" rx="2" fill="none" stroke="#626d88" stroke-width="1.22" stroke-linecap="round" stroke-linejoin="round"/><path d="M216.0 598.96 v10.08" fill="none" stroke="#626d88" stroke-width="1.22" stroke-linecap="round" stroke-linejoin="round"/><text x="216.0" y="626.0" font-family="-apple-system,BlinkMacSystemFont,'SF Pro Text','Segoe UI',Roboto,system-ui,sans-serif" font-size="8.5" font-weight="600" fill="#626d88" text-anchor="middle">Memories</text><circle cx="272.0" cy="601.12" r="2.448" fill="none" stroke="#626d88" stroke-width="1.22" stroke-linecap="round" stroke-linejoin="round"/><path d="M267.68 609.04 c0 -4.32 8.64 -4.32 8.64 0" fill="none" stroke="#626d88" stroke-width="1.22" stroke-linecap="round" stroke-linejoin="round"/><text x="272.0" y="626.0" font-family="-apple-system,BlinkMacSystemFont,'SF Pro Text','Segoe UI',Roboto,system-ui,sans-serif" font-size="8.5" font-weight="600" fill="#626d88" text-anchor="middle">Profile</text></svg>