<svg xmlns="http://www.w3.org/2000/svg" width="320" height="660" viewBox="0 0 320 660" role="img" aria-label="Connected Sources screen"><defs>
      <linearGradient id="gScr" x1="0" y1="0" x2="0" y2="1">
        <stop offset="0" stop-color="#0e1626"/><stop offset="1" stop-color="#0a0f1c"/></linearGradient>
      <linearGradient id="gFrame" x1="0" y1="0" x2="1" y2="1">
        <stop offset="0" stop-color="#20263a"/><stop offset="1" stop-color="#0c1020"/></linearGradient>
      <linearGradient id="gCard" x1="0" y1="0" x2="0" y2="1">
        <stop offset="0" stop-color="#182238"/><stop offset="1" stop-color="#1f2b45"/></linearGradient>
      <linearGradient id="gBrand" x1="0" y1="0" x2="1" y2="0">
        <stop offset="0" stop-color="#7c5cff"/><stop offset="1" stop-color="#3aa0ff"/></linearGradient>
      <linearGradient id="gEmer" x1="0" y1="0" x2="0" y2="1">
        <stop offset="0" stop-color="#ff5b52"/><stop offset="1" stop-color="#ff3b30"/></linearGradient>
      <linearGradient id="mV" x1="0" y1="0" x2="1" y2="0"><stop offset="0" stop-color="#7c5cff"/><stop offset="1" stop-color="#3aa0ff"/></linearGradient>
      <linearGradient id="mO" x1="0" y1="0" x2="1" y2="0"><stop offset="0" stop-color="#f7b731"/><stop offset="1" stop-color="#ff7a45"/></linearGradient>
      <linearGradient id="mG" x1="0" y1="0" x2="1" y2="0"><stop offset="0" stop-color="#2fd27a"/><stop offset="1" stop-color="#43e08a"/></linearGradient>
      <radialGradient id="orb" cx="34%" cy="30%" r="75%">
        <stop offset="0" stop-color="#c3b0ff"/><stop offset="42%" stop-color="#7c5cff"/>
        <stop offset="80%" stop-color="#2f6cf0"/><stop offset="100%" stop-color="#14204a"/></radialGradient>
    </defs><rect x="10.0" y="12.0" width="300.0" height="636.0" rx="40" fill="url(#gFrame)"/><rect x="20.0" y="22.0" width="280.0" height="616.0" rx="31" fill="url(#gScr)"/><rect x="130.0" y="27.0" width="60.0" height="15.0" rx="7.5" fill="#05070d"/><text x="34.0" y="56.0" font-family="-apple-system,BlinkMacSystemFont,'SF Pro Text','Segoe UI',Roboto,system-ui,sans-serif" font-size="11" font-weight="600" fill="#8a94ad" text-anchor="start">9:41</text><rect x="264.0" y="50.0" width="20.0" height="11.0" rx="3" fill="none" stroke="#8a94ad" stroke-width="1.1"/><rect x="266.0" y="52.0" width="14.0" height="7.0" rx="2" fill="#8a94ad"/><rect x="284.6" y="53.5" width="2.0" height="5.0" rx="1" fill="#8a94ad"/><path d="M251 55 a6 6 0 0 1 11 0" fill="none" stroke="#8a94ad" stroke-width="1.3"/><circle cx="256.5" cy="59" r="1.2" fill="#8a94ad"/><rect x="234.0" y="58.1" width="2.6" height="1.9" rx="0.8" fill="#8a94ad"/><rect x="238.0" y="56.2" width="2.6" height="3.8" rx="0.8" fill="#8a94ad"/><rect x="242.0" y="54.3" width="2.6" height="5.7" rx="0.8" fill="#8a94ad"/><rect x="246.0" y="52.4" width="2.6" height="7.6" rx="0.8" fill="#8a94ad"/><text x="34.0" y="88.0" font-family="-apple-system,BlinkMacSystemFont,'SF Pro Text','Segoe UI',Roboto,system-ui,sans-serif" font-size="20" font-weight="700" fill="#eef1f7" text-anchor="start" letter-spacing="-0.4">Connected Sources</text><text x="34.0" y="106.0" font-family="-apple-system,BlinkMacSystemFont,'SF Pro Text','Segoe UI',Roboto,system-ui,sans-serif" font-size="11.5" font-weight="400" fill="#8a94ad" text-anchor="start">AI only sees what you allow</text><rect x="34.0" y="122.0" width="252.0" height="52.0" rx="16" fill="url(#gCard)" stroke="#26314e" stroke-width="1"/><rect x="46.0" y="131.0" width="34.0" height="34.0" rx="11" fill="rgba(56,189,248,0.16)"/><rect x="58.4" y="143.4" width="9.200000000000001" height="9.200000000000001" rx="2.5" fill="none" stroke="#38bdf8" stroke-width="1.56" stroke-linecap="round" stroke-linejoin="round"/><path d="M60.7 143.4 v-2.7600000000000002 h4.6000000000000005 v2.7600000000000002 M60.7 152.6 v2.7600000000000002 h4.6000000000000005 v-2.7600000000000002" fill="none" stroke="#38bdf8" stroke-width="1.56" stroke-linecap="round" stroke-linejoin="round"/><text x="90.0" y="142.0" font-family="-apple-system,BlinkMacSystemFont,'SF Pro Text','Segoe UI',Roboto,system-ui,sans-serif" font-size="13" font-weight="600" fill="#eef1f7" text-anchor="start">Wearable</text><text x="90.0" y="157.0" font-family="-apple-system,BlinkMacSystemFont,'SF Pro Text','Segoe UI',Roboto,system-ui,sans-serif" font-size="11" font-weight="400" fill="#8a94ad" text-anchor="start">heart rate, sleep</text><rect x="247.6" y="131.0" width="24.4" height="17.0" rx="8" fill="rgba(67,224,138,0.15)"/><text x="259.8" y="143.0" font-family="-apple-system,BlinkMacSystemFont,'SF Pro Text','Segoe UI',Roboto,system-ui,sans-serif" font-size="9.5" font-weight="700" fill="#43e08a" text-anchor="middle" letter-spacing="0.4">ON</text><rect x="34.0" y="184.0" width="252.0" height="52.0" rx="16" fill="url(#gCard)" stroke="#26314e" stroke-width="1"/><rect x="46.0" y="193.0" width="34.0" height="34.0" rx="11" fill="rgba(247,183,49,0.16)"/><rect x="56.56" y="210.92000000000002" width="2.9440000000000004" height="4.6000000000000005" rx="1" fill="#f7b731"/><rect x="61.160000000000004" y="207.24" width="2.9440000000000004" height="8.280000000000001" rx="1" fill="#f7b731"/><rect x="65.76" y="211.84" width="2.9440000000000004" height="3.68" rx="1" fill="#f7b731"/><rect x="70.36" y="205.4" width="2.9440000000000004" height="10.120000000000001" rx="1" fill="#f7b731"/><text x="90.0" y="204.0" font-family="-apple-system,BlinkMacSystemFont,'SF Pro Text','Segoe UI',Roboto,system-ui,sans-serif" font-size="13" font-weight="600" fill="#eef1f7" text-anchor="start">Spending</text><text x="90.0" y="219.0" font-family="-apple-system,BlinkMacSystemFont,'SF Pro Text','Segoe UI',Roboto,system-ui,sans-serif" font-size="11" font-weight="400" fill="#8a94ad" text-anchor="start">transactions</text><rect x="247.6" y="193.0" width="24.4" height="17.0" rx="8" fill="rgba(67,224,138,0.15)"/><text x="259.8" y="205.0" font-family="-apple-system,BlinkMacSystemFont,'SF Pro Text','Segoe UI',Roboto,system-ui,sans-serif" font-size="9.5" font-weight="700" fill="#43e08a" text-anchor="middle" letter-spacing="0.4">ON</text><rect x="34.0" y="246.0" width="252.0" height="52.0" rx="16" fill="url(#gCard)" stroke="#26314e" stroke-width="1"/><rect x="46.0" y="255.0" width="34.0" height="34.0" rx="11" fill="rgba(167,139,250,0.16)"/><path d="M63 264.64 c4.6000000000000005 0 4.6000000000000005 3.68 4.6000000000000005 7.36 l1.84 1.84 h-12.88 l1.84 -1.84 c0 -3.68 0 -7.36 4.6000000000000005 -7.36 M61.16 277.52 c0 2.7600000000000002 3.68 2.7600000000000002 3.68 0" fill="none" stroke="#a78bfa" stroke-width="1.56" stroke-linecap="round" stroke-linejoin="round"/><text x="90.0" y="266.0" font-family="-apple-system,BlinkMacSystemFont,'SF Pro Text','Segoe UI',Roboto,system-ui,sans-serif" font-size="13" font-weight="600" fill="#eef1f7" text-anchor="start">Calendar</text><text x="90.0" y="281.0" font-family="-apple-system,BlinkMacSystemFont,'SF Pro Text','Segoe UI',Roboto,system-ui,sans-serif" font-size="11" font-weight="400" fill="#8a94ad" text-anchor="start">events</text><rect x="241.4" y="255.0" width="30.6" height="17.0" rx="8" fill="rgba(255,59,48,0.15)"/><text x="256.7" y="267.0" font-family="-apple-system,BlinkMacSystemFont,'SF Pro Text','Segoe UI',Roboto,system-ui,sans-serif" font-size="9.5" font-weight="700" fill="#ff3b30" text-anchor="middle" letter-spacing="0.4">OFF</text><rect x="34.0" y="308.0" width="252.0" height="52.0" rx="16" fill="url(#gCard)" stroke="#26314e" stroke-width="1"/><rect x="46.0" y="317.0" width="34.0" height="34.0" rx="11" fill="rgba(124,92,255,0.16)"/><circle cx="63" cy="330.32" r="3.128" fill="none" stroke="#7c5cff" stroke-width="1.56" stroke-linecap="round" stroke-linejoin="round"/><path d="M57.48 340.44 c0 -5.5200000000000005 11.040000000000001 -5.5200000000000005 11.040000000000001 0" fill="none" stroke="#7c5cff" stroke-width="1.56" stroke-linecap="round" stroke-linejoin="round"/><text x="90.0" y="328.0" font-family="-apple-system,BlinkMacSystemFont,'SF Pro Text','Segoe UI',Roboto,system-ui,sans-serif" font-size="13" font-weight="600" fill="#eef1f7" text-anchor="start">Messages</text><text x="90.0" y="343.0" font-family="-apple-system,BlinkMacSystemFont,'SF Pro Text','Segoe UI',Roboto,system-ui,sans-serif" font-size="11" font-weight="400" fill="#8a94ad" text-anchor="start">not connected</text><rect x="241.4" y="317.0" width="30.6" height="17.0" rx="8" fill="rgba(255,59,48,0.15)"/><text x="256.7" y="329.0" font-family="-apple-system,BlinkMacSystemFont,'SF Pro Text','Segoe UI',Roboto,system-ui,sans-serif" font-size="9.5" font-weight="700" fill="#ff3b30" text-anchor="middle" letter-spacing="0.4">OFF</text><rect x="20.0" y="586.0" width="280.0" height="52.0" rx="0" fill="#0b1220"/><rect x="20" y="586" width="280" height="1" fill="#26314e"/><circle cx="48.0" cy="604" r="5.3999999999999995" fill="none" stroke="#626d88" stroke-width="1.22" stroke-linecap="round" stroke-linejoin="round"/><circle cx="48.0" cy="604" r="2.52" fill="none" stroke="#626d88" stroke-width="1.22" stroke-linecap="round" stroke-linejoin="round"/><circle cx="48.0" cy="604" r="0.648" fill="#626d88"/><text x="48.0" y="626.0" font-family="-apple-system,BlinkMacSystemFont,'SF Pro Text','Segoe UI',Roboto,system-ui,sans-serif" font-size="8.5" font-weight="600" fill="#626d88" text-anchor="middle">Home</text><path d="M98.24 599.68 h11.52 a2 2 0 0 1 2 2 v5.04 a2 2 0 0 1 -2 2 h-6.4799999999999995 l-2.88 2.88 v-2.88 h-2.16 a2 2 0 0 1 -2 -2 v-5.04 a2 2 0 0 1 2 -2 Z" fill="none" stroke="#626d88" stroke-width="1.22" stroke-linecap="round" stroke-linejoin="round"/><text x="104.0" y="626.0" font-family="-apple-system,BlinkMacSystemFont,'SF Pro Text','Segoe UI',Roboto,system-ui,sans-serif" font-size="8.5" font-weight="600" fill="#626d88" text-anchor="middle">Chat</text><rect x="157.84" y="598.24" width="4.32" height="7.92" rx="2.16" fill="none" stroke="#626d88" stroke-width="1.22" stroke-linecap="round" stroke-linejoin="round"/><path d="M155.68 604 c0 3.5999999999999996 8.64 3.5999999999999996 8.64 0 M160.0 607.6 v2.16" fill="none" stroke="#626d88" stroke-width="1.22" stroke-linecap="round" stroke-linejoin="round"/><text x="160.0" y="626.0" font-family="-apple-system,BlinkMacSystemFont,'SF Pro Text','Segoe UI',Roboto,system-ui,sans-serif" font-size="8.5" font-weight="600" fill="#626d88" text-anchor="middle">Voice</text><rect x="210.96" y="598.96" width="10.08" height="10.08" rx="2" fill="none" stroke="#626d88" stroke-width="1.22" stroke-linecap="round" stroke-linejoin="round"/><path d="M216.0 598.96 v10.08" fill="none" stroke="#626d88" stroke-width="1.22" stroke-linecap="round" stroke-linejoin="round"/><text x="216.0" y="626.0" font-family="-apple-system,BlinkMacSystemFont,'SF Pro Text','Segoe UI',Roboto,system-ui,sans-serif" font-size="8.5" font-weight="600" fill="#626d88" text-anchor="middle">Memories</text><circle cx="272.0" cy="601.12" r="2.448" fill="none" stroke="#eef1f7" stroke-width="1.22" stroke-linecap="round" stroke-linejoin="round"/><path d="M267.68 609.04 c0 -4.32 8.64 -4.32 8.64 0" fill="none" stroke="#eef1f7" stroke-width="1.22" stroke-linecap="round" stroke-linejoin="round"/><text x="272.0" y="626.0" font-family="-apple-system,BlinkMacSystemFont,'SF Pro Text','Segoe UI',Roboto,system-ui,sans-serif" font-size="8.5" font-weight="600" fill="#eef1f7" text-anchor="middle">Profile</text><rect x="118.0" y="631.0" width="84.0" height="4.0" rx="2" fill="rgba(255,255,255,0.6)"/></svg>