<svg xmlns="http://www.w3.org/2000/svg" width="320" height="660" viewBox="0 0 320 660" role="img" aria-label="Log In screen"><defs>
      <linearGradient id="gScr" x1="0" y1="0" x2="0" y2="1">
        <stop offset="0" stop-color="#0e1626"/><stop offset="1" stop-color="#0a0f1c"/></linearGradient>
      <linearGradient id="gFrame" x1="0" y1="0" x2="1" y2="1">
        <stop offset="0" stop-color="#20263a"/><stop offset="1" stop-color="#0c1020"/></linearGradient>
      <linearGradient id="gCard" x1="0" y1="0" x2="0" y2="1">
        <stop offset="0" stop-color="#182238"/><stop offset="1" stop-color="#1f2b45"/></linearGradient>
      <linearGradient id="gBrand" x1="0" y1="0" x2="1" y2="0">
        <stop offset="0" stop-color="#7c5cff"/><stop offset="1" stop-color="#3aa0ff"/></linearGradient>
      <linearGradient id="gEmer" x1="0" y1="0" x2="0" y2="1">
        <stop offset="0" stop-color="#ff5b52"/><stop offset="1" stop-color="#ff3b30"/></linearGradient>
      <linearGradient id="mV" x1="0" y1="0" x2="1" y2="0"><stop offset="0" stop-color="#7c5cff"/><stop offset="1" stop-color="#3aa0ff"/></linearGradient>
      <linearGradient id="mO" x1="0" y1="0" x2="1" y2="0"><stop offset="0" stop-color="#f7b731"/><stop offset="1" stop-color="#ff7a45"/></linearGradient>
      <linearGradient id="mG" x1="0" y1="0" x2="1" y2="0"><stop offset="0" stop-color="#2fd27a"/><stop offset="1" stop-color="#43e08a"/></linearGradient>
      <radialGradient id="orb" cx="34%" cy="30%" r="75%">
        <stop offset="0" stop-color="#c3b0ff"/><stop offset="42%" stop-color="#7c5cff"/>
        <stop offset="80%" stop-color="#2f6cf0"/><stop offset="100%" stop-color="#14204a"/></radialGradient>
    </defs><rect x="10.0" y="12.0" width="300.0" height="636.0" rx="40" fill="url(#gFrame)"/><rect x="20.0" y="22.0" width="280.0" height="616.0" rx="31" fill="url(#gScr)"/><rect x="130.0" y="27.0" width="60.0" height="15.0" rx="7.5" fill="#05070d"/><text x="34.0" y="56.0" font-family="-apple-system,BlinkMacSystemFont,'SF Pro Text','Segoe UI',Roboto,system-ui,sans-serif" font-size="11" font-weight="600" fill="#8a94ad" text-anchor="start">9:41</text><rect x="264.0" y="50.0" width="20.0" height="11.0" rx="3" fill="none" stroke="#8a94ad" stroke-width="1.1"/><rect x="266.0" y="52.0" width="14.0" height="7.0" rx="2" fill="#8a94ad"/><rect x="284.6" y="53.5" width="2.0" height="5.0" rx="1" fill="#8a94ad"/><path d="M251 55 a6 6 0 0 1 11 0" fill="none" stroke="#8a94ad" stroke-width="1.3"/><circle cx="256.5" cy="59" r="1.2" fill="#8a94ad"/><rect x="234.0" y="58.1" width="2.6" height="1.9" rx="0.8" fill="#8a94ad"/><rect x="238.0" y="56.2" width="2.6" height="3.8" rx="0.8" fill="#8a94ad"/><rect x="242.0" y="54.3" width="2.6" height="5.7" rx="0.8" fill="#8a94ad"/><rect x="246.0" y="52.4" width="2.6" height="7.6" rx="0.8" fill="#8a94ad"/><text x="34.0" y="88.0" font-family="-apple-system,BlinkMacSystemFont,'SF Pro Text','Segoe UI',Roboto,system-ui,sans-serif" font-size="20" font-weight="700" fill="#eef1f7" text-anchor="start" letter-spacing="-0.4">Log In</text><text x="34.0" y="106.0" font-family="-apple-system,BlinkMacSystemFont,'SF Pro Text','Segoe UI',Roboto,system-ui,sans-serif" font-size="11.5" font-weight="400" fill="#8a94ad" text-anchor="start">Apple, Google or email</text><circle cx="160.0" cy="158" r="30" fill="url(#orb)"/><circle cx="160.0" cy="158" r="30" fill="none" stroke="rgba(255,255,255,0.13)" stroke-width="1"/><ellipse cx="151.6" cy="148.4" rx="8.4" ry="5.3999999999999995" fill="rgba(255,255,255,0.33)"/><path d="M160.0 144.8 l9.799999999999999 4.199999999999999 v7.0 c0 7.0 -4.199999999999999 9.799999999999999 -9.799999999999999 12.6 c-5.6 -2.8 -9.799999999999999 -5.6 -9.799999999999999 -12.6 v-7.0 Z" fill="none" stroke="rgba(255,255,255,0.92)" stroke-width="2.38" stroke-linecap="round" stroke-linejoin="round"/><text x="160.0" y="204.0" font-family="-apple-system,BlinkMacSystemFont,'SF Pro Text','Segoe UI',Roboto,system-ui,sans-serif" font-size="17" font-weight="750" fill="#fff" text-anchor="middle" letter-spacing="-0.3">Sign in to Jim Mini</text><text x="160.0" y="224.0" font-family="-apple-system,BlinkMacSystemFont,'SF Pro Text','Segoe UI',Roboto,system-ui,sans-serif" font-size="11" font-weight="400" fill="#8a94ad" text-anchor="middle">One login for your Guardian</text><rect x="34.0" y="246.0" width="252.0" height="46.0" rx="13" fill="#ffffff"/><g transform="translate(64.0,258.0) scale(0.66)" fill="#0b0b0f"><path d="M16.365 1.43c0 1.14-.493 2.27-1.177 3.08-.744.9-1.99 1.57-2.987 1.49-.12-1.15.42-2.35 1.07-3.08.72-.81 2.02-1.47 3.09-1.49zM20.5 17.06c-.06.14-.94 3.22-3.1 3.25-1.75.02-2.31-1.04-4.31-1.04-2 0-2.62 1.02-4.28 1.06-2.09.08-3.68-3.29-3.74-3.43-.06-.14-1.62-6.18 1.32-9.03.98-.96 2.36-1.5 3.65-1.5 1.75 0 2.82 1.05 4.25 1.05 1.37 0 2.2-1.05 4.28-1.05 1.03 0 2.6.42 3.6 1.66-3.16 1.73-2.65 6.24.53 8.03z"/></g><text x="170.0" y="274.0" font-family="-apple-system,BlinkMacSystemFont,'SF Pro Text','Segoe UI',Roboto,system-ui,sans-serif" font-size="13" font-weight="650" fill="#0b0b0f" text-anchor="middle">Continue with Apple</text><rect x="34.0" y="300.0" width="252.0" height="46.0" rx="13" fill="#ffffff"/><g transform="translate(65.0,315.0) scale(0.66)"><path fill="#4285F4" d="M23.06 12.25c0-.78-.07-1.53-.2-2.25H12v4.26h6.2a5.3 5.3 0 0 1-2.3 3.48v2.89h3.72c2.18-2 3.44-4.96 3.44-8.38z"/><path fill="#34A853" d="M12 24c3.24 0 5.95-1.08 7.94-2.91l-3.72-2.89c-1.03.69-2.35 1.1-4.22 1.1-3.25 0-6-2.19-6.98-5.13H1.18v2.98A12 12 0 0 0 12 24z"/><path fill="#FBBC05" d="M5.02 14.27a7.2 7.2 0 0 1 0-4.54V6.75H1.18a12 12 0 0 0 0 10.5l3.84-2.98z"/><path fill="#EA4335" d="M12 4.75c1.77 0 3.35.61 4.6 1.8l3.3-3.3C17.95 1.19 15.24 0 12 0A12 12 0 0 0 1.18 6.75l3.84 2.98C6 6.94 8.75 4.75 12 4.75z"/></g><text x="170.0" y="328.0" font-family="-apple-system,BlinkMacSystemFont,'SF Pro Text','Segoe UI',Roboto,system-ui,sans-serif" font-size="13" font-weight="650" fill="#1f1f1f" text-anchor="middle">Continue with Google</text><rect x="34.0" y="354.0" width="252.0" height="46.0" rx="13" fill="rgba(255,255,255,0.06)" stroke="#26314e" stroke-width="1"/><rect x="66.0" y="371.0" width="18" height="13" rx="2.5" fill="none" stroke="#7c5cff" stroke-width="1.7"/><path d="M67.0 373.0 L75.0 379.0 L83.0 373.0" fill="none" stroke="#7c5cff" stroke-width="1.7" stroke-linecap="round" stroke-linejoin="round"/><text x="170.0" y="382.0" font-family="-apple-system,BlinkMacSystemFont,'SF Pro Text','Segoe UI',Roboto,system-ui,sans-serif" font-size="13" font-weight="650" fill="#eef1f7" text-anchor="middle">Continue with Email</text><text x="160.0" y="416.0" font-family="-apple-system,BlinkMacSystemFont,'SF Pro Text','Segoe UI',Roboto,system-ui,sans-serif" font-size="9.5" font-weight="500" fill="#626d88" text-anchor="middle">Your vault unlocks with Face ID after sign-in.</text><text x="160.0" y="432.0" font-family="-apple-system,BlinkMacSystemFont,'SF Pro Text','Segoe UI',Roboto,system-ui,sans-serif" font-size="9" font-weight="500" fill="#626d88" text-anchor="middle">By continuing you agree to the Terms &amp; Privacy Policy.</text><rect x="20.0" y="586.0" width="280.0" height="52.0" rx="0" fill="#0b1220"/><rect x="20" y="586" width="280" height="1" fill="#26314e"/><circle cx="48.0" cy="604" r="5.3999999999999995" fill="none" stroke="#eef1f7" stroke-width="1.22" stroke-linecap="round" stroke-linejoin="round"/><circle cx="48.0" cy="604" r="2.52" fill="none" stroke="#eef1f7" stroke-width="1.22" stroke-linecap="round" stroke-linejoin="round"/><circle cx="48.0" cy="604" r="0.648" fill="#eef1f7"/><text x="48.0" y="626.0" font-family="-apple-system,BlinkMacSystemFont,'SF Pro Text','Segoe UI',Roboto,system-ui,sans-serif" font-size="8.5" font-weight="600" fill="#eef1f7" text-anchor="middle">Home</text><path d="M98.24 599.68 h11.52 a2 2 0 0 1 2 2 v5.04 a2 2 0 0 1 -2 2 h-6.4799999999999995 l-2.88 2.88 v-2.88 h-2.16 a2 2 0 0 1 -2 -2 v-5.04 a2 2 0 0 1 2 -2 Z" fill="none" stroke="#626d88" stroke-width="1.22" stroke-linecap="round" stroke-linejoin="round"/><text x="104.0" y="626.0" font-family="-apple-system,BlinkMacSystemFont,'SF Pro Text','Segoe UI',Roboto,system-ui,sans-serif" font-size="8.5" font-weight="600" fill="#626d88" text-anchor="middle">Chat</text><rect x="157.84" y="598.24" width="4.32" height="7.92" rx="2.16" fill="none" stroke="#626d88" stroke-width="1.22" stroke-linecap="round" stroke-linejoin="round"/><path d="M155.68 604 c0 3.5999999999999996 8.64 3.5999999999999996 8.64 0 M160.0 607.6 v2.16" fill="none" stroke="#626d88" stroke-width="1.22" stroke-linecap="round" stroke-linejoin="round"/><text x="160.0" y="626.0" font-family="-apple-system,BlinkMacSystemFont,'SF Pro Text','Segoe UI',Roboto,system-ui,sans-serif" font-size="8.5" font-weight="600" fill="#626d88" text-anchor="middle">Voice</text><rect x="210.96" y="598.96" width="10.08" height="10.08" rx="2" fill="none" stroke="#626d88" stroke-width="1.22" stroke-linecap="round" stroke-linejoin="round"/><path d="M216.0 598.96 v10.08" fill="none" stroke="#626d88" stroke-width="1.22" stroke-linecap="round" stroke-linejoin="round"/><text x="216.0" y="626.0" font-family="-apple-system,BlinkMacSystemFont,'SF Pro Text','Segoe UI',Roboto,system-ui,sans-serif" font-size="8.5" font-weight="600" fill="#626d88" text-anchor="middle">Memories</text><circle cx="272.0" cy="601.12" r="2.448" fill="none" stroke="#626d88" stroke-width="1.22" stroke-linecap="round" stroke-linejoin="round"/><path d="M267.68 609.04 c0 -4.32 8.64 -4.32 8.64 0" fill="none" stroke="#626d88" stroke-width="1.22" stroke-linecap="round" stroke-linejoin="round"/><text x="272.0" y="626.0" font-family="-apple-system,BlinkMacSystemFont,'SF Pro Text','Segoe UI',Roboto,system-ui,sans-serif" font-size="8.5" font-weight="600" fill="#626d88" text-anchor="middle">Profile</text><rect x="118.0" y="631.0" width="84.0" height="4.0" rx="2" fill="rgba(255,255,255,0.6)"/></svg>