<svg xmlns="http://www.w3.org/2000/svg" width="320" height="660" viewBox="0 0 320 660" role="img" aria-label="About You screen"><defs>
      <linearGradient id="gScr" x1="0" y1="0" x2="0" y2="1">
        <stop offset="0" stop-color="#0e1626"/><stop offset="1" stop-color="#0a0f1c"/></linearGradient>
      <linearGradient id="gFrame" x1="0" y1="0" x2="1" y2="1">
        <stop offset="0" stop-color="#20263a"/><stop offset="1" stop-color="#0c1020"/></linearGradient>
      <linearGradient id="gCard" x1="0" y1="0" x2="0" y2="1">
        <stop offset="0" stop-color="#182238"/><stop offset="1" stop-color="#1f2b45"/></linearGradient>
      <linearGradient id="gBrand" x1="0" y1="0" x2="1" y2="0">
        <stop offset="0" stop-color="#7c5cff"/><stop offset="1" stop-color="#3aa0ff"/></linearGradient>
      <linearGradient id="gEmer" x1="0" y1="0" x2="0" y2="1">
        <stop offset="0" stop-color="#ff5b52"/><stop offset="1" stop-color="#ff3b30"/></linearGradient>
      <linearGradient id="mV" x1="0" y1="0" x2="1" y2="0"><stop offset="0" stop-color="#7c5cff"/><stop offset="1" stop-color="#3aa0ff"/></linearGradient>
      <linearGradient id="mO" x1="0" y1="0" x2="1" y2="0"><stop offset="0" stop-color="#f7b731"/><stop offset="1" stop-color="#ff7a45"/></linearGradient>
      <linearGradient id="mG" x1="0" y1="0" x2="1" y2="0"><stop offset="0" stop-color="#2fd27a"/><stop offset="1" stop-color="#43e08a"/></linearGradient>
      <radialGradient id="orb" cx="34%" cy="30%" r="75%">
        <stop offset="0" stop-color="#c3b0ff"/><stop offset="42%" stop-color="#7c5cff"/>
        <stop offset="80%" stop-color="#2f6cf0"/><stop offset="100%" stop-color="#14204a"/></radialGradient>
    </defs><rect x="10.0" y="12.0" width="300.0" height="636.0" rx="40" fill="url(#gFrame)"/><rect x="20.0" y="22.0" width="280.0" height="616.0" rx="31" fill="url(#gScr)"/><rect x="130.0" y="27.0" width="60.0" height="15.0" rx="7.5" fill="#05070d"/><text x="34.0" y="56.0" font-family="-apple-system,BlinkMacSystemFont,'SF Pro Text','Segoe UI',Roboto,system-ui,sans-serif" font-size="11" font-weight="600" fill="#8a94ad" text-anchor="start">9:41</text><rect x="264.0" y="50.0" width="20.0" height="11.0" rx="3" fill="none" stroke="#8a94ad" stroke-width="1.1"/><rect x="266.0" y="52.0" width="14.0" height="7.0" rx="2" fill="#8a94ad"/><rect x="284.6" y="53.5" width="2.0" height="5.0" rx="1" fill="#8a94ad"/><path d="M251 55 a6 6 0 0 1 11 0" fill="none" stroke="#8a94ad" stroke-width="1.3"/><circle cx="256.5" cy="59" r="1.2" fill="#8a94ad"/><rect x="234.0" y="58.1" width="2.6" height="1.9" rx="0.8" fill="#8a94ad"/><rect x="238.0" y="56.2" width="2.6" height="3.8" rx="0.8" fill="#8a94ad"/><rect x="242.0" y="54.3" width="2.6" height="5.7" rx="0.8" fill="#8a94ad"/><rect x="246.0" y="52.4" width="2.6" height="7.6" rx="0.8" fill="#8a94ad"/><text x="34.0" y="88.0" font-family="-apple-system,BlinkMacSystemFont,'SF Pro Text','Segoe UI',Roboto,system-ui,sans-serif" font-size="20" font-weight="700" fill="#eef1f7" text-anchor="start" letter-spacing="-0.4">About You</text><text x="34.0" y="106.0" font-family="-apple-system,BlinkMacSystemFont,'SF Pro Text','Segoe UI',Roboto,system-ui,sans-serif" font-size="11.5" font-weight="400" fill="#8a94ad" text-anchor="start">Help Jim understand you</text><text x="34.0" y="122.0" font-family="-apple-system,BlinkMacSystemFont,'SF Pro Text','Segoe UI',Roboto,system-ui,sans-serif" font-size="10.5" font-weight="400" fill="#8a94ad" text-anchor="start">The more Jim understands, the better it guides.</text><rect x="34.0" y="146.0" width="252.0" height="54.0" rx="14" fill="url(#gCard)" stroke="#26314e" stroke-width="1"/><circle cx="62" cy="173" r="16" fill="rgba(124,92,255,0.2)" stroke="#7c5cff" stroke-width="1.2"/><text x="62.0" y="178.0" font-family="-apple-system,BlinkMacSystemFont,'SF Pro Text','Segoe UI',Roboto,system-ui,sans-serif" font-size="15" font-weight="800" fill="#7c5cff" text-anchor="middle">M</text><text x="88.0" y="170.0" font-family="-apple-system,BlinkMacSystemFont,'SF Pro Text','Segoe UI',Roboto,system-ui,sans-serif" font-size="13" font-weight="650" fill="#eef1f7" text-anchor="start">Maria Bianchi</text><text x="88.0" y="186.0" font-family="-apple-system,BlinkMacSystemFont,'SF Pro Text','Segoe UI',Roboto,system-ui,sans-serif" font-size="10.5" font-weight="400" fill="#8a94ad" text-anchor="start">42 · San Francisco</text><text x="34.0" y="212.0" font-family="-apple-system,BlinkMacSystemFont,'SF Pro Text','Segoe UI',Roboto,system-ui,sans-serif" font-size="9.5" font-weight="700" fill="#626d88" text-anchor="start" letter-spacing="0.6">KNOWN CONDITIONS</text><rect x="34.0" y="230.0" width="106.8" height="27.0" rx="13" fill="rgba(255,77,94,0.12)" stroke="#ff4d5e" stroke-width="1"/><path d="M49 246.98 C43.78 241.76,44.94 238.28,49 241.18 C53.06 238.28,54.22 241.76,49 246.98 Z" fill="#ff4d5e"/><text x="60.0" y="247.0" font-family="-apple-system,BlinkMacSystemFont,'SF Pro Text','Segoe UI',Roboto,system-ui,sans-serif" font-size="10.5" font-weight="600" fill="#eef1f7" text-anchor="start">Hypertension</text><rect x="148.8" y="230.0" width="126.0" height="27.0" rx="13" fill="rgba(255,77,94,0.12)" stroke="#ff4d5e" stroke-width="1"/><path d="M163.8 239.44 C167.86 244.08,166.70000000000002 247.56,163.8 247.56 C160.9 247.56,159.74 244.08,163.8 239.44 Z" fill="#ff4d5e"/><text x="174.8" y="247.0" font-family="-apple-system,BlinkMacSystemFont,'SF Pro Text','Segoe UI',Roboto,system-ui,sans-serif" font-size="10.5" font-weight="600" fill="#eef1f7" text-anchor="start">Type 2 diabetes</text><rect x="34.0" y="264.0" width="74.8" height="27.0" rx="13" fill="rgba(255,77,94,0.12)" stroke="#ff4d5e" stroke-width="1"/><circle cx="47.26" cy="277.5" r="2.9" fill="none" stroke="#ff4d5e" stroke-width="0.99" stroke-linecap="round" stroke-linejoin="round"/><circle cx="50.74" cy="277.5" r="2.9" fill="none" stroke="#ff4d5e" stroke-width="0.99" stroke-linecap="round" stroke-linejoin="round"/><text x="60.0" y="281.0" font-family="-apple-system,BlinkMacSystemFont,'SF Pro Text','Segoe UI',Roboto,system-ui,sans-serif" font-size="10.5" font-weight="600" fill="#eef1f7" text-anchor="start">Anxiety</text><text x="34.0" y="304.0" font-family="-apple-system,BlinkMacSystemFont,'SF Pro Text','Segoe UI',Roboto,system-ui,sans-serif" font-size="9.5" font-weight="700" fill="#626d88" text-anchor="start" letter-spacing="0.6">WHAT MATTERS MOST</text><rect x="34.0" y="322.0" width="68.4" height="27.0" rx="13" fill="rgba(45,212,191,0.12)" stroke="#2dd4bf" stroke-width="1"/><path d="M49 338.98 C43.78 333.76,44.94 330.28,49 333.18 C53.06 330.28,54.22 333.76,49 338.98 Z" fill="#2dd4bf"/><text x="60.0" y="339.0" font-family="-apple-system,BlinkMacSystemFont,'SF Pro Text','Segoe UI',Roboto,system-ui,sans-serif" font-size="10.5" font-weight="600" fill="#eef1f7" text-anchor="start">Family</text><rect x="110.4" y="322.0" width="55.6" height="27.0" rx="13" fill="rgba(45,212,191,0.12)" stroke="#2dd4bf" stroke-width="1"/><path d="M121.92 338.98 c0 -5.22 3.4799999999999995 -7.539999999999999 6.959999999999999 -6.959999999999999 c0.58 3.4799999999999995 -1.7399999999999998 6.959999999999999 -6.959999999999999 6.959999999999999 Z M123.66000000000001 337.24 l3.4799999999999995 -3.4799999999999995" fill="none" stroke="#2dd4bf" stroke-width="0.99" stroke-linecap="round" stroke-linejoin="round"/><text x="136.4" y="339.0" font-family="-apple-system,BlinkMacSystemFont,'SF Pro Text','Segoe UI',Roboto,system-ui,sans-serif" font-size="10.5" font-weight="600" fill="#eef1f7" text-anchor="start">Calm</text><rect x="174.0" y="322.0" width="74.8" height="27.0" rx="13" fill="rgba(45,212,191,0.12)" stroke="#2dd4bf" stroke-width="1"/><circle cx="189.0" cy="335.5" r="4.35" fill="none" stroke="#2dd4bf" stroke-width="0.99" stroke-linecap="round" stroke-linejoin="round"/><circle cx="189.0" cy="335.5" r="2.03" fill="none" stroke="#2dd4bf" stroke-width="0.99" stroke-linecap="round" stroke-linejoin="round"/><circle cx="189.0" cy="335.5" r="0.522" fill="#2dd4bf"/><text x="200.0" y="339.0" font-family="-apple-system,BlinkMacSystemFont,'SF Pro Text','Segoe UI',Roboto,system-ui,sans-serif" font-size="10.5" font-weight="600" fill="#eef1f7" text-anchor="start">Fitness</text><rect x="34.0" y="356.0" width="81.2" height="27.0" rx="13" fill="rgba(45,212,191,0.12)" stroke="#2dd4bf" stroke-width="1"/><rect x="44.94" y="365.44" width="8.12" height="8.12" rx="2" fill="none" stroke="#2dd4bf" stroke-width="0.99" stroke-linecap="round" stroke-linejoin="round"/><path d="M49 365.44 v8.12" fill="none" stroke="#2dd4bf" stroke-width="0.99" stroke-linecap="round" stroke-linejoin="round"/><text x="60.0" y="373.0" font-family="-apple-system,BlinkMacSystemFont,'SF Pro Text','Segoe UI',Roboto,system-ui,sans-serif" font-size="10.5" font-weight="600" fill="#eef1f7" text-anchor="start">Learning</text><rect x="34.0" y="398.0" width="252.0" height="44.0" rx="13" fill="url(#gBrand)"/><text x="160.0" y="424.5" font-family="-apple-system,BlinkMacSystemFont,'SF Pro Text','Segoe UI',Roboto,system-ui,sans-serif" font-size="13" font-weight="700" fill="#fff" text-anchor="middle">Continue</text><rect x="20.0" y="586.0" width="280.0" height="52.0" rx="0" fill="#0b1220"/><rect x="20" y="586" width="280" height="1" fill="#26314e"/><circle cx="48.0" cy="604" r="5.3999999999999995" fill="none" stroke="#eef1f7" stroke-width="1.22" stroke-linecap="round" stroke-linejoin="round"/><circle cx="48.0" cy="604" r="2.52" fill="none" stroke="#eef1f7" stroke-width="1.22" stroke-linecap="round" stroke-linejoin="round"/><circle cx="48.0" cy="604" r="0.648" fill="#eef1f7"/><text x="48.0" y="626.0" font-family="-apple-system,BlinkMacSystemFont,'SF Pro Text','Segoe UI',Roboto,system-ui,sans-serif" font-size="8.5" font-weight="600" fill="#eef1f7" text-anchor="middle">Home</text><path d="M98.24 599.68 h11.52 a2 2 0 0 1 2 2 v5.04 a2 2 0 0 1 -2 2 h-6.4799999999999995 l-2.88 2.88 v-2.88 h-2.16 a2 2 0 0 1 -2 -2 v-5.04 a2 2 0 0 1 2 -2 Z" fill="none" stroke="#626d88" stroke-width="1.22" stroke-linecap="round" stroke-linejoin="round"/><text x="104.0" y="626.0" font-family="-apple-system,BlinkMacSystemFont,'SF Pro Text','Segoe UI',Roboto,system-ui,sans-serif" font-size="8.5" font-weight="600" fill="#626d88" text-anchor="middle">Chat</text><rect x="157.84" y="598.24" width="4.32" height="7.92" rx="2.16" fill="none" stroke="#626d88" stroke-width="1.22" stroke-linecap="round" stroke-linejoin="round"/><path d="M155.68 604 c0 3.5999999999999996 8.64 3.5999999999999996 8.64 0 M160.0 607.6 v2.16" fill="none" stroke="#626d88" stroke-width="1.22" stroke-linecap="round" stroke-linejoin="round"/><text x="160.0" y="626.0" font-family="-apple-system,BlinkMacSystemFont,'SF Pro Text','Segoe UI',Roboto,system-ui,sans-serif" font-size="8.5" font-weight="600" fill="#626d88" text-anchor="middle">Voice</text><rect x="210.96" y="598.96" width="10.08" height="10.08" rx="2" fill="none" stroke="#626d88" stroke-width="1.22" stroke-linecap="round" stroke-linejoin="round"/><path d="M216.0 598.96 v10.08" fill="none" stroke="#626d88" stroke-width="1.22" stroke-linecap="round" stroke-linejoin="round"/><text x="216.0" y="626.0" font-family="-apple-system,BlinkMacSystemFont,'SF Pro Text','Segoe UI',Roboto,system-ui,sans-serif" font-size="8.5" font-weight="600" fill="#626d88" text-anchor="middle">Memories</text><circle cx="272.0" cy="601.12" r="2.448" fill="none" stroke="#626d88" stroke-width="1.22" stroke-linecap="round" stroke-linejoin="round"/><path d="M267.68 609.04 c0 -4.32 8.64 -4.32 8.64 0" fill="none" stroke="#626d88" stroke-width="1.22" stroke-linecap="round" stroke-linejoin="round"/><text x="272.0" y="626.0" font-family="-apple-system,BlinkMacSystemFont,'SF Pro Text','Segoe UI',Roboto,system-ui,sans-serif" font-size="8.5" font-weight="600" fill="#626d88" text-anchor="middle">Profile</text><rect x="118.0" y="631.0" width="84.0" height="4.0" rx="2" fill="rgba(255,255,255,0.6)"/></svg>