<svg xmlns="http://www.w3.org/2000/svg" width="320" height="660" viewBox="0 0 320 660" role="img" aria-label="Guardian Sensitivity screen"><defs>
      <linearGradient id="gScr" x1="0" y1="0" x2="0" y2="1">
        <stop offset="0" stop-color="#0e1626"/><stop offset="1" stop-color="#0a0f1c"/></linearGradient>
      <linearGradient id="gFrame" x1="0" y1="0" x2="1" y2="1">
        <stop offset="0" stop-color="#20263a"/><stop offset="1" stop-color="#0c1020"/></linearGradient>
      <linearGradient id="gCard" x1="0" y1="0" x2="0" y2="1">
        <stop offset="0" stop-color="#182238"/><stop offset="1" stop-color="#1f2b45"/></linearGradient>
      <linearGradient id="gBrand" x1="0" y1="0" x2="1" y2="0">
        <stop offset="0" stop-color="#7c5cff"/><stop offset="1" stop-color="#3aa0ff"/></linearGradient>
      <linearGradient id="gEmer" x1="0" y1="0" x2="0" y2="1">
        <stop offset="0" stop-color="#ff5b52"/><stop offset="1" stop-color="#ff3b30"/></linearGradient>
      <linearGradient id="mV" x1="0" y1="0" x2="1" y2="0"><stop offset="0" stop-color="#7c5cff"/><stop offset="1" stop-color="#3aa0ff"/></linearGradient>
      <linearGradient id="mO" x1="0" y1="0" x2="1" y2="0"><stop offset="0" stop-color="#f7b731"/><stop offset="1" stop-color="#ff7a45"/></linearGradient>
      <linearGradient id="mG" x1="0" y1="0" x2="1" y2="0"><stop offset="0" stop-color="#2fd27a"/><stop offset="1" stop-color="#43e08a"/></linearGradient>
      <radialGradient id="orb" cx="34%" cy="30%" r="75%">
        <stop offset="0" stop-color="#c3b0ff"/><stop offset="42%" stop-color="#7c5cff"/>
        <stop offset="80%" stop-color="#2f6cf0"/><stop offset="100%" stop-color="#14204a"/></radialGradient>
    </defs><rect x="10.0" y="12.0" width="300.0" height="636.0" rx="40" fill="url(#gFrame)"/><rect x="20.0" y="22.0" width="280.0" height="616.0" rx="31" fill="url(#gScr)"/><circle cx="160.0" cy="34" r="4.5" fill="#05070d"/><circle cx="160.0" cy="34" r="4.5" fill="none" stroke="#26314e" stroke-width="1"/><text x="34.0" y="56.0" font-family="-apple-system,BlinkMacSystemFont,'SF Pro Text','Segoe UI',Roboto,system-ui,sans-serif" font-size="11" font-weight="600" fill="#8a94ad" text-anchor="start">9:41</text><rect x="277.0" y="49.0" width="8.0" height="12.0" rx="1.5" fill="none" stroke="#8a94ad" stroke-width="1.2"/><rect x="278.5" y="53.0" width="5.0" height="7.0" rx="1" fill="#8a94ad"/><path d="M266 61 L271 52 L276 61 Z" fill="#8a94ad"/><path d="M253 61 L253 54 L261 61 Z" fill="#8a94ad"/><text x="34.0" y="88.0" font-family="-apple-system,BlinkMacSystemFont,'SF Pro Text','Segoe UI',Roboto,system-ui,sans-serif" font-size="20" font-weight="700" fill="#eef1f7" text-anchor="start" letter-spacing="-0.4">Guardian Sensitivity</text><text x="34.0" y="106.0" font-family="-apple-system,BlinkMacSystemFont,'SF Pro Text','Segoe UI',Roboto,system-ui,sans-serif" font-size="11.5" font-weight="400" fill="#8a94ad" text-anchor="start">How readily Jim steps in</text><rect x="34.0" y="122.0" width="252.0" height="40.0" rx="13" fill="#0c1424" stroke="#26314e" stroke-width="1"/><text x="78.7" y="147.0" font-family="-apple-system,BlinkMacSystemFont,'SF Pro Text','Segoe UI',Roboto,system-ui,sans-serif" font-size="12" font-weight="650" fill="#8a94ad" text-anchor="middle">Cautious</text><rect x="119.3" y="126.0" width="81.3" height="32.0" rx="10" fill="url(#gBrand)"/><text x="160.0" y="147.0" font-family="-apple-system,BlinkMacSystemFont,'SF Pro Text','Segoe UI',Roboto,system-ui,sans-serif" font-size="12" font-weight="650" fill="#fff" text-anchor="middle">Balanced</text><text x="241.3" y="147.0" font-family="-apple-system,BlinkMacSystemFont,'SF Pro Text','Segoe UI',Roboto,system-ui,sans-serif" font-size="12" font-weight="650" fill="#8a94ad" text-anchor="middle">Assertive</text><rect x="34.0" y="174.0" width="252.0" height="66.0" rx="16" fill="url(#gCard)" stroke="#26314e" stroke-width="1"/><rect x="46.0" y="183.0" width="34.0" height="34.0" rx="11" fill="rgba(255,77,94,0.16)"/><path d="M63 205.52 C54.72 197.24,56.56 191.72,63 196.32 C69.44 191.72,71.28 197.24,63 205.52 Z" fill="#ff4d5e"/><text x="90.0" y="200.0" font-family="-apple-system,BlinkMacSystemFont,'SF Pro Text','Segoe UI',Roboto,system-ui,sans-serif" font-size="13" font-weight="600" fill="#eef1f7" text-anchor="start">Heart-rate trigger</text><text x="90.0" y="215.0" font-family="-apple-system,BlinkMacSystemFont,'SF Pro Text','Segoe UI',Roboto,system-ui,sans-serif" font-size="11" font-weight="400" fill="#8a94ad" text-anchor="start">+40 bpm over your baseline</text><rect x="90.0" y="224.0" width="182.0" height="7.0" rx="4" fill="#0d1526" stroke="#26314e" stroke-width="1"/><rect x="90.0" y="224.0" width="91.0" height="7.0" rx="4" fill="url(#mV)"/><rect x="34.0" y="250.0" width="252.0" height="52.0" rx="16" fill="url(#gCard)" stroke="#26314e" stroke-width="1"/><text x="48.0" y="270.0" font-family="-apple-system,BlinkMacSystemFont,'SF Pro Text','Segoe UI',Roboto,system-ui,sans-serif" font-size="13" font-weight="600" fill="#eef1f7" text-anchor="start">Quiet hours</text><text x="48.0" y="285.0" font-family="-apple-system,BlinkMacSystemFont,'SF Pro Text','Segoe UI',Roboto,system-ui,sans-serif" font-size="11" font-weight="400" fill="#8a94ad" text-anchor="start">No unprompted check-ins</text><text x="272.0" y="283.0" font-family="-apple-system,BlinkMacSystemFont,'SF Pro Text','Segoe UI',Roboto,system-ui,sans-serif" font-size="20" font-weight="750" fill="#eef1f7" text-anchor="end">22–07</text><rect x="34.0" y="312.0" width="252.0" height="52.0" rx="16" fill="url(#gCard)" stroke="#26314e" stroke-width="1"/><rect x="46.0" y="321.0" width="34.0" height="34.0" rx="11" fill="rgba(67,224,138,0.16)"/><rect x="56.56" y="338.91999999999996" width="2.9440000000000004" height="4.6000000000000005" rx="1" fill="#43e08a"/><rect x="61.160000000000004" y="335.24" width="2.9440000000000004" height="8.280000000000001" rx="1" fill="#43e08a"/><rect x="65.76" y="339.84" width="2.9440000000000004" height="3.68" rx="1" fill="#43e08a"/><rect x="70.36" y="333.4" width="2.9440000000000004" height="10.120000000000001" rx="1" fill="#43e08a"/><text x="90.0" y="332.0" font-family="-apple-system,BlinkMacSystemFont,'SF Pro Text','Segoe UI',Roboto,system-ui,sans-serif" font-size="13" font-weight="600" fill="#eef1f7" text-anchor="start">Learning your baseline</text><text x="90.0" y="347.0" font-family="-apple-system,BlinkMacSystemFont,'SF Pro Text','Segoe UI',Roboto,system-ui,sans-serif" font-size="11" font-weight="400" fill="#8a94ad" text-anchor="start">resting 60 · 40 calm samples</text><rect x="241.4" y="321.0" width="30.6" height="17.0" rx="8" fill="rgba(67,224,138,0.15)"/><text x="256.7" y="333.0" font-family="-apple-system,BlinkMacSystemFont,'SF Pro Text','Segoe UI',Roboto,system-ui,sans-serif" font-size="9.5" font-weight="700" fill="#43e08a" text-anchor="middle" letter-spacing="0.4">SET</text><rect x="20.0" y="586.0" width="280.0" height="52.0" rx="0" fill="#0b1220"/><rect x="20" y="586" width="280" height="1" fill="#26314e"/><circle cx="48.0" cy="604" r="5.3999999999999995" fill="none" stroke="#626d88" stroke-width="1.22" stroke-linecap="round" stroke-linejoin="round"/><circle cx="48.0" cy="604" r="2.52" fill="none" stroke="#626d88" stroke-width="1.22" stroke-linecap="round" stroke-linejoin="round"/><circle cx="48.0" cy="604" r="0.648" fill="#626d88"/><text x="48.0" y="626.0" font-family="-apple-system,BlinkMacSystemFont,'SF Pro Text','Segoe UI',Roboto,system-ui,sans-serif" font-size="8.5" font-weight="600" fill="#626d88" text-anchor="middle">Home</text><path d="M98.24 599.68 h11.52 a2 2 0 0 1 2 2 v5.04 a2 2 0 0 1 -2 2 h-6.4799999999999995 l-2.88 2.88 v-2.88 h-2.16 a2 2 0 0 1 -2 -2 v-5.04 a2 2 0 0 1 2 -2 Z" fill="none" stroke="#626d88" stroke-width="1.22" stroke-linecap="round" stroke-linejoin="round"/><text x="104.0" y="626.0" font-family="-apple-system,BlinkMacSystemFont,'SF Pro Text','Segoe UI',Roboto,system-ui,sans-serif" font-size="8.5" font-weight="600" fill="#626d88" text-anchor="middle">Chat</text><rect x="157.84" y="598.24" width="4.32" height="7.92" rx="2.16" fill="none" stroke="#626d88" stroke-width="1.22" stroke-linecap="round" stroke-linejoin="round"/><path d="M155.68 604 c0 3.5999999999999996 8.64 3.5999999999999996 8.64 0 M160.0 607.6 v2.16" fill="none" stroke="#626d88" stroke-width="1.22" stroke-linecap="round" stroke-linejoin="round"/><text x="160.0" y="626.0" font-family="-apple-system,BlinkMacSystemFont,'SF Pro Text','Segoe UI',Roboto,system-ui,sans-serif" font-size="8.5" font-weight="600" fill="#626d88" text-anchor="middle">Voice</text><rect x="210.96" y="598.96" width="10.08" height="10.08" rx="2" fill="none" stroke="#626d88" stroke-width="1.22" stroke-linecap="round" stroke-linejoin="round"/><path d="M216.0 598.96 v10.08" fill="none" stroke="#626d88" stroke-width="1.22" stroke-linecap="round" stroke-linejoin="round"/><text x="216.0" y="626.0" font-family="-apple-system,BlinkMacSystemFont,'SF Pro Text','Segoe UI',Roboto,system-ui,sans-serif" font-size="8.5" font-weight="600" fill="#626d88" text-anchor="middle">Memories</text><circle cx="272.0" cy="601.12" r="2.448" fill="none" stroke="#eef1f7" stroke-width="1.22" stroke-linecap="round" stroke-linejoin="round"/><path d="M267.68 609.04 c0 -4.32 8.64 -4.32 8.64 0" fill="none" stroke="#eef1f7" stroke-width="1.22" stroke-linecap="round" stroke-linejoin="round"/><text x="272.0" y="626.0" font-family="-apple-system,BlinkMacSystemFont,'SF Pro Text','Segoe UI',Roboto,system-ui,sans-serif" font-size="8.5" font-weight="600" fill="#eef1f7" text-anchor="middle">Profile</text><path d="M131.0 627.5 L121.0 632 L131.0 636.5 Z" fill="none" stroke="rgba(255,255,255,0.5)" stroke-width="1.3" stroke-linejoin="round"/><circle cx="160.0" cy="632" r="4.6" fill="none" stroke="rgba(255,255,255,0.5)" stroke-width="1.3"/><rect x="189.4" y="627.4" width="9.2" height="9.2" rx="1.6" fill="none" stroke="rgba(255,255,255,0.5)" stroke-width="1.3"/></svg>