<svg xmlns="http://www.w3.org/2000/svg" width="320" height="660" viewBox="0 0 320 660" role="img" aria-label="Family Oversight screen"><defs>
      <linearGradient id="gScr" x1="0" y1="0" x2="0" y2="1">
        <stop offset="0" stop-color="#0e1626"/><stop offset="1" stop-color="#0a0f1c"/></linearGradient>
      <linearGradient id="gFrame" x1="0" y1="0" x2="1" y2="1">
        <stop offset="0" stop-color="#20263a"/><stop offset="1" stop-color="#0c1020"/></linearGradient>
      <linearGradient id="gCard" x1="0" y1="0" x2="0" y2="1">
        <stop offset="0" stop-color="#182238"/><stop offset="1" stop-color="#1f2b45"/></linearGradient>
      <linearGradient id="gBrand" x1="0" y1="0" x2="1" y2="0">
        <stop offset="0" stop-color="#7c5cff"/><stop offset="1" stop-color="#3aa0ff"/></linearGradient>
      <linearGradient id="gEmer" x1="0" y1="0" x2="0" y2="1">
        <stop offset="0" stop-color="#ff5b52"/><stop offset="1" stop-color="#ff3b30"/></linearGradient>
      <linearGradient id="mV" x1="0" y1="0" x2="1" y2="0"><stop offset="0" stop-color="#7c5cff"/><stop offset="1" stop-color="#3aa0ff"/></linearGradient>
      <linearGradient id="mO" x1="0" y1="0" x2="1" y2="0"><stop offset="0" stop-color="#f7b731"/><stop offset="1" stop-color="#ff7a45"/></linearGradient>
      <linearGradient id="mG" x1="0" y1="0" x2="1" y2="0"><stop offset="0" stop-color="#2fd27a"/><stop offset="1" stop-color="#43e08a"/></linearGradient>
      <radialGradient id="orb" cx="34%" cy="30%" r="75%">
        <stop offset="0" stop-color="#c3b0ff"/><stop offset="42%" stop-color="#7c5cff"/>
        <stop offset="80%" stop-color="#2f6cf0"/><stop offset="100%" stop-color="#14204a"/></radialGradient>
    </defs><rect x="10.0" y="12.0" width="300.0" height="636.0" rx="40" fill="url(#gFrame)"/><rect x="20.0" y="22.0" width="280.0" height="616.0" rx="31" fill="url(#gScr)"/><circle cx="160.0" cy="34" r="4.5" fill="#05070d"/><circle cx="160.0" cy="34" r="4.5" fill="none" stroke="#26314e" stroke-width="1"/><text x="34.0" y="56.0" font-family="-apple-system,BlinkMacSystemFont,'SF Pro Text','Segoe UI',Roboto,system-ui,sans-serif" font-size="11" font-weight="600" fill="#8a94ad" text-anchor="start">9:41</text><rect x="277.0" y="49.0" width="8.0" height="12.0" rx="1.5" fill="none" stroke="#8a94ad" stroke-width="1.2"/><rect x="278.5" y="53.0" width="5.0" height="7.0" rx="1" fill="#8a94ad"/><path d="M266 61 L271 52 L276 61 Z" fill="#8a94ad"/><path d="M253 61 L253 54 L261 61 Z" fill="#8a94ad"/><text x="34.0" y="88.0" font-family="-apple-system,BlinkMacSystemFont,'SF Pro Text','Segoe UI',Roboto,system-ui,sans-serif" font-size="20" font-weight="700" fill="#eef1f7" text-anchor="start" letter-spacing="-0.4">Family Oversight</text><text x="34.0" y="106.0" font-family="-apple-system,BlinkMacSystemFont,'SF Pro Text','Segoe UI',Roboto,system-ui,sans-serif" font-size="11.5" font-weight="400" fill="#8a94ad" text-anchor="start">A window sized by age</text><rect x="34.0" y="122.0" width="252.0" height="52.0" rx="16" fill="url(#gCard)" stroke="#26314e" stroke-width="1"/><rect x="46.0" y="131.0" width="34.0" height="34.0" rx="11" fill="rgba(67,224,138,0.16)"/><path d="M63 153.52 C54.72 145.24,56.56 139.72,63 144.32 C69.44 139.72,71.28 145.24,63 153.52 Z" fill="#43e08a"/><text x="90.0" y="142.0" font-family="-apple-system,BlinkMacSystemFont,'SF Pro Text','Segoe UI',Roboto,system-ui,sans-serif" font-size="13" font-weight="600" fill="#eef1f7" text-anchor="start">Riley · 8 · full</text><text x="90.0" y="157.0" font-family="-apple-system,BlinkMacSystemFont,'SF Pro Text','Segoe UI',Roboto,system-ui,sans-serif" font-size="11" font-weight="400" fill="#8a94ad" text-anchor="start">condition-level timeline, never raw notes</text><rect x="34.0" y="184.0" width="252.0" height="52.0" rx="16" fill="url(#gCard)" stroke="#26314e" stroke-width="1"/><rect x="46.0" y="193.0" width="34.0" height="34.0" rx="11" fill="rgba(247,183,49,0.16)"/><circle cx="63" cy="206.32" r="3.128" fill="none" stroke="#f7b731" stroke-width="1.56" stroke-linecap="round" stroke-linejoin="round"/><path d="M57.48 216.44 c0 -5.5200000000000005 11.040000000000001 -5.5200000000000005 11.040000000000001 0" fill="none" stroke="#f7b731" stroke-width="1.56" stroke-linecap="round" stroke-linejoin="round"/><text x="90.0" y="204.0" font-family="-apple-system,BlinkMacSystemFont,'SF Pro Text','Segoe UI',Roboto,system-ui,sans-serif" font-size="13" font-weight="600" fill="#eef1f7" text-anchor="start">Sam · 15 · alerts only</text><text x="90.0" y="219.0" font-family="-apple-system,BlinkMacSystemFont,'SF Pro Text','Segoe UI',Roboto,system-ui,sans-serif" font-size="11" font-weight="400" fill="#8a94ad" text-anchor="start">escalations reach you; the diary doesn&#x27;t</text><rect x="34.0" y="246.0" width="252.0" height="52.0" rx="16" fill="url(#gCard)" stroke="#26314e" stroke-width="1"/><rect x="46.0" y="255.0" width="34.0" height="34.0" rx="11" fill="rgba(255,77,94,0.16)"/><path d="M64.84 264.64 L57.48 272.92 L63 272.92 L61.16 279.36 L68.52 271.08 L63 271.08 Z" fill="#ff4d5e"/><text x="90.0" y="266.0" font-family="-apple-system,BlinkMacSystemFont,'SF Pro Text','Segoe UI',Roboto,system-ui,sans-serif" font-size="13" font-weight="600" fill="#eef1f7" text-anchor="start">Crisis escalated 21:40</text><text x="90.0" y="281.0" font-family="-apple-system,BlinkMacSystemFont,'SF Pro Text','Segoe UI',Roboto,system-ui,sans-serif" font-size="11" font-weight="400" fill="#8a94ad" text-anchor="start">emergency contact notified — you</text><rect x="34.0" y="308.0" width="252.0" height="52.0" rx="16" fill="url(#gCard)" stroke="#26314e" stroke-width="1"/><rect x="46.0" y="317.0" width="34.0" height="34.0" rx="11" fill="rgba(167,139,250,0.16)"/><path d="M63 326.64 l6.44 2.7600000000000002 v4.6000000000000005 c0 4.6000000000000005 -2.7600000000000002 6.44 -6.44 8.280000000000001 c-3.68 -1.84 -6.44 -3.68 -6.44 -8.280000000000001 v-4.6000000000000005 Z" fill="none" stroke="#a78bfa" stroke-width="1.56" stroke-linecap="round" stroke-linejoin="round"/><text x="90.0" y="328.0" font-family="-apple-system,BlinkMacSystemFont,'SF Pro Text','Segoe UI',Roboto,system-ui,sans-serif" font-size="13" font-weight="600" fill="#eef1f7" text-anchor="start">Ends at 18</text><text x="90.0" y="343.0" font-family="-apple-system,BlinkMacSystemFont,'SF Pro Text','Segoe UI',Roboto,system-ui,sans-serif" font-size="11" font-weight="400" fill="#8a94ad" text-anchor="start">the window closes itself on their birthday</text><rect x="34.0" y="370.0" width="252.0" height="42.0" rx="13" fill="url(#gBrand)"/><text x="160.0" y="395.5" font-family="-apple-system,BlinkMacSystemFont,'SF Pro Text','Segoe UI',Roboto,system-ui,sans-serif" font-size="13" font-weight="700" fill="#fff" text-anchor="middle">Open Riley&#x27;s window</text><rect x="20.0" y="586.0" width="280.0" height="52.0" rx="0" fill="#0b1220"/><rect x="20" y="586" width="280" height="1" fill="#26314e"/><circle cx="48.0" cy="604" r="5.3999999999999995" fill="none" stroke="#eef1f7" stroke-width="1.22" stroke-linecap="round" stroke-linejoin="round"/><circle cx="48.0" cy="604" r="2.52" fill="none" stroke="#eef1f7" stroke-width="1.22" stroke-linecap="round" stroke-linejoin="round"/><circle cx="48.0" cy="604" r="0.648" fill="#eef1f7"/><text x="48.0" y="626.0" font-family="-apple-system,BlinkMacSystemFont,'SF Pro Text','Segoe UI',Roboto,system-ui,sans-serif" font-size="8.5" font-weight="600" fill="#eef1f7" text-anchor="middle">Home</text><path d="M98.24 599.68 h11.52 a2 2 0 0 1 2 2 v5.04 a2 2 0 0 1 -2 2 h-6.4799999999999995 l-2.88 2.88 v-2.88 h-2.16 a2 2 0 0 1 -2 -2 v-5.04 a2 2 0 0 1 2 -2 Z" fill="none" stroke="#626d88" stroke-width="1.22" stroke-linecap="round" stroke-linejoin="round"/><text x="104.0" y="626.0" font-family="-apple-system,BlinkMacSystemFont,'SF Pro Text','Segoe UI',Roboto,system-ui,sans-serif" font-size="8.5" font-weight="600" fill="#626d88" text-anchor="middle">Chat</text><rect x="157.84" y="598.24" width="4.32" height="7.92" rx="2.16" fill="none" stroke="#626d88" stroke-width="1.22" stroke-linecap="round" stroke-linejoin="round"/><path d="M155.68 604 c0 3.5999999999999996 8.64 3.5999999999999996 8.64 0 M160.0 607.6 v2.16" fill="none" stroke="#626d88" stroke-width="1.22" stroke-linecap="round" stroke-linejoin="round"/><text x="160.0" y="626.0" font-family="-apple-system,BlinkMacSystemFont,'SF Pro Text','Segoe UI',Roboto,system-ui,sans-serif" font-size="8.5" font-weight="600" fill="#626d88" text-anchor="middle">Voice</text><rect x="210.96" y="598.96" width="10.08" height="10.08" rx="2" fill="none" stroke="#626d88" stroke-width="1.22" stroke-linecap="round" stroke-linejoin="round"/><path d="M216.0 598.96 v10.08" fill="none" stroke="#626d88" stroke-width="1.22" stroke-linecap="round" stroke-linejoin="round"/><text x="216.0" y="626.0" font-family="-apple-system,BlinkMacSystemFont,'SF Pro Text','Segoe UI',Roboto,system-ui,sans-serif" font-size="8.5" font-weight="600" fill="#626d88" text-anchor="middle">Memories</text><circle cx="272.0" cy="601.12" r="2.448" fill="none" stroke="#626d88" stroke-width="1.22" stroke-linecap="round" stroke-linejoin="round"/><path d="M267.68 609.04 c0 -4.32 8.64 -4.32 8.64 0" fill="none" stroke="#626d88" stroke-width="1.22" stroke-linecap="round" stroke-linejoin="round"/><text x="272.0" y="626.0" font-family="-apple-system,BlinkMacSystemFont,'SF Pro Text','Segoe UI',Roboto,system-ui,sans-serif" font-size="8.5" font-weight="600" fill="#626d88" text-anchor="middle">Profile</text><path d="M131.0 627.5 L121.0 632 L131.0 636.5 Z" fill="none" stroke="rgba(255,255,255,0.5)" stroke-width="1.3" stroke-linejoin="round"/><circle cx="160.0" cy="632" r="4.6" fill="none" stroke="rgba(255,255,255,0.5)" stroke-width="1.3"/><rect x="189.4" y="627.4" width="9.2" height="9.2" rx="1.6" fill="none" stroke="rgba(255,255,255,0.5)" stroke-width="1.3"/></svg>