<svg xmlns="http://www.w3.org/2000/svg" width="236" height="300" viewBox="0 0 236 300" role="img" aria-label="Voice watch screen"><defs>
      <linearGradient id="gScr" x1="0" y1="0" x2="0" y2="1"><stop offset="0" stop-color="#0e1626"/><stop offset="1" stop-color="#05070e"/></linearGradient>
      <linearGradient id="gFrame" x1="0" y1="0" x2="1" y2="1"><stop offset="0" stop-color="#20263a"/><stop offset="1" stop-color="#0c1020"/></linearGradient>
      <linearGradient id="gCard" x1="0" y1="0" x2="0" y2="1"><stop offset="0" stop-color="#182238"/><stop offset="1" stop-color="#1f2b45"/></linearGradient>
      <linearGradient id="gBrand" x1="0" y1="0" x2="1" y2="0"><stop offset="0" stop-color="#7c5cff"/><stop offset="1" stop-color="#3aa0ff"/></linearGradient>
      <linearGradient id="gEmer" x1="0" y1="0" x2="0" y2="1"><stop offset="0" stop-color="#ff5b52"/><stop offset="1" stop-color="#ff3b30"/></linearGradient>
      <linearGradient id="mV" x1="0" y1="0" x2="1" y2="0"><stop offset="0" stop-color="#7c5cff"/><stop offset="1" stop-color="#3aa0ff"/></linearGradient>
      <linearGradient id="mO" x1="0" y1="0" x2="1" y2="0"><stop offset="0" stop-color="#f7b731"/><stop offset="1" stop-color="#ff7a45"/></linearGradient>
      <linearGradient id="mG" x1="0" y1="0" x2="1" y2="0"><stop offset="0" stop-color="#2fd27a"/><stop offset="1" stop-color="#43e08a"/></linearGradient>
      <radialGradient id="orb" cx="34%" cy="30%" r="75%"><stop offset="0" stop-color="#c3b0ff"/><stop offset="42%" stop-color="#7c5cff"/><stop offset="80%" stop-color="#2f6cf0"/><stop offset="100%" stop-color="#14204a"/></radialGradient>
    </defs><rect x="212.0" y="118.0" width="7.0" height="34.0" rx="3" fill="#333c52"/><rect x="213.0" y="160.0" width="5.0" height="26.0" rx="2" fill="#2a3145"/><rect x="18.0" y="20.0" width="196.0" height="260.0" rx="60" fill="url(#gFrame)"/><rect x="30.0" y="32.0" width="172.0" height="236.0" rx="48" fill="url(#gScr)"/><text x="188.0" y="56.0" font-family="-apple-system,BlinkMacSystemFont,'SF Pro Text','Segoe UI',Roboto,system-ui,sans-serif" font-size="11" font-weight="700" fill="#7c5cff" text-anchor="end">10:09</text><text x="44.0" y="56.0" font-family="-apple-system,BlinkMacSystemFont,'SF Pro Text','Segoe UI',Roboto,system-ui,sans-serif" font-size="13" font-weight="700" fill="#eef1f7" text-anchor="start" letter-spacing="-0.2">Voice</text><text x="118.0" y="82.0" font-family="-apple-system,BlinkMacSystemFont,'SF Pro Text','Segoe UI',Roboto,system-ui,sans-serif" font-size="12" font-weight="600" fill="#eef1f7" text-anchor="middle">Listening…</text><circle cx="118.0" cy="132" r="40" fill="url(#orb)"/><ellipse cx="106.8" cy="119.2" rx="11.200000000000001" ry="7.199999999999999" fill="rgba(255,255,255,0.33)"/><circle cx="118.0" cy="132" r="52" fill="none" stroke="#7c5cff" stroke-width="1" opacity="0.30"/><circle cx="118.0" cy="132" r="66" fill="none" stroke="#7c5cff" stroke-width="1" opacity="0.18"/><rect x="56" y="199.0" width="4" height="10" rx="2" fill="url(#gBrand)"/><rect x="67" y="192.0" width="4" height="24" rx="2" fill="url(#gBrand)"/><rect x="78" y="197.0" width="4" height="14" rx="2" fill="url(#gBrand)"/><rect x="89" y="189.0" width="4" height="30" rx="2" fill="url(#gBrand)"/><rect x="100" y="195.0" width="4" height="18" rx="2" fill="url(#gBrand)"/><rect x="111" y="187.0" width="4" height="34" rx="2" fill="url(#gBrand)"/><rect x="122" y="198.0" width="4" height="12" rx="2" fill="url(#gBrand)"/><rect x="133" y="193.0" width="4" height="22" rx="2" fill="url(#gBrand)"/><rect x="144" y="196.0" width="4" height="16" rx="2" fill="url(#gBrand)"/><rect x="155" y="191.0" width="4" height="26" rx="2" fill="url(#gBrand)"/><rect x="166" y="198.0" width="4" height="12" rx="2" fill="url(#gBrand)"/><circle cx="103.0" cy="254" r="2.6" fill="#eef1f7"/><circle cx="113.0" cy="254" r="2" fill="#626d88"/><circle cx="123.0" cy="254" r="2" fill="#626d88"/><circle cx="133.0" cy="254" r="2" fill="#626d88"/></svg>