<svg xmlns="http://www.w3.org/2000/svg" width="236" height="300" viewBox="0 0 236 300" role="img" aria-label="Health watch screen"><defs>
      <linearGradient id="gScr" x1="0" y1="0" x2="0" y2="1"><stop offset="0" stop-color="#0e1626"/><stop offset="1" stop-color="#05070e"/></linearGradient>
      <linearGradient id="gFrame" x1="0" y1="0" x2="1" y2="1"><stop offset="0" stop-color="#20263a"/><stop offset="1" stop-color="#0c1020"/></linearGradient>
      <linearGradient id="gCard" x1="0" y1="0" x2="0" y2="1"><stop offset="0" stop-color="#182238"/><stop offset="1" stop-color="#1f2b45"/></linearGradient>
      <linearGradient id="gBrand" x1="0" y1="0" x2="1" y2="0"><stop offset="0" stop-color="#7c5cff"/><stop offset="1" stop-color="#3aa0ff"/></linearGradient>
      <linearGradient id="gEmer" x1="0" y1="0" x2="0" y2="1"><stop offset="0" stop-color="#ff5b52"/><stop offset="1" stop-color="#ff3b30"/></linearGradient>
      <linearGradient id="mV" x1="0" y1="0" x2="1" y2="0"><stop offset="0" stop-color="#7c5cff"/><stop offset="1" stop-color="#3aa0ff"/></linearGradient>
      <linearGradient id="mO" x1="0" y1="0" x2="1" y2="0"><stop offset="0" stop-color="#f7b731"/><stop offset="1" stop-color="#ff7a45"/></linearGradient>
      <linearGradient id="mG" x1="0" y1="0" x2="1" y2="0"><stop offset="0" stop-color="#2fd27a"/><stop offset="1" stop-color="#43e08a"/></linearGradient>
      <radialGradient id="orb" cx="34%" cy="30%" r="75%"><stop offset="0" stop-color="#c3b0ff"/><stop offset="42%" stop-color="#7c5cff"/><stop offset="80%" stop-color="#2f6cf0"/><stop offset="100%" stop-color="#14204a"/></radialGradient>
    </defs><rect x="212.0" y="118.0" width="7.0" height="34.0" rx="3" fill="#333c52"/><rect x="213.0" y="160.0" width="5.0" height="26.0" rx="2" fill="#2a3145"/><rect x="18.0" y="20.0" width="196.0" height="260.0" rx="60" fill="url(#gFrame)"/><rect x="30.0" y="32.0" width="172.0" height="236.0" rx="48" fill="url(#gScr)"/><text x="188.0" y="56.0" font-family="-apple-system,BlinkMacSystemFont,'SF Pro Text','Segoe UI',Roboto,system-ui,sans-serif" font-size="11" font-weight="700" fill="#ff4d5e" text-anchor="end">10:09</text><text x="44.0" y="56.0" font-family="-apple-system,BlinkMacSystemFont,'SF Pro Text','Segoe UI',Roboto,system-ui,sans-serif" font-size="13" font-weight="700" fill="#eef1f7" text-anchor="start" letter-spacing="-0.2">Health</text><rect x="44.0" y="76.0" width="68.0" height="52.0" rx="13" fill="url(#gCard)" stroke="#26314e" stroke-width="1"/><rect x="53.0" y="85.0" width="22.0" height="22.0" rx="7" fill="#ff4d5e28"/><path d="M64 99.72 C58.42 94.14,59.66 90.42,64 93.52 C68.34 90.42,69.58 94.14,64 99.72 Z" fill="#ff4d5e"/><text x="53.0" y="108.0" font-family="-apple-system,BlinkMacSystemFont,'SF Pro Text','Segoe UI',Roboto,system-ui,sans-serif" font-size="15" font-weight="750" fill="#eef1f7" text-anchor="start">72</text><text x="53.0" y="121.0" font-family="-apple-system,BlinkMacSystemFont,'SF Pro Text','Segoe UI',Roboto,system-ui,sans-serif" font-size="8.5" font-weight="500" fill="#8a94ad" text-anchor="start">BPM</text><rect x="120.0" y="76.0" width="68.0" height="52.0" rx="13" fill="url(#gCard)" stroke="#26314e" stroke-width="1"/><rect x="129.0" y="85.0" width="22.0" height="22.0" rx="7" fill="#a78bfa28"/><path d="M143.1 96 a3.7199999999999998 3.7199999999999998 0 1 1 -4.34 -3.7199999999999998 a4.96 4.96 0 1 0 4.34 3.7199999999999998 Z" fill="#a78bfa"/><text x="129.0" y="108.0" font-family="-apple-system,BlinkMacSystemFont,'SF Pro Text','Segoe UI',Roboto,system-ui,sans-serif" font-size="15" font-weight="750" fill="#eef1f7" text-anchor="start">7h45</text><text x="129.0" y="121.0" font-family="-apple-system,BlinkMacSystemFont,'SF Pro Text','Segoe UI',Roboto,system-ui,sans-serif" font-size="8.5" font-weight="500" fill="#8a94ad" text-anchor="start">SLEEP</text><rect x="44.0" y="136.0" width="68.0" height="52.0" rx="13" fill="url(#gCard)" stroke="#26314e" stroke-width="1"/><rect x="53.0" y="145.0" width="22.0" height="22.0" rx="7" fill="#43e08a28"/><rect x="59.66" y="158.48" width="1.984" height="1.24" rx="1" fill="#43e08a"/><rect x="62.76" y="156.61999999999998" width="1.984" height="3.1" rx="1" fill="#43e08a"/><rect x="65.86" y="154.76" width="1.984" height="4.96" rx="1" fill="#43e08a"/><rect x="68.96" y="152.89999999999998" width="1.984" height="6.82" rx="1" fill="#43e08a"/><text x="53.0" y="168.0" font-family="-apple-system,BlinkMacSystemFont,'SF Pro Text','Segoe UI',Roboto,system-ui,sans-serif" font-size="15" font-weight="750" fill="#eef1f7" text-anchor="start">8.3k</text><text x="53.0" y="181.0" font-family="-apple-system,BlinkMacSystemFont,'SF Pro Text','Segoe UI',Roboto,system-ui,sans-serif" font-size="8.5" font-weight="500" fill="#8a94ad" text-anchor="start">STEPS</text><rect x="120.0" y="136.0" width="68.0" height="52.0" rx="13" fill="url(#gCard)" stroke="#26314e" stroke-width="1"/><rect x="129.0" y="145.0" width="22.0" height="22.0" rx="7" fill="#38bdf828"/><path d="M136.28 159.72 c0 -5.58 3.7199999999999998 -8.06 7.4399999999999995 -7.4399999999999995 c0.62 3.7199999999999998 -1.8599999999999999 7.4399999999999995 -7.4399999999999995 7.4399999999999995 Z M138.14 157.86 l3.7199999999999998 -3.7199999999999998" fill="none" stroke="#38bdf8" stroke-width="1.05" stroke-linecap="round" stroke-linejoin="round"/><text x="129.0" y="168.0" font-family="-apple-system,BlinkMacSystemFont,'SF Pro Text','Segoe UI',Roboto,system-ui,sans-serif" font-size="15" font-weight="750" fill="#eef1f7" text-anchor="start">Low</text><text x="129.0" y="181.0" font-family="-apple-system,BlinkMacSystemFont,'SF Pro Text','Segoe UI',Roboto,system-ui,sans-serif" font-size="8.5" font-weight="500" fill="#8a94ad" text-anchor="start">STRESS</text><circle cx="103.0" cy="254" r="2.6" fill="#eef1f7"/><circle cx="113.0" cy="254" r="2" fill="#626d88"/><circle cx="123.0" cy="254" r="2" fill="#626d88"/><circle cx="133.0" cy="254" r="2" fill="#626d88"/></svg>