<svg xmlns="http://www.w3.org/2000/svg" width="236" height="300" viewBox="0 0 236 300" role="img" aria-label="Rings watch screen"><defs>
      <linearGradient id="gScr" x1="0" y1="0" x2="0" y2="1"><stop offset="0" stop-color="#0e1626"/><stop offset="1" stop-color="#05070e"/></linearGradient>
      <linearGradient id="gFrame" x1="0" y1="0" x2="1" y2="1"><stop offset="0" stop-color="#20263a"/><stop offset="1" stop-color="#0c1020"/></linearGradient>
      <linearGradient id="gCard" x1="0" y1="0" x2="0" y2="1"><stop offset="0" stop-color="#182238"/><stop offset="1" stop-color="#1f2b45"/></linearGradient>
      <linearGradient id="gBrand" x1="0" y1="0" x2="1" y2="0"><stop offset="0" stop-color="#7c5cff"/><stop offset="1" stop-color="#3aa0ff"/></linearGradient>
      <linearGradient id="gEmer" x1="0" y1="0" x2="0" y2="1"><stop offset="0" stop-color="#ff5b52"/><stop offset="1" stop-color="#ff3b30"/></linearGradient>
      <linearGradient id="mV" x1="0" y1="0" x2="1" y2="0"><stop offset="0" stop-color="#7c5cff"/><stop offset="1" stop-color="#3aa0ff"/></linearGradient>
      <linearGradient id="mO" x1="0" y1="0" x2="1" y2="0"><stop offset="0" stop-color="#f7b731"/><stop offset="1" stop-color="#ff7a45"/></linearGradient>
      <linearGradient id="mG" x1="0" y1="0" x2="1" y2="0"><stop offset="0" stop-color="#2fd27a"/><stop offset="1" stop-color="#43e08a"/></linearGradient>
      <radialGradient id="orb" cx="34%" cy="30%" r="75%"><stop offset="0" stop-color="#c3b0ff"/><stop offset="42%" stop-color="#7c5cff"/><stop offset="80%" stop-color="#2f6cf0"/><stop offset="100%" stop-color="#14204a"/></radialGradient>
    </defs><rect x="212.0" y="118.0" width="7.0" height="34.0" rx="3" fill="#333c52"/><rect x="213.0" y="160.0" width="5.0" height="26.0" rx="2" fill="#2a3145"/><rect x="18.0" y="20.0" width="196.0" height="260.0" rx="60" fill="url(#gFrame)"/><rect x="30.0" y="32.0" width="172.0" height="236.0" rx="48" fill="url(#gScr)"/><text x="188.0" y="56.0" font-family="-apple-system,BlinkMacSystemFont,'SF Pro Text','Segoe UI',Roboto,system-ui,sans-serif" font-size="11" font-weight="700" fill="#43e08a" text-anchor="end">10:09</text><text x="44.0" y="56.0" font-family="-apple-system,BlinkMacSystemFont,'SF Pro Text','Segoe UI',Roboto,system-ui,sans-serif" font-size="13" font-weight="700" fill="#eef1f7" text-anchor="start" letter-spacing="-0.2">Rings</text><circle cx="118.0" cy="124" r="40" fill="none" stroke="rgba(67,224,138,0.13)" stroke-width="9"/><circle cx="118.0" cy="124" r="40" fill="none" stroke="#43e08a" stroke-width="9" stroke-linecap="round" stroke-dasharray="188.5 251.3" transform="rotate(-90 118.0 124)"/><circle cx="118.0" cy="124" r="30" fill="none" stroke="rgba(124,92,255,0.13)" stroke-width="9"/><circle cx="118.0" cy="124" r="30" fill="none" stroke="#7c5cff" stroke-width="9" stroke-linecap="round" stroke-dasharray="113.1 188.5" transform="rotate(-90 118.0 124)"/><circle cx="118.0" cy="124" r="20" fill="none" stroke="rgba(247,183,49,0.13)" stroke-width="9"/><circle cx="118.0" cy="124" r="20" fill="none" stroke="#f7b731" stroke-width="9" stroke-linecap="round" stroke-dasharray="69.1 125.7" transform="rotate(-90 118.0 124)"/><text x="118.0" y="188.0" font-family="-apple-system,BlinkMacSystemFont,'SF Pro Text','Segoe UI',Roboto,system-ui,sans-serif" font-size="10.5" font-weight="500" fill="#8a94ad" text-anchor="middle">Goals on track</text><circle cx="103.0" cy="254" r="2.6" fill="#eef1f7"/><circle cx="113.0" cy="254" r="2" fill="#626d88"/><circle cx="123.0" cy="254" r="2" fill="#626d88"/><circle cx="133.0" cy="254" r="2" fill="#626d88"/></svg>