<svg xmlns="http://www.w3.org/2000/svg" width="236" height="300" viewBox="0 0 236 300" role="img" aria-label="Medical ID watch screen"><defs>
      <linearGradient id="gScr" x1="0" y1="0" x2="0" y2="1"><stop offset="0" stop-color="#0e1626"/><stop offset="1" stop-color="#05070e"/></linearGradient>
      <linearGradient id="gFrame" x1="0" y1="0" x2="1" y2="1"><stop offset="0" stop-color="#20263a"/><stop offset="1" stop-color="#0c1020"/></linearGradient>
      <linearGradient id="gCard" x1="0" y1="0" x2="0" y2="1"><stop offset="0" stop-color="#182238"/><stop offset="1" stop-color="#1f2b45"/></linearGradient>
      <linearGradient id="gBrand" x1="0" y1="0" x2="1" y2="0"><stop offset="0" stop-color="#7c5cff"/><stop offset="1" stop-color="#3aa0ff"/></linearGradient>
      <linearGradient id="gEmer" x1="0" y1="0" x2="0" y2="1"><stop offset="0" stop-color="#ff5b52"/><stop offset="1" stop-color="#ff3b30"/></linearGradient>
      <linearGradient id="mV" x1="0" y1="0" x2="1" y2="0"><stop offset="0" stop-color="#7c5cff"/><stop offset="1" stop-color="#3aa0ff"/></linearGradient>
      <linearGradient id="mO" x1="0" y1="0" x2="1" y2="0"><stop offset="0" stop-color="#f7b731"/><stop offset="1" stop-color="#ff7a45"/></linearGradient>
      <linearGradient id="mG" x1="0" y1="0" x2="1" y2="0"><stop offset="0" stop-color="#2fd27a"/><stop offset="1" stop-color="#43e08a"/></linearGradient>
      <radialGradient id="orb" cx="34%" cy="30%" r="75%"><stop offset="0" stop-color="#c3b0ff"/><stop offset="42%" stop-color="#7c5cff"/><stop offset="80%" stop-color="#2f6cf0"/><stop offset="100%" stop-color="#14204a"/></radialGradient>
    </defs><rect x="212.0" y="118.0" width="7.0" height="34.0" rx="3" fill="#333c52"/><rect x="213.0" y="160.0" width="5.0" height="26.0" rx="2" fill="#2a3145"/><rect x="18.0" y="20.0" width="196.0" height="260.0" rx="60" fill="url(#gFrame)"/><rect x="30.0" y="32.0" width="172.0" height="236.0" rx="48" fill="url(#gScr)"/><text x="188.0" y="56.0" font-family="-apple-system,BlinkMacSystemFont,'SF Pro Text','Segoe UI',Roboto,system-ui,sans-serif" font-size="11" font-weight="700" fill="#ff4d5e" text-anchor="end">10:09</text><text x="44.0" y="56.0" font-family="-apple-system,BlinkMacSystemFont,'SF Pro Text','Segoe UI',Roboto,system-ui,sans-serif" font-size="13" font-weight="700" fill="#eef1f7" text-anchor="start" letter-spacing="-0.2">Medical ID</text><rect x="64.0" y="76.0" width="108.0" height="108.0" rx="12" fill="#fff"/><rect x="115.8" y="84.0" width="4.4" height="4.4" rx="0" fill="#0a0f1c"/><rect x="124.6" y="84.0" width="4.4" height="4.4" rx="0" fill="#0a0f1c"/><rect x="115.8" y="88.4" width="4.4" height="4.4" rx="0" fill="#0a0f1c"/><rect x="120.2" y="92.8" width="4.4" height="4.4" rx="0" fill="#0a0f1c"/><rect x="111.4" y="97.1" width="4.4" height="4.4" rx="0" fill="#0a0f1c"/><rect x="115.8" y="97.1" width="4.4" height="4.4" rx="0" fill="#0a0f1c"/><rect x="120.2" y="97.1" width="4.4" height="4.4" rx="0" fill="#0a0f1c"/><rect x="107.0" y="101.5" width="4.4" height="4.4" rx="0" fill="#0a0f1c"/><rect x="115.8" y="101.5" width="4.4" height="4.4" rx="0" fill="#0a0f1c"/><rect x="115.8" y="105.9" width="4.4" height="4.4" rx="0" fill="#0a0f1c"/><rect x="124.6" y="105.9" width="4.4" height="4.4" rx="0" fill="#0a0f1c"/><rect x="107.0" y="110.3" width="4.4" height="4.4" rx="0" fill="#0a0f1c"/><rect x="115.8" y="110.3" width="4.4" height="4.4" rx="0" fill="#0a0f1c"/><rect x="111.4" y="114.7" width="4.4" height="4.4" rx="0" fill="#0a0f1c"/><rect x="124.6" y="114.7" width="4.4" height="4.4" rx="0" fill="#0a0f1c"/><rect x="80.8" y="119.0" width="4.4" height="4.4" rx="0" fill="#0a0f1c"/><rect x="85.1" y="119.0" width="4.4" height="4.4" rx="0" fill="#0a0f1c"/><rect x="93.9" y="119.0" width="4.4" height="4.4" rx="0" fill="#0a0f1c"/><rect x="98.3" y="119.0" width="4.4" height="4.4" rx="0" fill="#0a0f1c"/><rect x="102.7" y="119.0" width="4.4" height="4.4" rx="0" fill="#0a0f1c"/><rect x="107.0" y="119.0" width="4.4" height="4.4" rx="0" fill="#0a0f1c"/><rect x="115.8" y="119.0" width="4.4" height="4.4" rx="0" fill="#0a0f1c"/><rect x="129.0" y="119.0" width="4.4" height="4.4" rx="0" fill="#0a0f1c"/><rect x="146.5" y="119.0" width="4.4" height="4.4" rx="0" fill="#0a0f1c"/><rect x="150.9" y="119.0" width="4.4" height="4.4" rx="0" fill="#0a0f1c"/><rect x="155.2" y="119.0" width="4.4" height="4.4" rx="0" fill="#0a0f1c"/><rect x="159.6" y="119.0" width="4.4" height="4.4" rx="0" fill="#0a0f1c"/><rect x="76.4" y="123.4" width="4.4" height="4.4" rx="0" fill="#0a0f1c"/><rect x="80.8" y="123.4" width="4.4" height="4.4" rx="0" fill="#0a0f1c"/><rect x="85.1" y="123.4" width="4.4" height="4.4" rx="0" fill="#0a0f1c"/><rect x="93.9" y="123.4" width="4.4" height="4.4" rx="0" fill="#0a0f1c"/><rect x="98.3" y="123.4" width="4.4" height="4.4" rx="0" fill="#0a0f1c"/><rect x="107.0" y="123.4" width="4.4" height="4.4" rx="0" fill="#0a0f1c"/><rect x="115.8" y="123.4" width="4.4" height="4.4" rx="0" fill="#0a0f1c"/><rect x="120.2" y="123.4" width="4.4" height="4.4" rx="0" fill="#0a0f1c"/><rect x="124.6" y="123.4" width="4.4" height="4.4" rx="0" fill="#0a0f1c"/><rect x="129.0" y="123.4" width="4.4" height="4.4" rx="0" fill="#0a0f1c"/><rect x="142.1" y="123.4" width="4.4" height="4.4" rx="0" fill="#0a0f1c"/><rect x="76.4" y="127.8" width="4.4" height="4.4" rx="0" fill="#0a0f1c"/><rect x="93.9" y="127.8" width="4.4" height="4.4" rx="0" fill="#0a0f1c"/><rect x="107.0" y="127.8" width="4.4" height="4.4" rx="0" fill="#0a0f1c"/><rect x="111.4" y="127.8" width="4.4" height="4.4" rx="0" fill="#0a0f1c"/><rect x="115.8" y="127.8" width="4.4" height="4.4" rx="0" fill="#0a0f1c"/><rect x="120.2" y="127.8" width="4.4" height="4.4" rx="0" fill="#0a0f1c"/><rect x="137.7" y="127.8" width="4.4" height="4.4" rx="0" fill="#0a0f1c"/><rect x="142.1" y="127.8" width="4.4" height="4.4" rx="0" fill="#0a0f1c"/><rect x="76.4" y="132.2" width="4.4" height="4.4" rx="0" fill="#0a0f1c"/><rect x="98.3" y="132.2" width="4.4" height="4.4" rx="0" fill="#0a0f1c"/><rect x="102.7" y="132.2" width="4.4" height="4.4" rx="0" fill="#0a0f1c"/><rect x="107.0" y="132.2" width="4.4" height="4.4" rx="0" fill="#0a0f1c"/><rect x="111.4" y="132.2" width="4.4" height="4.4" rx="0" fill="#0a0f1c"/><rect x="115.8" y="132.2" width="4.4" height="4.4" rx="0" fill="#0a0f1c"/><rect x="120.2" y="132.2" width="4.4" height="4.4" rx="0" fill="#0a0f1c"/><rect x="129.0" y="132.2" width="4.4" height="4.4" rx="0" fill="#0a0f1c"/><rect x="133.3" y="132.2" width="4.4" height="4.4" rx="0" fill="#0a0f1c"/><rect x="137.7" y="132.2" width="4.4" height="4.4" rx="0" fill="#0a0f1c"/><rect x="142.1" y="132.2" width="4.4" height="4.4" rx="0" fill="#0a0f1c"/><rect x="159.6" y="132.2" width="4.4" height="4.4" rx="0" fill="#0a0f1c"/><rect x="120.2" y="136.6" width="4.4" height="4.4" rx="0" fill="#0a0f1c"/><rect x="124.6" y="136.6" width="4.4" height="4.4" rx="0" fill="#0a0f1c"/><rect x="150.9" y="136.6" width="4.4" height="4.4" rx="0" fill="#0a0f1c"/><rect x="155.2" y="136.6" width="4.4" height="4.4" rx="0" fill="#0a0f1c"/><rect x="129.0" y="141.0" width="4.4" height="4.4" rx="0" fill="#0a0f1c"/><rect x="142.1" y="141.0" width="4.4" height="4.4" rx="0" fill="#0a0f1c"/><rect x="146.5" y="141.0" width="4.4" height="4.4" rx="0" fill="#0a0f1c"/><rect x="155.2" y="141.0" width="4.4" height="4.4" rx="0" fill="#0a0f1c"/><rect x="107.0" y="145.3" width="4.4" height="4.4" rx="0" fill="#0a0f1c"/><rect x="111.4" y="145.3" width="4.4" height="4.4" rx="0" fill="#0a0f1c"/><rect x="115.8" y="145.3" width="4.4" height="4.4" rx="0" fill="#0a0f1c"/><rect x="120.2" y="145.3" width="4.4" height="4.4" rx="0" fill="#0a0f1c"/><rect x="137.7" y="145.3" width="4.4" height="4.4" rx="0" fill="#0a0f1c"/><rect x="142.1" y="145.3" width="4.4" height="4.4" rx="0" fill="#0a0f1c"/><rect x="146.5" y="145.3" width="4.4" height="4.4" rx="0" fill="#0a0f1c"/><rect x="159.6" y="145.3" width="4.4" height="4.4" rx="0" fill="#0a0f1c"/><rect x="107.0" y="149.7" width="4.4" height="4.4" rx="0" fill="#0a0f1c"/><rect x="111.4" y="149.7" width="4.4" height="4.4" rx="0" fill="#0a0f1c"/><rect x="115.8" y="149.7" width="4.4" height="4.4" rx="0" fill="#0a0f1c"/><rect x="120.2" y="149.7" width="4.4" height="4.4" rx="0" fill="#0a0f1c"/><rect x="124.6" y="149.7" width="4.4" height="4.4" rx="0" fill="#0a0f1c"/><rect x="133.3" y="149.7" width="4.4" height="4.4" rx="0" fill="#0a0f1c"/><rect x="159.6" y="149.7" width="4.4" height="4.4" rx="0" fill="#0a0f1c"/><rect x="107.0" y="154.1" width="4.4" height="4.4" rx="0" fill="#0a0f1c"/><rect x="115.8" y="154.1" width="4.4" height="4.4" rx="0" fill="#0a0f1c"/><rect x="120.2" y="154.1" width="4.4" height="4.4" rx="0" fill="#0a0f1c"/><rect x="124.6" y="154.1" width="4.4" height="4.4" rx="0" fill="#0a0f1c"/><rect x="150.9" y="154.1" width="4.4" height="4.4" rx="0" fill="#0a0f1c"/><rect x="155.2" y="154.1" width="4.4" height="4.4" rx="0" fill="#0a0f1c"/><rect x="159.6" y="154.1" width="4.4" height="4.4" rx="0" fill="#0a0f1c"/><rect x="111.4" y="158.5" width="4.4" height="4.4" rx="0" fill="#0a0f1c"/><rect x="115.8" y="158.5" width="4.4" height="4.4" rx="0" fill="#0a0f1c"/><rect x="124.6" y="158.5" width="4.4" height="4.4" rx="0" fill="#0a0f1c"/><rect x="129.0" y="158.5" width="4.4" height="4.4" rx="0" fill="#0a0f1c"/><rect x="133.3" y="158.5" width="4.4" height="4.4" rx="0" fill="#0a0f1c"/><rect x="137.7" y="158.5" width="4.4" height="4.4" rx="0" fill="#0a0f1c"/><rect x="150.9" y="158.5" width="4.4" height="4.4" rx="0" fill="#0a0f1c"/><rect x="159.6" y="158.5" width="4.4" height="4.4" rx="0" fill="#0a0f1c"/><rect x="107.0" y="162.9" width="4.4" height="4.4" rx="0" fill="#0a0f1c"/><rect x="120.2" y="162.9" width="4.4" height="4.4" rx="0" fill="#0a0f1c"/><rect x="124.6" y="162.9" width="4.4" height="4.4" rx="0" fill="#0a0f1c"/><rect x="142.1" y="162.9" width="4.4" height="4.4" rx="0" fill="#0a0f1c"/><rect x="146.5" y="162.9" width="4.4" height="4.4" rx="0" fill="#0a0f1c"/><rect x="155.2" y="162.9" width="4.4" height="4.4" rx="0" fill="#0a0f1c"/><rect x="159.6" y="162.9" width="4.4" height="4.4" rx="0" fill="#0a0f1c"/><rect x="107.0" y="167.2" width="4.4" height="4.4" rx="0" fill="#0a0f1c"/><rect x="115.8" y="167.2" width="4.4" height="4.4" rx="0" fill="#0a0f1c"/><rect x="129.0" y="167.2" width="4.4" height="4.4" rx="0" fill="#0a0f1c"/><rect x="133.3" y="167.2" width="4.4" height="4.4" rx="0" fill="#0a0f1c"/><rect x="137.7" y="167.2" width="4.4" height="4.4" rx="0" fill="#0a0f1c"/><rect x="142.1" y="167.2" width="4.4" height="4.4" rx="0" fill="#0a0f1c"/><rect x="150.9" y="167.2" width="4.4" height="4.4" rx="0" fill="#0a0f1c"/><rect x="155.2" y="167.2" width="4.4" height="4.4" rx="0" fill="#0a0f1c"/><rect x="120.2" y="171.6" width="4.4" height="4.4" rx="0" fill="#0a0f1c"/><rect x="137.7" y="171.6" width="4.4" height="4.4" rx="0" fill="#0a0f1c"/><rect x="150.9" y="171.6" width="4.4" height="4.4" rx="0" fill="#0a0f1c"/><rect x="155.2" y="171.6" width="4.4" height="4.4" rx="0" fill="#0a0f1c"/><rect x="72.0" y="84.0" width="4.4" height="4.4" rx="0" fill="#0a0f1c"/><rect x="76.4" y="84.0" width="4.4" height="4.4" rx="0" fill="#0a0f1c"/><rect x="80.8" y="84.0" width="4.4" height="4.4" rx="0" fill="#0a0f1c"/><rect x="85.1" y="84.0" width="4.4" height="4.4" rx="0" fill="#0a0f1c"/><rect x="89.5" y="84.0" width="4.4" height="4.4" rx="0" fill="#0a0f1c"/><rect x="93.9" y="84.0" width="4.4" height="4.4" rx="0" fill="#0a0f1c"/><rect x="98.3" y="84.0" width="4.4" height="4.4" rx="0" fill="#0a0f1c"/><rect x="72.0" y="88.4" width="4.4" height="4.4" rx="0" fill="#0a0f1c"/><rect x="98.3" y="88.4" width="4.4" height="4.4" rx="0" fill="#0a0f1c"/><rect x="72.0" y="92.8" width="4.4" height="4.4" rx="0" fill="#0a0f1c"/><rect x="80.8" y="92.8" width="4.4" height="4.4" rx="0" fill="#0a0f1c"/><rect x="85.1" y="92.8" width="4.4" height="4.4" rx="0" fill="#0a0f1c"/><rect x="89.5" y="92.8" width="4.4" height="4.4" rx="0" fill="#0a0f1c"/><rect x="98.3" y="92.8" width="4.4" height="4.4" rx="0" fill="#0a0f1c"/><rect x="72.0" y="97.1" width="4.4" height="4.4" rx="0" fill="#0a0f1c"/><rect x="80.8" y="97.1" width="4.4" height="4.4" rx="0" fill="#0a0f1c"/><rect x="85.1" y="97.1" width="4.4" height="4.4" rx="0" fill="#0a0f1c"/><rect x="89.5" y="97.1" width="4.4" height="4.4" rx="0" fill="#0a0f1c"/><rect x="98.3" y="97.1" width="4.4" height="4.4" rx="0" fill="#0a0f1c"/><rect x="72.0" y="101.5" width="4.4" height="4.4" rx="0" fill="#0a0f1c"/><rect x="80.8" y="101.5" width="4.4" height="4.4" rx="0" fill="#0a0f1c"/><rect x="85.1" y="101.5" width="4.4" height="4.4" rx="0" fill="#0a0f1c"/><rect x="89.5" y="101.5" width="4.4" height="4.4" rx="0" fill="#0a0f1c"/><rect x="98.3" y="101.5" width="4.4" height="4.4" rx="0" fill="#0a0f1c"/><rect x="72.0" y="105.9" width="4.4" height="4.4" rx="0" fill="#0a0f1c"/><rect x="98.3" y="105.9" width="4.4" height="4.4" rx="0" fill="#0a0f1c"/><rect x="72.0" y="110.3" width="4.4" height="4.4" rx="0" fill="#0a0f1c"/><rect x="76.4" y="110.3" width="4.4" height="4.4" rx="0" fill="#0a0f1c"/><rect x="80.8" y="110.3" width="4.4" height="4.4" rx="0" fill="#0a0f1c"/><rect x="85.1" y="110.3" width="4.4" height="4.4" rx="0" fill="#0a0f1c"/><rect x="89.5" y="110.3" width="4.4" height="4.4" rx="0" fill="#0a0f1c"/><rect x="93.9" y="110.3" width="4.4" height="4.4" rx="0" fill="#0a0f1c"/><rect x="98.3" y="110.3" width="4.4" height="4.4" rx="0" fill="#0a0f1c"/><rect x="133.3" y="84.0" width="4.4" height="4.4" rx="0" fill="#0a0f1c"/><rect x="137.7" y="84.0" width="4.4" height="4.4" rx="0" fill="#0a0f1c"/><rect x="142.1" y="84.0" width="4.4" height="4.4" rx="0" fill="#0a0f1c"/><rect x="146.5" y="84.0" width="4.4" height="4.4" rx="0" fill="#0a0f1c"/><rect x="150.9" y="84.0" width="4.4" height="4.4" rx="0" fill="#0a0f1c"/><rect x="155.2" y="84.0" width="4.4" height="4.4" rx="0" fill="#0a0f1c"/><rect x="159.6" y="84.0" width="4.4" height="4.4" rx="0" fill="#0a0f1c"/><rect x="133.3" y="88.4" width="4.4" height="4.4" rx="0" fill="#0a0f1c"/><rect x="159.6" y="88.4" width="4.4" height="4.4" rx="0" fill="#0a0f1c"/><rect x="133.3" y="92.8" width="4.4" height="4.4" rx="0" fill="#0a0f1c"/><rect x="142.1" y="92.8" width="4.4" height="4.4" rx="0" fill="#0a0f1c"/><rect x="146.5" y="92.8" width="4.4" height="4.4" rx="0" fill="#0a0f1c"/><rect x="150.9" y="92.8" width="4.4" height="4.4" rx="0" fill="#0a0f1c"/><rect x="159.6" y="92.8" width="4.4" height="4.4" rx="0" fill="#0a0f1c"/><rect x="133.3" y="97.1" width="4.4" height="4.4" rx="0" fill="#0a0f1c"/><rect x="142.1" y="97.1" width="4.4" height="4.4" rx="0" fill="#0a0f1c"/><rect x="146.5" y="97.1" width="4.4" height="4.4" rx="0" fill="#0a0f1c"/><rect x="150.9" y="97.1" width="4.4" height="4.4" rx="0" fill="#0a0f1c"/><rect x="159.6" y="97.1" width="4.4" height="4.4" rx="0" fill="#0a0f1c"/><rect x="133.3" y="101.5" width="4.4" height="4.4" rx="0" fill="#0a0f1c"/><rect x="142.1" y="101.5" width="4.4" height="4.4" rx="0" fill="#0a0f1c"/><rect x="146.5" y="101.5" width="4.4" height="4.4" rx="0" fill="#0a0f1c"/><rect x="150.9" y="101.5" width="4.4" height="4.4" rx="0" fill="#0a0f1c"/><rect x="159.6" y="101.5" width="4.4" height="4.4" rx="0" fill="#0a0f1c"/><rect x="133.3" y="105.9" width="4.4" height="4.4" rx="0" fill="#0a0f1c"/><rect x="159.6" y="105.9" width="4.4" height="4.4" rx="0" fill="#0a0f1c"/><rect x="133.3" y="110.3" width="4.4" height="4.4" rx="0" fill="#0a0f1c"/><rect x="137.7" y="110.3" width="4.4" height="4.4" rx="0" fill="#0a0f1c"/><rect x="142.1" y="110.3" width="4.4" height="4.4" rx="0" fill="#0a0f1c"/><rect x="146.5" y="110.3" width="4.4" height="4.4" rx="0" fill="#0a0f1c"/><rect x="150.9" y="110.3" width="4.4" height="4.4" rx="0" fill="#0a0f1c"/><rect x="155.2" y="110.3" width="4.4" height="4.4" rx="0" fill="#0a0f1c"/><rect x="159.6" y="110.3" width="4.4" height="4.4" rx="0" fill="#0a0f1c"/><rect x="72.0" y="145.3" width="4.4" height="4.4" rx="0" fill="#0a0f1c"/><rect x="76.4" y="145.3" width="4.4" height="4.4" rx="0" fill="#0a0f1c"/><rect x="80.8" y="145.3" width="4.4" height="4.4" rx="0" fill="#0a0f1c"/><rect x="85.1" y="145.3" width="4.4" height="4.4" rx="0" fill="#0a0f1c"/><rect x="89.5" y="145.3" width="4.4" height="4.4" rx="0" fill="#0a0f1c"/><rect x="93.9" y="145.3" width="4.4" height="4.4" rx="0" fill="#0a0f1c"/><rect x="98.3" y="145.3" width="4.4" height="4.4" rx="0" fill="#0a0f1c"/><rect x="72.0" y="149.7" width="4.4" height="4.4" rx="0" fill="#0a0f1c"/><rect x="98.3" y="149.7" width="4.4" height="4.4" rx="0" fill="#0a0f1c"/><rect x="72.0" y="154.1" width="4.4" height="4.4" rx="0" fill="#0a0f1c"/><rect x="80.8" y="154.1" width="4.4" height="4.4" rx="0" fill="#0a0f1c"/><rect x="85.1" y="154.1" width="4.4" height="4.4" rx="0" fill="#0a0f1c"/><rect x="89.5" y="154.1" width="4.4" height="4.4" rx="0" fill="#0a0f1c"/><rect x="98.3" y="154.1" width="4.4" height="4.4" rx="0" fill="#0a0f1c"/><rect x="72.0" y="158.5" width="4.4" height="4.4" rx="0" fill="#0a0f1c"/><rect x="80.8" y="158.5" width="4.4" height="4.4" rx="0" fill="#0a0f1c"/><rect x="85.1" y="158.5" width="4.4" height="4.4" rx="0" fill="#0a0f1c"/><rect x="89.5" y="158.5" width="4.4" height="4.4" rx="0" fill="#0a0f1c"/><rect x="98.3" y="158.5" width="4.4" height="4.4" rx="0" fill="#0a0f1c"/><rect x="72.0" y="162.9" width="4.4" height="4.4" rx="0" fill="#0a0f1c"/><rect x="80.8" y="162.9" width="4.4" height="4.4" rx="0" fill="#0a0f1c"/><rect x="85.1" y="162.9" width="4.4" height="4.4" rx="0" fill="#0a0f1c"/><rect x="89.5" y="162.9" width="4.4" height="4.4" rx="0" fill="#0a0f1c"/><rect x="98.3" y="162.9" width="4.4" height="4.4" rx="0" fill="#0a0f1c"/><rect x="72.0" y="167.2" width="4.4" height="4.4" rx="0" fill="#0a0f1c"/><rect x="98.3" y="167.2" width="4.4" height="4.4" rx="0" fill="#0a0f1c"/><rect x="72.0" y="171.6" width="4.4" height="4.4" rx="0" fill="#0a0f1c"/><rect x="76.4" y="171.6" width="4.4" height="4.4" rx="0" fill="#0a0f1c"/><rect x="80.8" y="171.6" width="4.4" height="4.4" rx="0" fill="#0a0f1c"/><rect x="85.1" y="171.6" width="4.4" height="4.4" rx="0" fill="#0a0f1c"/><rect x="89.5" y="171.6" width="4.4" height="4.4" rx="0" fill="#0a0f1c"/><rect x="93.9" y="171.6" width="4.4" height="4.4" rx="0" fill="#0a0f1c"/><rect x="98.3" y="171.6" width="4.4" height="4.4" rx="0" fill="#0a0f1c"/><text x="118.0" y="206.0" font-family="-apple-system,BlinkMacSystemFont,'SF Pro Text','Segoe UI',Roboto,system-ui,sans-serif" font-size="12" font-weight="650" fill="#eef1f7" text-anchor="middle">Medical ID</text><text x="118.0" y="221.0" font-family="-apple-system,BlinkMacSystemFont,'SF Pro Text','Segoe UI',Roboto,system-ui,sans-serif" font-size="9.5" font-weight="500" fill="#8a94ad" text-anchor="middle">scan to view</text><circle cx="103.0" cy="254" r="2.6" fill="#eef1f7"/><circle cx="113.0" cy="254" r="2" fill="#626d88"/><circle cx="123.0" cy="254" r="2" fill="#626d88"/><circle cx="133.0" cy="254" r="2" fill="#626d88"/></svg>