<svg xmlns="http://www.w3.org/2000/svg" width="236" height="300" viewBox="0 0 236 300" role="img" aria-label="Style watch screen"><defs>
      <linearGradient id="gScr" x1="0" y1="0" x2="0" y2="1"><stop offset="0" stop-color="#0e1626"/><stop offset="1" stop-color="#05070e"/></linearGradient>
      <linearGradient id="gFrame" x1="0" y1="0" x2="1" y2="1"><stop offset="0" stop-color="#20263a"/><stop offset="1" stop-color="#0c1020"/></linearGradient>
      <linearGradient id="gCard" x1="0" y1="0" x2="0" y2="1"><stop offset="0" stop-color="#182238"/><stop offset="1" stop-color="#1f2b45"/></linearGradient>
      <linearGradient id="gBrand" x1="0" y1="0" x2="1" y2="0"><stop offset="0" stop-color="#7c5cff"/><stop offset="1" stop-color="#3aa0ff"/></linearGradient>
      <linearGradient id="gEmer" x1="0" y1="0" x2="0" y2="1"><stop offset="0" stop-color="#ff5b52"/><stop offset="1" stop-color="#ff3b30"/></linearGradient>
      <linearGradient id="mV" x1="0" y1="0" x2="1" y2="0"><stop offset="0" stop-color="#7c5cff"/><stop offset="1" stop-color="#3aa0ff"/></linearGradient>
      <linearGradient id="mO" x1="0" y1="0" x2="1" y2="0"><stop offset="0" stop-color="#f7b731"/><stop offset="1" stop-color="#ff7a45"/></linearGradient>
      <linearGradient id="mG" x1="0" y1="0" x2="1" y2="0"><stop offset="0" stop-color="#2fd27a"/><stop offset="1" stop-color="#43e08a"/></linearGradient>
      <radialGradient id="orb" cx="34%" cy="30%" r="75%"><stop offset="0" stop-color="#c3b0ff"/><stop offset="42%" stop-color="#7c5cff"/><stop offset="80%" stop-color="#2f6cf0"/><stop offset="100%" stop-color="#14204a"/></radialGradient>
    </defs><rect x="212.0" y="118.0" width="7.0" height="34.0" rx="3" fill="#333c52"/><rect x="213.0" y="160.0" width="5.0" height="26.0" rx="2" fill="#2a3145"/><rect x="18.0" y="20.0" width="196.0" height="260.0" rx="60" fill="url(#gFrame)"/><rect x="30.0" y="32.0" width="172.0" height="236.0" rx="48" fill="url(#gScr)"/><text x="188.0" y="56.0" font-family="-apple-system,BlinkMacSystemFont,'SF Pro Text','Segoe UI',Roboto,system-ui,sans-serif" font-size="11" font-weight="700" fill="#a78bfa" text-anchor="end">10:09</text><text x="44.0" y="56.0" font-family="-apple-system,BlinkMacSystemFont,'SF Pro Text','Segoe UI',Roboto,system-ui,sans-serif" font-size="13" font-weight="700" fill="#eef1f7" text-anchor="start" letter-spacing="-0.2">Style</text><rect x="44.0" y="76.0" width="144.0" height="40.0" rx="12" fill="url(#gCard)" stroke="#26314e" stroke-width="1"/><rect x="52.0" y="85.0" width="22.0" height="22.0" rx="7" fill="rgba(167,139,250,0.16)"/><path d="M58.2 92.4 h9.6 a2 2 0 0 1 2 2 v4.2 a2 2 0 0 1 -2 2 h-5.3999999999999995 l-2.4 2.4 v-2.4 h-1.7999999999999998 a2 2 0 0 1 -2 -2 v-4.2 a2 2 0 0 1 2 -2 Z" fill="none" stroke="#a78bfa" stroke-width="1.02" stroke-linecap="round" stroke-linejoin="round"/><text x="82.0" y="93.0" font-family="-apple-system,BlinkMacSystemFont,'SF Pro Text','Segoe UI',Roboto,system-ui,sans-serif" font-size="11" font-weight="650" fill="#eef1f7" text-anchor="start">Tone: Direct</text><text x="82.0" y="106.0" font-family="-apple-system,BlinkMacSystemFont,'SF Pro Text','Segoe UI',Roboto,system-ui,sans-serif" font-size="9" font-weight="400" fill="#8a94ad" text-anchor="start">short, no sugar-coating</text><rect x="44.0" y="122.0" width="144.0" height="40.0" rx="12" fill="url(#gCard)" stroke="#26314e" stroke-width="1"/><rect x="52.0" y="131.0" width="22.0" height="22.0" rx="7" fill="rgba(124,92,255,0.16)"/><circle cx="63" cy="139.6" r="2.04" fill="none" stroke="#7c5cff" stroke-width="1.02" stroke-linecap="round" stroke-linejoin="round"/><path d="M59.4 146.2 c0 -3.5999999999999996 7.199999999999999 -3.5999999999999996 7.199999999999999 0" fill="none" stroke="#7c5cff" stroke-width="1.02" stroke-linecap="round" stroke-linejoin="round"/><text x="82.0" y="139.0" font-family="-apple-system,BlinkMacSystemFont,'SF Pro Text','Segoe UI',Roboto,system-ui,sans-serif" font-size="11" font-weight="650" fill="#eef1f7" text-anchor="start">Shapes every reply</text><text x="82.0" y="152.0" font-family="-apple-system,BlinkMacSystemFont,'SF Pro Text','Segoe UI',Roboto,system-ui,sans-serif" font-size="9" font-weight="400" fill="#8a94ad" text-anchor="start">guidance &amp; coach</text><circle cx="103.0" cy="254" r="2.6" fill="#eef1f7"/><circle cx="113.0" cy="254" r="2" fill="#626d88"/><circle cx="123.0" cy="254" r="2" fill="#626d88"/><circle cx="133.0" cy="254" r="2" fill="#626d88"/></svg>