<svg xmlns="http://www.w3.org/2000/svg" width="236" height="300" viewBox="0 0 236 300" role="img" aria-label="Family watch screen"><defs>
      <linearGradient id="gScr" x1="0" y1="0" x2="0" y2="1"><stop offset="0" stop-color="#0e1626"/><stop offset="1" stop-color="#05070e"/></linearGradient>
      <linearGradient id="gFrame" x1="0" y1="0" x2="1" y2="1"><stop offset="0" stop-color="#20263a"/><stop offset="1" stop-color="#0c1020"/></linearGradient>
      <linearGradient id="gCard" x1="0" y1="0" x2="0" y2="1"><stop offset="0" stop-color="#182238"/><stop offset="1" stop-color="#1f2b45"/></linearGradient>
      <linearGradient id="gBrand" x1="0" y1="0" x2="1" y2="0"><stop offset="0" stop-color="#7c5cff"/><stop offset="1" stop-color="#3aa0ff"/></linearGradient>
      <linearGradient id="gEmer" x1="0" y1="0" x2="0" y2="1"><stop offset="0" stop-color="#ff5b52"/><stop offset="1" stop-color="#ff3b30"/></linearGradient>
      <linearGradient id="mV" x1="0" y1="0" x2="1" y2="0"><stop offset="0" stop-color="#7c5cff"/><stop offset="1" stop-color="#3aa0ff"/></linearGradient>
      <linearGradient id="mO" x1="0" y1="0" x2="1" y2="0"><stop offset="0" stop-color="#f7b731"/><stop offset="1" stop-color="#ff7a45"/></linearGradient>
      <linearGradient id="mG" x1="0" y1="0" x2="1" y2="0"><stop offset="0" stop-color="#2fd27a"/><stop offset="1" stop-color="#43e08a"/></linearGradient>
      <radialGradient id="orb" cx="34%" cy="30%" r="75%"><stop offset="0" stop-color="#c3b0ff"/><stop offset="42%" stop-color="#7c5cff"/><stop offset="80%" stop-color="#2f6cf0"/><stop offset="100%" stop-color="#14204a"/></radialGradient>
    </defs><rect x="212.0" y="118.0" width="7.0" height="34.0" rx="3" fill="#333c52"/><rect x="213.0" y="160.0" width="5.0" height="26.0" rx="2" fill="#2a3145"/><rect x="18.0" y="20.0" width="196.0" height="260.0" rx="60" fill="url(#gFrame)"/><rect x="30.0" y="32.0" width="172.0" height="236.0" rx="48" fill="url(#gScr)"/><text x="188.0" y="56.0" font-family="-apple-system,BlinkMacSystemFont,'SF Pro Text','Segoe UI',Roboto,system-ui,sans-serif" font-size="11" font-weight="700" fill="#f7b731" text-anchor="end">10:09</text><text x="44.0" y="56.0" font-family="-apple-system,BlinkMacSystemFont,'SF Pro Text','Segoe UI',Roboto,system-ui,sans-serif" font-size="13" font-weight="700" fill="#eef1f7" text-anchor="start" letter-spacing="-0.2">Family</text><rect x="44.0" y="76.0" width="144.0" height="40.0" rx="12" fill="url(#gCard)" stroke="#26314e" stroke-width="1"/><rect x="52.0" y="85.0" width="22.0" height="22.0" rx="7" fill="rgba(67,224,138,0.16)"/><path d="M63 99.6 C57.6 94.2,58.8 90.6,63 93.6 C67.2 90.6,68.4 94.2,63 99.6 Z" fill="#43e08a"/><text x="82.0" y="93.0" font-family="-apple-system,BlinkMacSystemFont,'SF Pro Text','Segoe UI',Roboto,system-ui,sans-serif" font-size="11" font-weight="650" fill="#eef1f7" text-anchor="start">Riley · 8</text><text x="82.0" y="106.0" font-family="-apple-system,BlinkMacSystemFont,'SF Pro Text','Segoe UI',Roboto,system-ui,sans-serif" font-size="9" font-weight="400" fill="#8a94ad" text-anchor="start">quiet · full oversight</text><rect x="44.0" y="122.0" width="144.0" height="40.0" rx="12" fill="url(#gCard)" stroke="#26314e" stroke-width="1"/><rect x="52.0" y="131.0" width="22.0" height="22.0" rx="7" fill="rgba(255,77,94,0.16)"/><path d="M63 137.2 L67.8 145.6 H58.2 Z" fill="none" stroke="#ff4d5e" stroke-width="1.02" stroke-linecap="round" stroke-linejoin="round"/><path d="M63 140.2 v2.4" fill="none" stroke="#ff4d5e" stroke-width="1.02" stroke-linecap="round" stroke-linejoin="round"/><circle cx="63" cy="144.4" r="0.54" fill="#ff4d5e"/><text x="82.0" y="139.0" font-family="-apple-system,BlinkMacSystemFont,'SF Pro Text','Segoe UI',Roboto,system-ui,sans-serif" font-size="11" font-weight="650" fill="#eef1f7" text-anchor="start">Sam · 15</text><text x="82.0" y="152.0" font-family="-apple-system,BlinkMacSystemFont,'SF Pro Text','Segoe UI',Roboto,system-ui,sans-serif" font-size="9" font-weight="400" fill="#8a94ad" text-anchor="start">escalated 21:40 · tap to open</text><rect x="44.0" y="168.0" width="144.0" height="40.0" rx="12" fill="url(#gCard)" stroke="#26314e" stroke-width="1"/><rect x="52.0" y="177.0" width="22.0" height="22.0" rx="7" fill="rgba(247,183,49,0.16)"/><path d="M63 183.2 c3.0 0 3.0 2.4 3.0 4.8 l1.2 1.2 h-8.4 l1.2 -1.2 c0 -2.4 0 -4.8 3.0 -4.8 M61.8 191.6 c0 1.7999999999999998 2.4 1.7999999999999998 2.4 0" fill="none" stroke="#f7b731" stroke-width="1.02" stroke-linecap="round" stroke-linejoin="round"/><text x="82.0" y="185.0" font-family="-apple-system,BlinkMacSystemFont,'SF Pro Text','Segoe UI',Roboto,system-ui,sans-serif" font-size="11" font-weight="650" fill="#eef1f7" text-anchor="start">Quiet hours</text><text x="82.0" y="198.0" font-family="-apple-system,BlinkMacSystemFont,'SF Pro Text','Segoe UI',Roboto,system-ui,sans-serif" font-size="9" font-weight="400" fill="#8a94ad" text-anchor="start">21:00–07:00 · safety never pauses</text><circle cx="103.0" cy="254" r="2.6" fill="#eef1f7"/><circle cx="113.0" cy="254" r="2" fill="#626d88"/><circle cx="123.0" cy="254" r="2" fill="#626d88"/><circle cx="133.0" cy="254" r="2" fill="#626d88"/></svg>