<svg xmlns="http://www.w3.org/2000/svg" width="1280" height="820" viewBox="0 0 1280 820" role="img" aria-label="Jim Mini — Overview"><defs>
      <linearGradient id="gPage" x1="0" y1="0" x2="0.4" y2="1">
        <stop offset="0" stop-color="#0a1120"/><stop offset="1" stop-color="#070b16"/></linearGradient>
      <linearGradient id="gScr" x1="0" y1="0" x2="0.5" y2="1">
        <stop offset="0" stop-color="#0e1626"/><stop offset="1" stop-color="#0a0f1c"/></linearGradient>
      <linearGradient id="gSide" x1="0" y1="0" x2="0" y2="1">
        <stop offset="0" stop-color="#141d31"/><stop offset="1" stop-color="#0b1120"/></linearGradient>
      <linearGradient id="gCard" x1="0" y1="0" x2="0.4" y2="1">
        <stop offset="0" stop-color="#182238"/><stop offset="1" stop-color="#1f2b45"/></linearGradient>
      <linearGradient id="gBrand" x1="0" y1="0" x2="1" y2="0">
        <stop offset="0" stop-color="#7c5cff"/><stop offset="1" stop-color="#3aa0ff"/></linearGradient>
      <linearGradient id="gEmer" x1="0" y1="0" x2="0" y2="1"><stop offset="0" stop-color="#ff5b52"/><stop offset="1" stop-color="#ff3b30"/></linearGradient>
      <linearGradient id="mV" x1="0" y1="0" x2="1" y2="0"><stop offset="0" stop-color="#7c5cff"/><stop offset="1" stop-color="#3aa0ff"/></linearGradient>
      <linearGradient id="mG" x1="0" y1="0" x2="1" y2="0"><stop offset="0" stop-color="#2fd27a"/><stop offset="1" stop-color="#43e08a"/></linearGradient>
      <linearGradient id="mO" x1="0" y1="0" x2="1" y2="0"><stop offset="0" stop-color="#f7b731"/><stop offset="1" stop-color="#ff7a45"/></linearGradient>
      <radialGradient id="orb" cx="34%" cy="30%" r="75%">
        <stop offset="0" stop-color="#c3b0ff"/><stop offset="42%" stop-color="#7c5cff"/>
        <stop offset="80%" stop-color="#2f6cf0"/><stop offset="100%" stop-color="#14204a"/></radialGradient>
    </defs><rect x="0.0" y="0.0" width="1280.0" height="820.0" rx="0" fill="url(#gPage)"/><rect x="24" y="24" width="1232" height="772" rx="18" fill="url(#gScr)" stroke="#26314e" stroke-width="1"/><rect x="24.0" y="24.0" width="216.0" height="772.0" rx="18" fill="url(#gSide)"/><rect x="222.0" y="24.0" width="18.0" height="772.0" rx="0" fill="url(#gScr)"/><line x1="240" y1="24" x2="240" y2="796" stroke="#26314e" stroke-width="1"/><line x1="240" y1="78" x2="1256" y2="78" stroke="#26314e" stroke-width="1"/><circle cx="46" cy="51" r="5.5" fill="#ff5f57" opacity="0.9"/><circle cx="64" cy="51" r="5.5" fill="#febc2e" opacity="0.9"/><circle cx="82" cy="51" r="5.5" fill="#28c840" opacity="0.9"/><circle cx="120" cy="51" r="11" fill="url(#orb)"/><path d="M120 47.0 l3.5 1.5 v2.5 c0 2.5 -1.5 3.5 -3.5 4.5 c-2.0 -1.0 -3.5 -2.0 -3.5 -4.5 v-2.5 Z" fill="none" stroke="rgba(255,255,255,0.95)" stroke-width="0.85" stroke-linecap="round" stroke-linejoin="round"/><text x="138.0" y="49.0" font-family="-apple-system,BlinkMacSystemFont,'SF Pro Text','Segoe UI',Roboto,system-ui,sans-serif" font-size="14" font-weight="800" fill="#eef1f7" text-anchor="start" letter-spacing="0.5">JIM</text><text x="138.0" y="63.0" font-family="-apple-system,BlinkMacSystemFont,'SF Pro Text','Segoe UI',Roboto,system-ui,sans-serif" font-size="8.5" font-weight="500" fill="#626d88" text-anchor="start">Guardian guidance</text><text x="268.0" y="57.0" font-family="-apple-system,BlinkMacSystemFont,'SF Pro Text','Segoe UI',Roboto,system-ui,sans-serif" font-size="15" font-weight="700" fill="#eef1f7" text-anchor="start" letter-spacing="-0.2">Overview</text><rect x="1220.96" y="43.8" width="2.08" height="3.2" rx="1" transform="rotate(0 1222 51)" fill="#8a94ad"/><rect x="1220.96" y="43.8" width="2.08" height="3.2" rx="1" transform="rotate(45 1222 51)" fill="#8a94ad"/><rect x="1220.96" y="43.8" width="2.08" height="3.2" rx="1" transform="rotate(90 1222 51)" fill="#8a94ad"/><rect x="1220.96" y="43.8" width="2.08" height="3.2" rx="1" transform="rotate(135 1222 51)" fill="#8a94ad"/><rect x="1220.96" y="43.8" width="2.08" height="3.2" rx="1" transform="rotate(180 1222 51)" fill="#8a94ad"/><rect x="1220.96" y="43.8" width="2.08" height="3.2" rx="1" transform="rotate(225 1222 51)" fill="#8a94ad"/><rect x="1220.96" y="43.8" width="2.08" height="3.2" rx="1" transform="rotate(270 1222 51)" fill="#8a94ad"/><rect x="1220.96" y="43.8" width="2.08" height="3.2" rx="1" transform="rotate(315 1222 51)" fill="#8a94ad"/><circle cx="1222" cy="51" r="3.6799999999999997" fill="none" stroke="#8a94ad" stroke-width="1.36" stroke-linecap="round" stroke-linejoin="round"/><rect x="1118.0" y="46.0" width="80.0" height="16.0" rx="8" fill="rgba(67,224,138,0.14)"/><circle cx="1127.0" cy="54" r="3" fill="#43e08a"/><text x="1134.0" y="58.0" font-family="-apple-system,BlinkMacSystemFont,'SF Pro Text','Segoe UI',Roboto,system-ui,sans-serif" font-size="9" font-weight="700" fill="#43e08a" text-anchor="start" letter-spacing="0.5">Guardian on</text><circle cx="1106" cy="51" r="13" fill="url(#orb)"/><circle cx="1106" cy="48.6" r="2.04" fill="none" stroke="rgba(255,255,255,0.9)" stroke-width="1.02" stroke-linecap="round" stroke-linejoin="round"/><path d="M1102.4 55.2 c0 -3.5999999999999996 7.199999999999999 -3.5999999999999996 7.199999999999999 0" fill="none" stroke="rgba(255,255,255,0.9)" stroke-width="1.02" stroke-linecap="round" stroke-linejoin="round"/><rect x="36.0" y="92.0" width="192.0" height="38.0" rx="10" fill="rgba(67,224,138,0.16)"/><rect x="36.0" y="92.0" width="3.0" height="38.0" rx="2" fill="#43e08a"/><circle cx="58" cy="111" r="5.3999999999999995" fill="none" stroke="#43e08a" stroke-width="1.22" stroke-linecap="round" stroke-linejoin="round"/><circle cx="58" cy="111" r="2.52" fill="none" stroke="#43e08a" stroke-width="1.22" stroke-linecap="round" stroke-linejoin="round"/><circle cx="58" cy="111" r="0.648" fill="#43e08a"/><text x="78.0" y="116.0" font-family="-apple-system,BlinkMacSystemFont,'SF Pro Text','Segoe UI',Roboto,system-ui,sans-serif" font-size="12.5" font-weight="650" fill="#eef1f7" text-anchor="start">Overview</text><path d="M58 161.32 C51.52 154.84,52.96 150.52,58 154.12 C63.04 150.52,64.48 154.84,58 161.32 Z" fill="#8a94ad"/><text x="78.0" y="162.0" font-family="-apple-system,BlinkMacSystemFont,'SF Pro Text','Segoe UI',Roboto,system-ui,sans-serif" font-size="12.5" font-weight="500" fill="#8a94ad" text-anchor="start">Monitoring</text><rect x="52.96" y="203.72" width="2.304" height="3.5999999999999996" rx="1" fill="#8a94ad"/><rect x="56.56" y="200.84" width="2.304" height="6.4799999999999995" rx="1" fill="#8a94ad"/><rect x="60.16" y="204.44" width="2.304" height="2.88" rx="1" fill="#8a94ad"/><rect x="63.76" y="199.4" width="2.304" height="7.92" rx="1" fill="#8a94ad"/><text x="78.0" y="208.0" font-family="-apple-system,BlinkMacSystemFont,'SF Pro Text','Segoe UI',Roboto,system-ui,sans-serif" font-size="12.5" font-weight="500" fill="#8a94ad" text-anchor="start">Health</text><path d="M58 243.96 v10.08 M52.96 249 h10.08" fill="none" stroke="#8a94ad" stroke-width="2.16" stroke-linecap="round"/><text x="78.0" y="254.0" font-family="-apple-system,BlinkMacSystemFont,'SF Pro Text','Segoe UI',Roboto,system-ui,sans-serif" font-size="12.5" font-weight="500" fill="#8a94ad" text-anchor="start">Emergency</text><circle cx="55.84" cy="295" r="3.5999999999999996" fill="none" stroke="#8a94ad" stroke-width="1.22" stroke-linecap="round" stroke-linejoin="round"/><circle cx="60.16" cy="295" r="3.5999999999999996" fill="none" stroke="#8a94ad" stroke-width="1.22" stroke-linecap="round" stroke-linejoin="round"/><text x="78.0" y="300.0" font-family="-apple-system,BlinkMacSystemFont,'SF Pro Text','Segoe UI',Roboto,system-ui,sans-serif" font-size="12.5" font-weight="500" fill="#8a94ad" text-anchor="start">Coach</text><rect x="54.4" y="337.4" width="7.199999999999999" height="7.199999999999999" rx="2.5" fill="none" stroke="#8a94ad" stroke-width="1.22" stroke-linecap="round" stroke-linejoin="round"/><path d="M56.2 337.4 v-2.16 h3.5999999999999996 v2.16 M56.2 344.6 v2.16 h3.5999999999999996 v-2.16" fill="none" stroke="#8a94ad" stroke-width="1.22" stroke-linecap="round" stroke-linejoin="round"/><text x="78.0" y="346.0" font-family="-apple-system,BlinkMacSystemFont,'SF Pro Text','Segoe UI',Roboto,system-ui,sans-serif" font-size="12.5" font-weight="500" fill="#8a94ad" text-anchor="start">Devices</text><path d="M58 381.24 l5.04 2.16 v3.5999999999999996 c0 3.5999999999999996 -2.16 5.04 -5.04 6.4799999999999995 c-2.88 -1.44 -5.04 -2.88 -5.04 -6.4799999999999995 v-3.5999999999999996 Z" fill="none" stroke="#8a94ad" stroke-width="1.22" stroke-linecap="round" stroke-linejoin="round"/><text x="78.0" y="392.0" font-family="-apple-system,BlinkMacSystemFont,'SF Pro Text','Segoe UI',Roboto,system-ui,sans-serif" font-size="12.5" font-weight="500" fill="#8a94ad" text-anchor="start">Privacy</text><line x1="40" y1="726" x2="224" y2="726" stroke="#26314e" stroke-width="1"/><rect x="40.0" y="740.0" width="184.0" height="40.0" rx="10" fill="rgba(255,255,255,0.04)" stroke="#26314e" stroke-width="1"/><path d="M58 754.72 l4.62 1.98 v3.3000000000000003 c0 3.3000000000000003 -1.98 4.62 -4.62 5.94 c-2.64 -1.32 -4.62 -2.64 -4.62 -5.94 v-3.3000000000000003 Z" fill="none" stroke="#43e08a" stroke-width="1.12" stroke-linecap="round" stroke-linejoin="round"/><text x="76.0" y="756.0" font-family="-apple-system,BlinkMacSystemFont,'SF Pro Text','Segoe UI',Roboto,system-ui,sans-serif" font-size="10.5" font-weight="650" fill="#eef1f7" text-anchor="start">Watching</text><text x="76.0" y="769.0" font-family="-apple-system,BlinkMacSystemFont,'SF Pro Text','Segoe UI',Roboto,system-ui,sans-serif" font-size="8.5" font-weight="500" fill="#626d88" text-anchor="start">rules are transparent</text><rect x="268.0" y="106.0" width="225.0" height="96.0" rx="14" fill="url(#gCard)" stroke="#26314e" stroke-width="1"/><text x="286.0" y="134.0" font-family="-apple-system,BlinkMacSystemFont,'SF Pro Text','Segoe UI',Roboto,system-ui,sans-serif" font-size="11" font-weight="600" fill="#8a94ad" text-anchor="start">Heart rate</text><text x="286.0" y="168.0" font-family="-apple-system,BlinkMacSystemFont,'SF Pro Text','Segoe UI',Roboto,system-ui,sans-serif" font-size="27" font-weight="800" fill="#ff4d5e" text-anchor="start">72</text><text x="286.0" y="186.0" font-family="-apple-system,BlinkMacSystemFont,'SF Pro Text','Segoe UI',Roboto,system-ui,sans-serif" font-size="9.5" font-weight="500" fill="#626d88" text-anchor="start">bpm · resting</text><rect x="445.0" y="120.0" width="34.0" height="34.0" rx="11" fill="rgba(255,77,94,0.16)"/><path d="M462.0 142.52 C453.72 134.24,455.56 128.72,462.0 133.32 C468.44 128.72,470.28 134.24,462.0 142.52 Z" fill="#ff4d5e"/><rect x="513.0" y="106.0" width="225.0" height="96.0" rx="14" fill="url(#gCard)" stroke="#26314e" stroke-width="1"/><text x="531.0" y="134.0" font-family="-apple-system,BlinkMacSystemFont,'SF Pro Text','Segoe UI',Roboto,system-ui,sans-serif" font-size="11" font-weight="600" fill="#8a94ad" text-anchor="start">Mood</text><text x="531.0" y="168.0" font-family="-apple-system,BlinkMacSystemFont,'SF Pro Text','Segoe UI',Roboto,system-ui,sans-serif" font-size="27" font-weight="800" fill="#43e08a" text-anchor="start">Calm</text><text x="531.0" y="186.0" font-family="-apple-system,BlinkMacSystemFont,'SF Pro Text','Segoe UI',Roboto,system-ui,sans-serif" font-size="9.5" font-weight="500" fill="#626d88" text-anchor="start">4 / 5 today</text><rect x="690.0" y="120.0" width="34.0" height="34.0" rx="11" fill="rgba(67,224,138,0.16)"/><path d="M701.48 142.52 c0 -8.280000000000001 5.5200000000000005 -11.96 11.040000000000001 -11.040000000000001 c0.92 5.5200000000000005 -2.7600000000000002 11.040000000000001 -11.040000000000001 11.040000000000001 Z M704.24 139.76 l5.5200000000000005 -5.5200000000000005" fill="none" stroke="#43e08a" stroke-width="1.56" stroke-linecap="round" stroke-linejoin="round"/><rect x="758.0" y="106.0" width="225.0" height="96.0" rx="14" fill="url(#gCard)" stroke="#26314e" stroke-width="1"/><text x="776.0" y="134.0" font-family="-apple-system,BlinkMacSystemFont,'SF Pro Text','Segoe UI',Roboto,system-ui,sans-serif" font-size="11" font-weight="600" fill="#8a94ad" text-anchor="start">Sleep</text><text x="776.0" y="168.0" font-family="-apple-system,BlinkMacSystemFont,'SF Pro Text','Segoe UI',Roboto,system-ui,sans-serif" font-size="27" font-weight="800" fill="#a78bfa" text-anchor="start">7h 45m</text><text x="776.0" y="186.0" font-family="-apple-system,BlinkMacSystemFont,'SF Pro Text','Segoe UI',Roboto,system-ui,sans-serif" font-size="9.5" font-weight="500" fill="#626d88" text-anchor="start">good last night</text><rect x="935.0" y="120.0" width="34.0" height="34.0" rx="11" fill="rgba(167,139,250,0.16)"/><path d="M956.6 137 a5.5200000000000005 5.5200000000000005 0 1 1 -6.44 -5.5200000000000005 a7.36 7.36 0 1 0 6.44 5.5200000000000005 Z" fill="#a78bfa"/><rect x="1003.0" y="106.0" width="225.0" height="96.0" rx="14" fill="url(#gCard)" stroke="#26314e" stroke-width="1"/><text x="1021.0" y="134.0" font-family="-apple-system,BlinkMacSystemFont,'SF Pro Text','Segoe UI',Roboto,system-ui,sans-serif" font-size="11" font-weight="600" fill="#8a94ad" text-anchor="start">Guardian</text><text x="1021.0" y="168.0" font-family="-apple-system,BlinkMacSystemFont,'SF Pro Text','Segoe UI',Roboto,system-ui,sans-serif" font-size="27" font-weight="800" fill="#43e08a" text-anchor="start">ON</text><text x="1021.0" y="186.0" font-family="-apple-system,BlinkMacSystemFont,'SF Pro Text','Segoe UI',Roboto,system-ui,sans-serif" font-size="9.5" font-weight="500" fill="#626d88" text-anchor="start">watching</text><rect x="1180.0" y="120.0" width="34.0" height="34.0" rx="11" fill="rgba(67,224,138,0.16)"/><path d="M1197.0 129.64 l6.44 2.7600000000000002 v4.6000000000000005 c0 4.6000000000000005 -2.7600000000000002 6.44 -6.44 8.280000000000001 c-3.68 -1.84 -6.44 -3.68 -6.44 -8.280000000000001 v-4.6000000000000005 Z" fill="none" stroke="#43e08a" stroke-width="1.56" stroke-linecap="round" stroke-linejoin="round"/><rect x="268.0" y="224.0" width="614.4" height="268.0" rx="14" fill="url(#gCard)" stroke="#26314e" stroke-width="1"/><text x="286.0" y="251.0" font-family="-apple-system,BlinkMacSystemFont,'SF Pro Text','Segoe UI',Roboto,system-ui,sans-serif" font-size="12.5" font-weight="700" fill="#eef1f7" text-anchor="start">Heart rate — today</text><text x="864.4" y="251.0" font-family="-apple-system,BlinkMacSystemFont,'SF Pro Text','Segoe UI',Roboto,system-ui,sans-serif" font-size="10" font-weight="600" fill="#626d88" text-anchor="end">resting 60</text><line x1="288" y1="319.0" x2="862.4" y2="319.0" stroke="rgba(38,49,78,0.5)" stroke-width="1"/><line x1="288" y1="362.0" x2="862.4" y2="362.0" stroke="rgba(38,49,78,0.5)" stroke-width="1"/><line x1="288" y1="405.0" x2="862.4" y2="405.0" stroke="rgba(38,49,78,0.5)" stroke-width="1"/><line x1="288" y1="429.6" x2="862.4" y2="429.6" stroke="rgba(98,109,136,0.9)" stroke-width="1" stroke-dasharray="4 4"/><text x="860.4" y="424.6" font-family="-apple-system,BlinkMacSystemFont,'SF Pro Text','Segoe UI',Roboto,system-ui,sans-serif" font-size="8.5" font-weight="500" fill="#626d88" text-anchor="end">baseline</text><polygon points="288,448 288.0,407.6 340.2,385.7 392.4,418.6 444.7,319.9 496.9,363.8 549.1,297.9 601.3,341.8 653.5,276.0 705.7,308.9 758.0,330.8 810.2,287.0 862.4,297.9 862.4,448" fill="rgba(255,77,94,0.13)"/><polyline points="288.0,407.6 340.2,385.7 392.4,418.6 444.7,319.9 496.9,363.8 549.1,297.9 601.3,341.8 653.5,276.0 705.7,308.9 758.0,330.8 810.2,287.0 862.4,297.9" fill="none" stroke="#ff4d5e" stroke-width="2.5" stroke-linejoin="round" stroke-linecap="round"/><circle cx="862.4" cy="297.9" r="4" fill="#ff4d5e"/><rect x="902.4" y="224.0" width="325.6" height="268.0" rx="14" fill="url(#gCard)" stroke="#26314e" stroke-width="1"/><text x="920.4" y="251.0" font-family="-apple-system,BlinkMacSystemFont,'SF Pro Text','Segoe UI',Roboto,system-ui,sans-serif" font-size="12.5" font-weight="700" fill="#eef1f7" text-anchor="start">Baseline</text><circle cx="1065.2" cy="342" r="58" fill="none" stroke="rgba(67,224,138,0.13)" stroke-width="11"/><circle cx="1065.2" cy="342" r="58" fill="none" stroke="#43e08a" stroke-width="11" stroke-linecap="round" stroke-dasharray="364.4 364.4" transform="rotate(-90 1065.2 342)"/><text x="1065.2" y="340.0" font-family="-apple-system,BlinkMacSystemFont,'SF Pro Text','Segoe UI',Roboto,system-ui,sans-serif" font-size="34" font-weight="800" fill="#fff" text-anchor="middle">60</text><text x="1065.2" y="362.0" font-family="-apple-system,BlinkMacSystemFont,'SF Pro Text','Segoe UI',Roboto,system-ui,sans-serif" font-size="9" font-weight="600" fill="#8a94ad" text-anchor="middle" letter-spacing="0.6">RESTING HR</text><text x="1065.2" y="452.0" font-family="-apple-system,BlinkMacSystemFont,'SF Pro Text','Segoe UI',Roboto,system-ui,sans-serif" font-size="9.5" font-weight="500" fill="#8a94ad" text-anchor="middle">learned from 40 calm samples</text><rect x="1067.2" y="463.0" width="32.0" height="16.0" rx="8" fill="rgba(67,224,138,0.14)"/><circle cx="1076.2" cy="471" r="3" fill="#43e08a"/><text x="1083.2" y="475.0" font-family="-apple-system,BlinkMacSystemFont,'SF Pro Text','Segoe UI',Roboto,system-ui,sans-serif" font-size="9" font-weight="700" fill="#43e08a" text-anchor="start" letter-spacing="0.5">SET</text><rect x="268.0" y="514.0" width="614.4" height="254.0" rx="14" fill="url(#gCard)" stroke="#26314e" stroke-width="1"/><text x="286.0" y="541.0" font-family="-apple-system,BlinkMacSystemFont,'SF Pro Text','Segoe UI',Roboto,system-ui,sans-serif" font-size="12.5" font-weight="700" fill="#eef1f7" text-anchor="start">Recent guardian events</text><text x="864.4" y="541.0" font-family="-apple-system,BlinkMacSystemFont,'SF Pro Text','Segoe UI',Roboto,system-ui,sans-serif" font-size="10" font-weight="600" fill="#626d88" text-anchor="end">detect → guide → escalate</text><text x="296.0" y="570.0" font-family="-apple-system,BlinkMacSystemFont,'SF Pro Text','Segoe UI',Roboto,system-ui,sans-serif" font-size="9.5" font-weight="700" fill="#626d88" text-anchor="start" letter-spacing="0.4">TYPE</text><text x="423.2" y="570.0" font-family="-apple-system,BlinkMacSystemFont,'SF Pro Text','Segoe UI',Roboto,system-ui,sans-serif" font-size="9.5" font-weight="700" fill="#626d88" text-anchor="start" letter-spacing="0.4">DETAIL</text><text x="854.4" y="570.0" font-family="-apple-system,BlinkMacSystemFont,'SF Pro Text','Segoe UI',Roboto,system-ui,sans-serif" font-size="9.5" font-weight="700" fill="#626d88" text-anchor="end" letter-spacing="0.4">WHEN</text><line x1="286" y1="580" x2="864.4" y2="580" stroke="#26314e" stroke-width="1"/><text x="296.0" y="604.0" font-family="-apple-system,BlinkMacSystemFont,'SF Pro Text','Segoe UI',Roboto,system-ui,sans-serif" font-size="10.5" font-weight="700" fill="#38bdf8" text-anchor="start">BIOMETRIC</text><text x="423.2" y="604.0" font-family="-apple-system,BlinkMacSystemFont,'SF Pro Text','Segoe UI',Roboto,system-ui,sans-serif" font-size="10.5" font-weight="500" fill="#eef1f7" text-anchor="start">HR 78 · resp 16 · calm</text><text x="854.4" y="604.0" font-family="-apple-system,BlinkMacSystemFont,'SF Pro Text','Segoe UI',Roboto,system-ui,sans-serif" font-size="10.5" font-weight="500" fill="#8a94ad" text-anchor="end">10:12</text><line x1="286" y1="612" x2="864.4" y2="612" stroke="rgba(38,49,78,0.45)" stroke-width="1"/><text x="296.0" y="636.0" font-family="-apple-system,BlinkMacSystemFont,'SF Pro Text','Segoe UI',Roboto,system-ui,sans-serif" font-size="10.5" font-weight="700" fill="#43e08a" text-anchor="start">CHECK-IN</text><text x="423.2" y="636.0" font-family="-apple-system,BlinkMacSystemFont,'SF Pro Text','Segoe UI',Roboto,system-ui,sans-serif" font-size="10.5" font-weight="500" fill="#eef1f7" text-anchor="start">Mood 4 · energy 3</text><text x="854.4" y="636.0" font-family="-apple-system,BlinkMacSystemFont,'SF Pro Text','Segoe UI',Roboto,system-ui,sans-serif" font-size="10.5" font-weight="500" fill="#8a94ad" text-anchor="end">09:40</text><line x1="286" y1="644" x2="864.4" y2="644" stroke="rgba(38,49,78,0.45)" stroke-width="1"/><text x="296.0" y="668.0" font-family="-apple-system,BlinkMacSystemFont,'SF Pro Text','Segoe UI',Roboto,system-ui,sans-serif" font-size="10.5" font-weight="700" fill="#7c5cff" text-anchor="start">GUIDANCE</text><text x="423.2" y="668.0" font-family="-apple-system,BlinkMacSystemFont,'SF Pro Text','Segoe UI',Roboto,system-ui,sans-serif" font-size="10.5" font-weight="500" fill="#eef1f7" text-anchor="start">Suggested a mindful break</text><text x="854.4" y="668.0" font-family="-apple-system,BlinkMacSystemFont,'SF Pro Text','Segoe UI',Roboto,system-ui,sans-serif" font-size="10.5" font-weight="500" fill="#8a94ad" text-anchor="end">08:20</text><line x1="286" y1="676" x2="864.4" y2="676" stroke="rgba(38,49,78,0.45)" stroke-width="1"/><text x="296.0" y="700.0" font-family="-apple-system,BlinkMacSystemFont,'SF Pro Text','Segoe UI',Roboto,system-ui,sans-serif" font-size="10.5" font-weight="700" fill="#f7b731" text-anchor="start">FORESIGHT</text><text x="423.2" y="700.0" font-family="-apple-system,BlinkMacSystemFont,'SF Pro Text','Segoe UI',Roboto,system-ui,sans-serif" font-size="10.5" font-weight="500" fill="#eef1f7" text-anchor="start">Sleep debt building — heads-up</text><text x="854.4" y="700.0" font-family="-apple-system,BlinkMacSystemFont,'SF Pro Text','Segoe UI',Roboto,system-ui,sans-serif" font-size="10.5" font-weight="500" fill="#8a94ad" text-anchor="end">07:05</text><line x1="286" y1="708" x2="864.4" y2="708" stroke="rgba(38,49,78,0.45)" stroke-width="1"/><rect x="902.4" y="514.0" width="325.6" height="254.0" rx="14" fill="url(#gCard)" stroke="#26314e" stroke-width="1"/><text x="920.4" y="541.0" font-family="-apple-system,BlinkMacSystemFont,'SF Pro Text','Segoe UI',Roboto,system-ui,sans-serif" font-size="12.5" font-weight="700" fill="#eef1f7" text-anchor="start">Today</text><rect x="920.4" y="558.0" width="289.6" height="46.0" rx="11" fill="rgba(255,255,255,0.03)" stroke="#26314e" stroke-width="1"/><rect x="930.4" y="564.0" width="34.0" height="34.0" rx="11" fill="rgba(167,139,250,0.16)"/><path d="M947.4 573.64 c4.6000000000000005 0 4.6000000000000005 3.68 4.6000000000000005 7.36 l1.84 1.84 h-12.88 l1.84 -1.84 c0 -3.68 0 -7.36 4.6000000000000005 -7.36 M945.56 586.52 c0 2.7600000000000002 3.68 2.7600000000000002 3.68 0" fill="none" stroke="#a78bfa" stroke-width="1.56" stroke-linecap="round" stroke-linejoin="round"/><text x="974.4" y="579.0" font-family="-apple-system,BlinkMacSystemFont,'SF Pro Text','Segoe UI',Roboto,system-ui,sans-serif" font-size="11.5" font-weight="650" fill="#eef1f7" text-anchor="start">Team meeting</text><text x="974.4" y="593.0" font-family="-apple-system,BlinkMacSystemFont,'SF Pro Text','Segoe UI',Roboto,system-ui,sans-serif" font-size="9.5" font-weight="500" fill="#8a94ad" text-anchor="start">10:30</text><rect x="920.4" y="612.0" width="289.6" height="46.0" rx="11" fill="rgba(255,255,255,0.03)" stroke="#26314e" stroke-width="1"/><rect x="930.4" y="618.0" width="34.0" height="34.0" rx="11" fill="rgba(247,183,49,0.16)"/><path d="M947.4 627.64 c4.6000000000000005 3.68 1.84 5.5200000000000005 1.84 7.36 a3.68 3.68 0 1 1 -7.36 0 c0 -1.84 0.92 -2.7600000000000002 1.84 -3.68 c0 1.84 1.84 1.84 1.84 0 c0 -2.7600000000000002 1.84 -3.68 1.84 -3.68 Z" fill="#f7b731"/><text x="974.4" y="633.0" font-family="-apple-system,BlinkMacSystemFont,'SF Pro Text','Segoe UI',Roboto,system-ui,sans-serif" font-size="11.5" font-weight="650" fill="#eef1f7" text-anchor="start">Gym</text><text x="974.4" y="647.0" font-family="-apple-system,BlinkMacSystemFont,'SF Pro Text','Segoe UI',Roboto,system-ui,sans-serif" font-size="9.5" font-weight="500" fill="#8a94ad" text-anchor="start">6:00 PM</text><rect x="920.4" y="666.0" width="289.6" height="46.0" rx="11" fill="rgba(255,255,255,0.03)" stroke="#26314e" stroke-width="1"/><rect x="930.4" y="672.0" width="34.0" height="34.0" rx="11" fill="rgba(244,114,182,0.16)"/><path d="M947.4 694.52 C939.12 686.24,940.9599999999999 680.72,947.4 685.32 C953.84 680.72,955.68 686.24,947.4 694.52 Z" fill="#f472b6"/><text x="974.4" y="687.0" font-family="-apple-system,BlinkMacSystemFont,'SF Pro Text','Segoe UI',Roboto,system-ui,sans-serif" font-size="11.5" font-weight="650" fill="#eef1f7" text-anchor="start">Call Mom</text><text x="974.4" y="701.0" font-family="-apple-system,BlinkMacSystemFont,'SF Pro Text','Segoe UI',Roboto,system-ui,sans-serif" font-size="9.5" font-weight="500" fill="#8a94ad" text-anchor="start">evening</text></svg>