<svg xmlns="http://www.w3.org/2000/svg" width="1280" height="820" viewBox="0 0 1280 820" role="img" aria-label="Jim Mini — Emergency &amp; Guardian"><defs>
      <linearGradient id="gPage" x1="0" y1="0" x2="0.4" y2="1">
        <stop offset="0" stop-color="#0a1120"/><stop offset="1" stop-color="#070b16"/></linearGradient>
      <linearGradient id="gScr" x1="0" y1="0" x2="0.5" y2="1">
        <stop offset="0" stop-color="#0e1626"/><stop offset="1" stop-color="#0a0f1c"/></linearGradient>
      <linearGradient id="gSide" x1="0" y1="0" x2="0" y2="1">
        <stop offset="0" stop-color="#141d31"/><stop offset="1" stop-color="#0b1120"/></linearGradient>
      <linearGradient id="gCard" x1="0" y1="0" x2="0.4" y2="1">
        <stop offset="0" stop-color="#182238"/><stop offset="1" stop-color="#1f2b45"/></linearGradient>
      <linearGradient id="gBrand" x1="0" y1="0" x2="1" y2="0">
        <stop offset="0" stop-color="#7c5cff"/><stop offset="1" stop-color="#3aa0ff"/></linearGradient>
      <linearGradient id="gEmer" x1="0" y1="0" x2="0" y2="1"><stop offset="0" stop-color="#ff5b52"/><stop offset="1" stop-color="#ff3b30"/></linearGradient>
      <linearGradient id="mV" x1="0" y1="0" x2="1" y2="0"><stop offset="0" stop-color="#7c5cff"/><stop offset="1" stop-color="#3aa0ff"/></linearGradient>
      <linearGradient id="mG" x1="0" y1="0" x2="1" y2="0"><stop offset="0" stop-color="#2fd27a"/><stop offset="1" stop-color="#43e08a"/></linearGradient>
      <linearGradient id="mO" x1="0" y1="0" x2="1" y2="0"><stop offset="0" stop-color="#f7b731"/><stop offset="1" stop-color="#ff7a45"/></linearGradient>
      <radialGradient id="orb" cx="34%" cy="30%" r="75%">
        <stop offset="0" stop-color="#c3b0ff"/><stop offset="42%" stop-color="#7c5cff"/>
        <stop offset="80%" stop-color="#2f6cf0"/><stop offset="100%" stop-color="#14204a"/></radialGradient>
    </defs><rect x="0.0" y="0.0" width="1280.0" height="820.0" rx="0" fill="url(#gPage)"/><rect x="24" y="24" width="1232" height="772" rx="18" fill="url(#gScr)" stroke="#26314e" stroke-width="1"/><rect x="24.0" y="24.0" width="216.0" height="772.0" rx="18" fill="url(#gSide)"/><rect x="222.0" y="24.0" width="18.0" height="772.0" rx="0" fill="url(#gScr)"/><line x1="240" y1="24" x2="240" y2="796" stroke="#26314e" stroke-width="1"/><line x1="240" y1="78" x2="1256" y2="78" stroke="#26314e" stroke-width="1"/><circle cx="46" cy="51" r="5.5" fill="#ff5f57" opacity="0.9"/><circle cx="64" cy="51" r="5.5" fill="#febc2e" opacity="0.9"/><circle cx="82" cy="51" r="5.5" fill="#28c840" opacity="0.9"/><circle cx="120" cy="51" r="11" fill="url(#orb)"/><path d="M120 47.0 l3.5 1.5 v2.5 c0 2.5 -1.5 3.5 -3.5 4.5 c-2.0 -1.0 -3.5 -2.0 -3.5 -4.5 v-2.5 Z" fill="none" stroke="rgba(255,255,255,0.95)" stroke-width="0.85" stroke-linecap="round" stroke-linejoin="round"/><text x="138.0" y="49.0" font-family="-apple-system,BlinkMacSystemFont,'SF Pro Text','Segoe UI',Roboto,system-ui,sans-serif" font-size="14" font-weight="800" fill="#eef1f7" text-anchor="start" letter-spacing="0.5">JIM</text><text x="138.0" y="63.0" font-family="-apple-system,BlinkMacSystemFont,'SF Pro Text','Segoe UI',Roboto,system-ui,sans-serif" font-size="8.5" font-weight="500" fill="#626d88" text-anchor="start">Guardian guidance</text><text x="268.0" y="57.0" font-family="-apple-system,BlinkMacSystemFont,'SF Pro Text','Segoe UI',Roboto,system-ui,sans-serif" font-size="15" font-weight="700" fill="#eef1f7" text-anchor="start" letter-spacing="-0.2">Emergency &amp; Guardian</text><rect x="1220.96" y="43.8" width="2.08" height="3.2" rx="1" transform="rotate(0 1222 51)" fill="#8a94ad"/><rect x="1220.96" y="43.8" width="2.08" height="3.2" rx="1" transform="rotate(45 1222 51)" fill="#8a94ad"/><rect x="1220.96" y="43.8" width="2.08" height="3.2" rx="1" transform="rotate(90 1222 51)" fill="#8a94ad"/><rect x="1220.96" y="43.8" width="2.08" height="3.2" rx="1" transform="rotate(135 1222 51)" fill="#8a94ad"/><rect x="1220.96" y="43.8" width="2.08" height="3.2" rx="1" transform="rotate(180 1222 51)" fill="#8a94ad"/><rect x="1220.96" y="43.8" width="2.08" height="3.2" rx="1" transform="rotate(225 1222 51)" fill="#8a94ad"/><rect x="1220.96" y="43.8" width="2.08" height="3.2" rx="1" transform="rotate(270 1222 51)" fill="#8a94ad"/><rect x="1220.96" y="43.8" width="2.08" height="3.2" rx="1" transform="rotate(315 1222 51)" fill="#8a94ad"/><circle cx="1222" cy="51" r="3.6799999999999997" fill="none" stroke="#8a94ad" stroke-width="1.36" stroke-linecap="round" stroke-linejoin="round"/><rect x="1118.0" y="46.0" width="80.0" height="16.0" rx="8" fill="rgba(67,224,138,0.14)"/><circle cx="1127.0" cy="54" r="3" fill="#43e08a"/><text x="1134.0" y="58.0" font-family="-apple-system,BlinkMacSystemFont,'SF Pro Text','Segoe UI',Roboto,system-ui,sans-serif" font-size="9" font-weight="700" fill="#43e08a" text-anchor="start" letter-spacing="0.5">Guardian on</text><circle cx="1106" cy="51" r="13" fill="url(#orb)"/><circle cx="1106" cy="48.6" r="2.04" fill="none" stroke="rgba(255,255,255,0.9)" stroke-width="1.02" stroke-linecap="round" stroke-linejoin="round"/><path d="M1102.4 55.2 c0 -3.5999999999999996 7.199999999999999 -3.5999999999999996 7.199999999999999 0" fill="none" stroke="rgba(255,255,255,0.9)" stroke-width="1.02" stroke-linecap="round" stroke-linejoin="round"/><circle cx="58" cy="111" r="5.3999999999999995" fill="none" stroke="#8a94ad" stroke-width="1.22" stroke-linecap="round" stroke-linejoin="round"/><circle cx="58" cy="111" r="2.52" fill="none" stroke="#8a94ad" stroke-width="1.22" stroke-linecap="round" stroke-linejoin="round"/><circle cx="58" cy="111" r="0.648" fill="#8a94ad"/><text x="78.0" y="116.0" font-family="-apple-system,BlinkMacSystemFont,'SF Pro Text','Segoe UI',Roboto,system-ui,sans-serif" font-size="12.5" font-weight="500" fill="#8a94ad" text-anchor="start">Overview</text><path d="M58 161.32 C51.52 154.84,52.96 150.52,58 154.12 C63.04 150.52,64.48 154.84,58 161.32 Z" fill="#8a94ad"/><text x="78.0" y="162.0" font-family="-apple-system,BlinkMacSystemFont,'SF Pro Text','Segoe UI',Roboto,system-ui,sans-serif" font-size="12.5" font-weight="500" fill="#8a94ad" text-anchor="start">Monitoring</text><rect x="52.96" y="203.72" width="2.304" height="3.5999999999999996" rx="1" fill="#8a94ad"/><rect x="56.56" y="200.84" width="2.304" height="6.4799999999999995" rx="1" fill="#8a94ad"/><rect x="60.16" y="204.44" width="2.304" height="2.88" rx="1" fill="#8a94ad"/><rect x="63.76" y="199.4" width="2.304" height="7.92" rx="1" fill="#8a94ad"/><text x="78.0" y="208.0" font-family="-apple-system,BlinkMacSystemFont,'SF Pro Text','Segoe UI',Roboto,system-ui,sans-serif" font-size="12.5" font-weight="500" fill="#8a94ad" text-anchor="start">Health</text><rect x="36.0" y="230.0" width="192.0" height="38.0" rx="10" fill="rgba(67,224,138,0.16)"/><rect x="36.0" y="230.0" width="3.0" height="38.0" rx="2" fill="#43e08a"/><path d="M58 243.96 v10.08 M52.96 249 h10.08" fill="none" stroke="#43e08a" stroke-width="2.16" stroke-linecap="round"/><text x="78.0" y="254.0" font-family="-apple-system,BlinkMacSystemFont,'SF Pro Text','Segoe UI',Roboto,system-ui,sans-serif" font-size="12.5" font-weight="650" fill="#eef1f7" text-anchor="start">Emergency</text><circle cx="55.84" cy="295" r="3.5999999999999996" fill="none" stroke="#8a94ad" stroke-width="1.22" stroke-linecap="round" stroke-linejoin="round"/><circle cx="60.16" cy="295" r="3.5999999999999996" fill="none" stroke="#8a94ad" stroke-width="1.22" stroke-linecap="round" stroke-linejoin="round"/><text x="78.0" y="300.0" font-family="-apple-system,BlinkMacSystemFont,'SF Pro Text','Segoe UI',Roboto,system-ui,sans-serif" font-size="12.5" font-weight="500" fill="#8a94ad" text-anchor="start">Coach</text><rect x="54.4" y="337.4" width="7.199999999999999" height="7.199999999999999" rx="2.5" fill="none" stroke="#8a94ad" stroke-width="1.22" stroke-linecap="round" stroke-linejoin="round"/><path d="M56.2 337.4 v-2.16 h3.5999999999999996 v2.16 M56.2 344.6 v2.16 h3.5999999999999996 v-2.16" fill="none" stroke="#8a94ad" stroke-width="1.22" stroke-linecap="round" stroke-linejoin="round"/><text x="78.0" y="346.0" font-family="-apple-system,BlinkMacSystemFont,'SF Pro Text','Segoe UI',Roboto,system-ui,sans-serif" font-size="12.5" font-weight="500" fill="#8a94ad" text-anchor="start">Devices</text><path d="M58 381.24 l5.04 2.16 v3.5999999999999996 c0 3.5999999999999996 -2.16 5.04 -5.04 6.4799999999999995 c-2.88 -1.44 -5.04 -2.88 -5.04 -6.4799999999999995 v-3.5999999999999996 Z" fill="none" stroke="#8a94ad" stroke-width="1.22" stroke-linecap="round" stroke-linejoin="round"/><text x="78.0" y="392.0" font-family="-apple-system,BlinkMacSystemFont,'SF Pro Text','Segoe UI',Roboto,system-ui,sans-serif" font-size="12.5" font-weight="500" fill="#8a94ad" text-anchor="start">Privacy</text><line x1="40" y1="726" x2="224" y2="726" stroke="#26314e" stroke-width="1"/><rect x="40.0" y="740.0" width="184.0" height="40.0" rx="10" fill="rgba(255,255,255,0.04)" stroke="#26314e" stroke-width="1"/><path d="M58 754.72 l4.62 1.98 v3.3000000000000003 c0 3.3000000000000003 -1.98 4.62 -4.62 5.94 c-2.64 -1.32 -4.62 -2.64 -4.62 -5.94 v-3.3000000000000003 Z" fill="none" stroke="#43e08a" stroke-width="1.12" stroke-linecap="round" stroke-linejoin="round"/><text x="76.0" y="756.0" font-family="-apple-system,BlinkMacSystemFont,'SF Pro Text','Segoe UI',Roboto,system-ui,sans-serif" font-size="10.5" font-weight="650" fill="#eef1f7" text-anchor="start">Watching</text><text x="76.0" y="769.0" font-family="-apple-system,BlinkMacSystemFont,'SF Pro Text','Segoe UI',Roboto,system-ui,sans-serif" font-size="8.5" font-weight="500" fill="#626d88" text-anchor="start">rules are transparent</text><rect x="268.0" y="106.0" width="518.4" height="662.0" rx="14" fill="url(#gCard)" stroke="#26314e" stroke-width="1"/><text x="286.0" y="133.0" font-family="-apple-system,BlinkMacSystemFont,'SF Pro Text','Segoe UI',Roboto,system-ui,sans-serif" font-size="12.5" font-weight="700" fill="#eef1f7" text-anchor="start">Emergency response</text><text x="768.4" y="133.0" font-family="-apple-system,BlinkMacSystemFont,'SF Pro Text','Segoe UI',Roboto,system-ui,sans-serif" font-size="10" font-weight="600" fill="#626d88" text-anchor="end">one coordinated action</text><rect x="292.0" y="154.0" width="470.4" height="46.0" rx="13" fill="url(#gEmer)"/><text x="527.2" y="181.5" font-family="-apple-system,BlinkMacSystemFont,'SF Pro Text','Segoe UI',Roboto,system-ui,sans-serif" font-size="13" font-weight="700" fill="#fff" text-anchor="middle">Call 911</text><rect x="292.0" y="218.0" width="470.4" height="52.0" rx="12" fill="rgba(255,255,255,0.03)" stroke="#26314e" stroke-width="1"/><circle cx="318" cy="244" r="12" fill="#43e08a"/><text x="318.0" y="248.0" font-family="-apple-system,BlinkMacSystemFont,'SF Pro Text','Segoe UI',Roboto,system-ui,sans-serif" font-size="13" font-weight="900" fill="#04160c" text-anchor="middle">✓</text><text x="340.0" y="240.0" font-family="-apple-system,BlinkMacSystemFont,'SF Pro Text','Segoe UI',Roboto,system-ui,sans-serif" font-size="12" font-weight="650" fill="#eef1f7" text-anchor="start">Location shared</text><text x="340.0" y="256.0" font-family="-apple-system,BlinkMacSystemFont,'SF Pro Text','Segoe UI',Roboto,system-ui,sans-serif" font-size="10" font-weight="500" fill="#8a94ad" text-anchor="start">with Maria &amp; responders</text><rect x="292.0" y="278.0" width="470.4" height="52.0" rx="12" fill="rgba(255,255,255,0.03)" stroke="#26314e" stroke-width="1"/><circle cx="318" cy="304" r="12" fill="#43e08a"/><text x="318.0" y="308.0" font-family="-apple-system,BlinkMacSystemFont,'SF Pro Text','Segoe UI',Roboto,system-ui,sans-serif" font-size="13" font-weight="900" fill="#04160c" text-anchor="middle">✓</text><text x="340.0" y="300.0" font-family="-apple-system,BlinkMacSystemFont,'SF Pro Text','Segoe UI',Roboto,system-ui,sans-serif" font-size="12" font-weight="650" fill="#eef1f7" text-anchor="start">Family contacted</text><text x="340.0" y="316.0" font-family="-apple-system,BlinkMacSystemFont,'SF Pro Text','Segoe UI',Roboto,system-ui,sans-serif" font-size="10" font-weight="500" fill="#8a94ad" text-anchor="start">Maria Bianchi</text><rect x="292.0" y="338.0" width="470.4" height="52.0" rx="12" fill="rgba(255,255,255,0.03)" stroke="#26314e" stroke-width="1"/><circle cx="318" cy="364" r="12" fill="#43e08a"/><text x="318.0" y="368.0" font-family="-apple-system,BlinkMacSystemFont,'SF Pro Text','Segoe UI',Roboto,system-ui,sans-serif" font-size="13" font-weight="900" fill="#04160c" text-anchor="middle">✓</text><text x="340.0" y="360.0" font-family="-apple-system,BlinkMacSystemFont,'SF Pro Text','Segoe UI',Roboto,system-ui,sans-serif" font-size="12" font-weight="650" fill="#eef1f7" text-anchor="start">Medical ID surfaced</text><text x="340.0" y="376.0" font-family="-apple-system,BlinkMacSystemFont,'SF Pro Text','Segoe UI',Roboto,system-ui,sans-serif" font-size="10" font-weight="500" fill="#8a94ad" text-anchor="start">for first responders</text><rect x="292.0" y="398.0" width="470.4" height="52.0" rx="12" fill="rgba(255,255,255,0.03)" stroke="#26314e" stroke-width="1"/><circle cx="318" cy="424" r="12" fill="#43e08a"/><text x="318.0" y="428.0" font-family="-apple-system,BlinkMacSystemFont,'SF Pro Text','Segoe UI',Roboto,system-ui,sans-serif" font-size="13" font-weight="900" fill="#04160c" text-anchor="middle">✓</text><text x="340.0" y="420.0" font-family="-apple-system,BlinkMacSystemFont,'SF Pro Text','Segoe UI',Roboto,system-ui,sans-serif" font-size="12" font-weight="650" fill="#eef1f7" text-anchor="start">AI first-aid guidance</text><text x="340.0" y="436.0" font-family="-apple-system,BlinkMacSystemFont,'SF Pro Text','Segoe UI',Roboto,system-ui,sans-serif" font-size="10" font-weight="500" fill="#8a94ad" text-anchor="start">step-by-step, hands-free</text><rect x="806.4" y="106.0" width="421.6" height="210.0" rx="14" fill="url(#gCard)" stroke="#26314e" stroke-width="1"/><text x="824.4" y="133.0" font-family="-apple-system,BlinkMacSystemFont,'SF Pro Text','Segoe UI',Roboto,system-ui,sans-serif" font-size="12.5" font-weight="700" fill="#eef1f7" text-anchor="start">Medical ID</text><text x="1210.0" y="133.0" font-family="-apple-system,BlinkMacSystemFont,'SF Pro Text','Segoe UI',Roboto,system-ui,sans-serif" font-size="10" font-weight="600" fill="#626d88" text-anchor="end">scannable when locked</text><rect x="824.4" y="152.0" width="385.6" height="46.0" rx="11" fill="rgba(255,255,255,0.03)" stroke="#26314e" stroke-width="1"/><rect x="824.4" y="206.0" width="385.6" height="46.0" rx="11" fill="rgba(255,255,255,0.03)" stroke="#26314e" stroke-width="1"/><rect x="824.4" y="260.0" width="385.6" height="46.0" rx="11" fill="rgba(255,255,255,0.03)" stroke="#26314e" stroke-width="1"/><rect x="834.4" y="158.0" width="34.0" height="34.0" rx="11" fill="rgba(255,77,94,0.16)"/><path d="M851.4000000000001 168.56 v12.88 M844.96 175 h12.88" fill="none" stroke="#ff4d5e" stroke-width="2.76" stroke-linecap="round"/><text x="878.4" y="174.0" font-family="-apple-system,BlinkMacSystemFont,'SF Pro Text','Segoe UI',Roboto,system-ui,sans-serif" font-size="11.5" font-weight="650" fill="#eef1f7" text-anchor="start">David Bianchi · 41</text><text x="878.4" y="189.0" font-family="-apple-system,BlinkMacSystemFont,'SF Pro Text','Segoe UI',Roboto,system-ui,sans-serif" font-size="9.5" font-weight="500" fill="#8a94ad" text-anchor="start">Known: acute anxiety / panic</text><rect x="834.4" y="212.0" width="34.0" height="34.0" rx="11" fill="rgba(255,77,94,0.16)"/><path d="M851.4000000000001 234.52 C843.1200000000001 226.24,844.96 220.72,851.4000000000001 225.32 C857.8400000000001 220.72,859.6800000000001 226.24,851.4000000000001 234.52 Z" fill="#ff4d5e"/><text x="878.4" y="228.0" font-family="-apple-system,BlinkMacSystemFont,'SF Pro Text','Segoe UI',Roboto,system-ui,sans-serif" font-size="11.5" font-weight="650" fill="#eef1f7" text-anchor="start">Resting HR 60 bpm</text><text x="878.4" y="243.0" font-family="-apple-system,BlinkMacSystemFont,'SF Pro Text','Segoe UI',Roboto,system-ui,sans-serif" font-size="9.5" font-weight="500" fill="#8a94ad" text-anchor="start">learned baseline</text><rect x="834.4" y="266.0" width="34.0" height="34.0" rx="11" fill="rgba(255,77,94,0.16)"/><path d="M845.8800000000001 277.48 c0 8.280000000000001 2.7600000000000002 11.040000000000001 11.040000000000001 11.040000000000001 l0.0 -3.68 l-3.68 -1.84 l-1.84 1.84 c-2.7600000000000002 -0.92 -3.68 -1.84 -3.68 -3.68 l1.84 -1.84 l-1.84 -3.68 Z" fill="#ff4d5e"/><text x="878.4" y="282.0" font-family="-apple-system,BlinkMacSystemFont,'SF Pro Text','Segoe UI',Roboto,system-ui,sans-serif" font-size="11.5" font-weight="650" fill="#eef1f7" text-anchor="start">Maria Bianchi</text><text x="878.4" y="297.0" font-family="-apple-system,BlinkMacSystemFont,'SF Pro Text','Segoe UI',Roboto,system-ui,sans-serif" font-size="9.5" font-weight="500" fill="#8a94ad" text-anchor="start">emergency contact</text><rect x="806.4" y="338.0" width="421.6" height="430.0" rx="14" fill="url(#gCard)" stroke="#26314e" stroke-width="1"/><text x="824.4" y="365.0" font-family="-apple-system,BlinkMacSystemFont,'SF Pro Text','Segoe UI',Roboto,system-ui,sans-serif" font-size="12.5" font-weight="700" fill="#eef1f7" text-anchor="start">Providers</text><text x="1210.0" y="365.0" font-family="-apple-system,BlinkMacSystemFont,'SF Pro Text','Segoe UI',Roboto,system-ui,sans-serif" font-size="10" font-weight="600" fill="#626d88" text-anchor="end">when AI reaches its limit</text><rect x="824.4" y="384.0" width="385.6" height="52.0" rx="11" fill="rgba(255,255,255,0.03)" stroke="#26314e" stroke-width="1"/><rect x="834.4" y="393.0" width="34.0" height="34.0" rx="11" fill="rgba(255,77,94,0.16)"/><path d="M851.4000000000001 403.56 v12.88 M844.96 410 h12.88" fill="none" stroke="#ff4d5e" stroke-width="2.76" stroke-linecap="round"/><text x="878.4" y="407.0" font-family="-apple-system,BlinkMacSystemFont,'SF Pro Text','Segoe UI',Roboto,system-ui,sans-serif" font-size="11.5" font-weight="650" fill="#eef1f7" text-anchor="start">Bay Area Cardiology</text><text x="878.4" y="423.0" font-family="-apple-system,BlinkMacSystemFont,'SF Pro Text','Segoe UI',Roboto,system-ui,sans-serif" font-size="9.5" font-weight="500" fill="#8a94ad" text-anchor="start">medical · 0.8 mi</text><rect x="1158.0" y="401.0" width="38.0" height="16.0" rx="8" fill="rgba(67,224,138,0.14)"/><circle cx="1167.0" cy="409" r="3" fill="#43e08a"/><text x="1174.0" y="413.0" font-family="-apple-system,BlinkMacSystemFont,'SF Pro Text','Segoe UI',Roboto,system-ui,sans-serif" font-size="9" font-weight="700" fill="#43e08a" text-anchor="start" letter-spacing="0.5">OPEN</text><rect x="824.4" y="444.0" width="385.6" height="52.0" rx="11" fill="rgba(255,255,255,0.03)" stroke="#26314e" stroke-width="1"/><rect x="834.4" y="453.0" width="34.0" height="34.0" rx="11" fill="rgba(167,139,250,0.16)"/><circle cx="848.6400000000001" cy="470" r="4.6000000000000005" fill="none" stroke="#a78bfa" stroke-width="1.56" stroke-linecap="round" stroke-linejoin="round"/><circle cx="854.1600000000001" cy="470" r="4.6000000000000005" fill="none" stroke="#a78bfa" stroke-width="1.56" stroke-linecap="round" stroke-linejoin="round"/><text x="878.4" y="467.0" font-family="-apple-system,BlinkMacSystemFont,'SF Pro Text','Segoe UI',Roboto,system-ui,sans-serif" font-size="11.5" font-weight="650" fill="#eef1f7" text-anchor="start">Dr. Rivera, LCSW</text><text x="878.4" y="483.0" font-family="-apple-system,BlinkMacSystemFont,'SF Pro Text','Segoe UI',Roboto,system-ui,sans-serif" font-size="9.5" font-weight="500" fill="#8a94ad" text-anchor="start">mental health · telehealth</text><rect x="824.4" y="504.0" width="385.6" height="52.0" rx="11" fill="rgba(255,255,255,0.03)" stroke="#26314e" stroke-width="1"/><rect x="834.4" y="513.0" width="34.0" height="34.0" rx="11" fill="rgba(56,189,248,0.16)"/><path d="M849.5600000000001 531.84 l-2.7600000000000002 2.7600000000000002 a2.7600000000000002 2.7600000000000002 0 0 1 -3.68 -3.68 l2.7600000000000002 -2.7600000000000002 m5.5200000000000005 -1.84 l2.7600000000000002 -2.7600000000000002 a2.7600000000000002 2.7600000000000002 0 0 1 3.68 3.68 l-2.7600000000000002 2.7600000000000002 M848.6400000000001 532.76 l5.5200000000000005 -5.5200000000000005" fill="none" stroke="#38bdf8" stroke-width="1.56" stroke-linecap="round" stroke-linejoin="round"/><text x="878.4" y="527.0" font-family="-apple-system,BlinkMacSystemFont,'SF Pro Text','Segoe UI',Roboto,system-ui,sans-serif" font-size="11.5" font-weight="650" fill="#eef1f7" text-anchor="start">Consented handoff</text><text x="878.4" y="543.0" font-family="-apple-system,BlinkMacSystemFont,'SF Pro Text','Segoe UI',Roboto,system-ui,sans-serif" font-size="9.5" font-weight="500" fill="#8a94ad" text-anchor="start">session summary, revocable</text></svg>