<svg xmlns="http://www.w3.org/2000/svg" width="1280" height="820" viewBox="0 0 1280 820" role="img" aria-label="Jim Mini — Privacy &amp; Data"><defs>
      <linearGradient id="gPage" x1="0" y1="0" x2="0.4" y2="1">
        <stop offset="0" stop-color="#0a1120"/><stop offset="1" stop-color="#070b16"/></linearGradient>
      <linearGradient id="gScr" x1="0" y1="0" x2="0.5" y2="1">
        <stop offset="0" stop-color="#0e1626"/><stop offset="1" stop-color="#0a0f1c"/></linearGradient>
      <linearGradient id="gSide" x1="0" y1="0" x2="0" y2="1">
        <stop offset="0" stop-color="#141d31"/><stop offset="1" stop-color="#0b1120"/></linearGradient>
      <linearGradient id="gCard" x1="0" y1="0" x2="0.4" y2="1">
        <stop offset="0" stop-color="#182238"/><stop offset="1" stop-color="#1f2b45"/></linearGradient>
      <linearGradient id="gBrand" x1="0" y1="0" x2="1" y2="0">
        <stop offset="0" stop-color="#7c5cff"/><stop offset="1" stop-color="#3aa0ff"/></linearGradient>
      <linearGradient id="gEmer" x1="0" y1="0" x2="0" y2="1"><stop offset="0" stop-color="#ff5b52"/><stop offset="1" stop-color="#ff3b30"/></linearGradient>
      <linearGradient id="mV" x1="0" y1="0" x2="1" y2="0"><stop offset="0" stop-color="#7c5cff"/><stop offset="1" stop-color="#3aa0ff"/></linearGradient>
      <linearGradient id="mG" x1="0" y1="0" x2="1" y2="0"><stop offset="0" stop-color="#2fd27a"/><stop offset="1" stop-color="#43e08a"/></linearGradient>
      <linearGradient id="mO" x1="0" y1="0" x2="1" y2="0"><stop offset="0" stop-color="#f7b731"/><stop offset="1" stop-color="#ff7a45"/></linearGradient>
      <radialGradient id="orb" cx="34%" cy="30%" r="75%">
        <stop offset="0" stop-color="#c3b0ff"/><stop offset="42%" stop-color="#7c5cff"/>
        <stop offset="80%" stop-color="#2f6cf0"/><stop offset="100%" stop-color="#14204a"/></radialGradient>
    </defs><rect x="0.0" y="0.0" width="1280.0" height="820.0" rx="0" fill="url(#gPage)"/><rect x="24" y="24" width="1232" height="772" rx="18" fill="url(#gScr)" stroke="#26314e" stroke-width="1"/><rect x="24.0" y="24.0" width="216.0" height="772.0" rx="18" fill="url(#gSide)"/><rect x="222.0" y="24.0" width="18.0" height="772.0" rx="0" fill="url(#gScr)"/><line x1="240" y1="24" x2="240" y2="796" stroke="#26314e" stroke-width="1"/><line x1="240" y1="78" x2="1256" y2="78" stroke="#26314e" stroke-width="1"/><circle cx="46" cy="51" r="5.5" fill="#ff5f57" opacity="0.9"/><circle cx="64" cy="51" r="5.5" fill="#febc2e" opacity="0.9"/><circle cx="82" cy="51" r="5.5" fill="#28c840" opacity="0.9"/><circle cx="120" cy="51" r="11" fill="url(#orb)"/><path d="M120 47.0 l3.5 1.5 v2.5 c0 2.5 -1.5 3.5 -3.5 4.5 c-2.0 -1.0 -3.5 -2.0 -3.5 -4.5 v-2.5 Z" fill="none" stroke="rgba(255,255,255,0.95)" stroke-width="0.85" stroke-linecap="round" stroke-linejoin="round"/><text x="138.0" y="49.0" font-family="-apple-system,BlinkMacSystemFont,'SF Pro Text','Segoe UI',Roboto,system-ui,sans-serif" font-size="14" font-weight="800" fill="#eef1f7" text-anchor="start" letter-spacing="0.5">JIM</text><text x="138.0" y="63.0" font-family="-apple-system,BlinkMacSystemFont,'SF Pro Text','Segoe UI',Roboto,system-ui,sans-serif" font-size="8.5" font-weight="500" fill="#626d88" text-anchor="start">Guardian guidance</text><text x="268.0" y="57.0" font-family="-apple-system,BlinkMacSystemFont,'SF Pro Text','Segoe UI',Roboto,system-ui,sans-serif" font-size="15" font-weight="700" fill="#eef1f7" text-anchor="start" letter-spacing="-0.2">Privacy &amp; Data</text><rect x="1220.96" y="43.8" width="2.08" height="3.2" rx="1" transform="rotate(0 1222 51)" fill="#8a94ad"/><rect x="1220.96" y="43.8" width="2.08" height="3.2" rx="1" transform="rotate(45 1222 51)" fill="#8a94ad"/><rect x="1220.96" y="43.8" width="2.08" height="3.2" rx="1" transform="rotate(90 1222 51)" fill="#8a94ad"/><rect x="1220.96" y="43.8" width="2.08" height="3.2" rx="1" transform="rotate(135 1222 51)" fill="#8a94ad"/><rect x="1220.96" y="43.8" width="2.08" height="3.2" rx="1" transform="rotate(180 1222 51)" fill="#8a94ad"/><rect x="1220.96" y="43.8" width="2.08" height="3.2" rx="1" transform="rotate(225 1222 51)" fill="#8a94ad"/><rect x="1220.96" y="43.8" width="2.08" height="3.2" rx="1" transform="rotate(270 1222 51)" fill="#8a94ad"/><rect x="1220.96" y="43.8" width="2.08" height="3.2" rx="1" transform="rotate(315 1222 51)" fill="#8a94ad"/><circle cx="1222" cy="51" r="3.6799999999999997" fill="none" stroke="#8a94ad" stroke-width="1.36" stroke-linecap="round" stroke-linejoin="round"/><rect x="1118.0" y="46.0" width="80.0" height="16.0" rx="8" fill="rgba(67,224,138,0.14)"/><circle cx="1127.0" cy="54" r="3" fill="#43e08a"/><text x="1134.0" y="58.0" font-family="-apple-system,BlinkMacSystemFont,'SF Pro Text','Segoe UI',Roboto,system-ui,sans-serif" font-size="9" font-weight="700" fill="#43e08a" text-anchor="start" letter-spacing="0.5">Guardian on</text><circle cx="1106" cy="51" r="13" fill="url(#orb)"/><circle cx="1106" cy="48.6" r="2.04" fill="none" stroke="rgba(255,255,255,0.9)" stroke-width="1.02" stroke-linecap="round" stroke-linejoin="round"/><path d="M1102.4 55.2 c0 -3.5999999999999996 7.199999999999999 -3.5999999999999996 7.199999999999999 0" fill="none" stroke="rgba(255,255,255,0.9)" stroke-width="1.02" stroke-linecap="round" stroke-linejoin="round"/><circle cx="58" cy="111" r="5.3999999999999995" fill="none" stroke="#8a94ad" stroke-width="1.22" stroke-linecap="round" stroke-linejoin="round"/><circle cx="58" cy="111" r="2.52" fill="none" stroke="#8a94ad" stroke-width="1.22" stroke-linecap="round" stroke-linejoin="round"/><circle cx="58" cy="111" r="0.648" fill="#8a94ad"/><text x="78.0" y="116.0" font-family="-apple-system,BlinkMacSystemFont,'SF Pro Text','Segoe UI',Roboto,system-ui,sans-serif" font-size="12.5" font-weight="500" fill="#8a94ad" text-anchor="start">Overview</text><path d="M58 161.32 C51.52 154.84,52.96 150.52,58 154.12 C63.04 150.52,64.48 154.84,58 161.32 Z" fill="#8a94ad"/><text x="78.0" y="162.0" font-family="-apple-system,BlinkMacSystemFont,'SF Pro Text','Segoe UI',Roboto,system-ui,sans-serif" font-size="12.5" font-weight="500" fill="#8a94ad" text-anchor="start">Monitoring</text><rect x="52.96" y="203.72" width="2.304" height="3.5999999999999996" rx="1" fill="#8a94ad"/><rect x="56.56" y="200.84" width="2.304" height="6.4799999999999995" rx="1" fill="#8a94ad"/><rect x="60.16" y="204.44" width="2.304" height="2.88" rx="1" fill="#8a94ad"/><rect x="63.76" y="199.4" width="2.304" height="7.92" rx="1" fill="#8a94ad"/><text x="78.0" y="208.0" font-family="-apple-system,BlinkMacSystemFont,'SF Pro Text','Segoe UI',Roboto,system-ui,sans-serif" font-size="12.5" font-weight="500" fill="#8a94ad" text-anchor="start">Health</text><path d="M58 243.96 v10.08 M52.96 249 h10.08" fill="none" stroke="#8a94ad" stroke-width="2.16" stroke-linecap="round"/><text x="78.0" y="254.0" font-family="-apple-system,BlinkMacSystemFont,'SF Pro Text','Segoe UI',Roboto,system-ui,sans-serif" font-size="12.5" font-weight="500" fill="#8a94ad" text-anchor="start">Emergency</text><circle cx="55.84" cy="295" r="3.5999999999999996" fill="none" stroke="#8a94ad" stroke-width="1.22" stroke-linecap="round" stroke-linejoin="round"/><circle cx="60.16" cy="295" r="3.5999999999999996" fill="none" stroke="#8a94ad" stroke-width="1.22" stroke-linecap="round" stroke-linejoin="round"/><text x="78.0" y="300.0" font-family="-apple-system,BlinkMacSystemFont,'SF Pro Text','Segoe UI',Roboto,system-ui,sans-serif" font-size="12.5" font-weight="500" fill="#8a94ad" text-anchor="start">Coach</text><rect x="54.4" y="337.4" width="7.199999999999999" height="7.199999999999999" rx="2.5" fill="none" stroke="#8a94ad" stroke-width="1.22" stroke-linecap="round" stroke-linejoin="round"/><path d="M56.2 337.4 v-2.16 h3.5999999999999996 v2.16 M56.2 344.6 v2.16 h3.5999999999999996 v-2.16" fill="none" stroke="#8a94ad" stroke-width="1.22" stroke-linecap="round" stroke-linejoin="round"/><text x="78.0" y="346.0" font-family="-apple-system,BlinkMacSystemFont,'SF Pro Text','Segoe UI',Roboto,system-ui,sans-serif" font-size="12.5" font-weight="500" fill="#8a94ad" text-anchor="start">Devices</text><rect x="36.0" y="368.0" width="192.0" height="38.0" rx="10" fill="rgba(67,224,138,0.16)"/><rect x="36.0" y="368.0" width="3.0" height="38.0" rx="2" fill="#43e08a"/><path d="M58 381.24 l5.04 2.16 v3.5999999999999996 c0 3.5999999999999996 -2.16 5.04 -5.04 6.4799999999999995 c-2.88 -1.44 -5.04 -2.88 -5.04 -6.4799999999999995 v-3.5999999999999996 Z" fill="none" stroke="#43e08a" stroke-width="1.22" stroke-linecap="round" stroke-linejoin="round"/><text x="78.0" y="392.0" font-family="-apple-system,BlinkMacSystemFont,'SF Pro Text','Segoe UI',Roboto,system-ui,sans-serif" font-size="12.5" font-weight="650" fill="#eef1f7" text-anchor="start">Privacy</text><line x1="40" y1="726" x2="224" y2="726" stroke="#26314e" stroke-width="1"/><rect x="40.0" y="740.0" width="184.0" height="40.0" rx="10" fill="rgba(255,255,255,0.04)" stroke="#26314e" stroke-width="1"/><path d="M58 754.72 l4.62 1.98 v3.3000000000000003 c0 3.3000000000000003 -1.98 4.62 -4.62 5.94 c-2.64 -1.32 -4.62 -2.64 -4.62 -5.94 v-3.3000000000000003 Z" fill="none" stroke="#43e08a" stroke-width="1.12" stroke-linecap="round" stroke-linejoin="round"/><text x="76.0" y="756.0" font-family="-apple-system,BlinkMacSystemFont,'SF Pro Text','Segoe UI',Roboto,system-ui,sans-serif" font-size="10.5" font-weight="650" fill="#eef1f7" text-anchor="start">Watching</text><text x="76.0" y="769.0" font-family="-apple-system,BlinkMacSystemFont,'SF Pro Text','Segoe UI',Roboto,system-ui,sans-serif" font-size="8.5" font-weight="500" fill="#626d88" text-anchor="start">rules are transparent</text><rect x="268.0" y="106.0" width="470.0" height="662.0" rx="14" fill="url(#gCard)" stroke="#26314e" stroke-width="1"/><text x="286.0" y="133.0" font-family="-apple-system,BlinkMacSystemFont,'SF Pro Text','Segoe UI',Roboto,system-ui,sans-serif" font-size="12.5" font-weight="700" fill="#eef1f7" text-anchor="start">Connected sources</text><text x="720.0" y="133.0" font-family="-apple-system,BlinkMacSystemFont,'SF Pro Text','Segoe UI',Roboto,system-ui,sans-serif" font-size="10" font-weight="600" fill="#626d88" text-anchor="end">AI only sees what you allow</text><rect x="288.0" y="152.0" width="430.0" height="48.0" rx="11" fill="rgba(255,255,255,0.03)" stroke="#26314e" stroke-width="1"/><rect x="298.0" y="159.0" width="34.0" height="34.0" rx="11" fill="rgba(67,224,138,0.16)"/><rect x="310.4" y="171.4" width="9.200000000000001" height="9.200000000000001" rx="2.5" fill="none" stroke="#43e08a" stroke-width="1.56" stroke-linecap="round" stroke-linejoin="round"/><path d="M312.7 171.4 v-2.7600000000000002 h4.6000000000000005 v2.7600000000000002 M312.7 180.6 v2.7600000000000002 h4.6000000000000005 v-2.7600000000000002" fill="none" stroke="#43e08a" stroke-width="1.56" stroke-linecap="round" stroke-linejoin="round"/><text x="342.0" y="175.0" font-family="-apple-system,BlinkMacSystemFont,'SF Pro Text','Segoe UI',Roboto,system-ui,sans-serif" font-size="11.5" font-weight="650" fill="#eef1f7" text-anchor="start">Wearable</text><text x="342.0" y="190.0" font-family="-apple-system,BlinkMacSystemFont,'SF Pro Text','Segoe UI',Roboto,system-ui,sans-serif" font-size="9.5" font-weight="500" fill="#8a94ad" text-anchor="start">heart rate, sleep</text><rect x="676.0" y="166.0" width="34.0" height="20.0" rx="10" fill="#43e08a"/><circle cx="702.0" cy="176" r="8" fill="#fff"/><rect x="288.0" y="208.0" width="430.0" height="48.0" rx="11" fill="rgba(255,255,255,0.03)" stroke="#26314e" stroke-width="1"/><rect x="298.0" y="215.0" width="34.0" height="34.0" rx="11" fill="rgba(67,224,138,0.16)"/><rect x="308.56" y="232.92000000000002" width="2.9440000000000004" height="4.6000000000000005" rx="1" fill="#43e08a"/><rect x="313.16" y="229.24" width="2.9440000000000004" height="8.280000000000001" rx="1" fill="#43e08a"/><rect x="317.76" y="233.84" width="2.9440000000000004" height="3.68" rx="1" fill="#43e08a"/><rect x="322.36" y="227.4" width="2.9440000000000004" height="10.120000000000001" rx="1" fill="#43e08a"/><text x="342.0" y="231.0" font-family="-apple-system,BlinkMacSystemFont,'SF Pro Text','Segoe UI',Roboto,system-ui,sans-serif" font-size="11.5" font-weight="650" fill="#eef1f7" text-anchor="start">Spending</text><text x="342.0" y="246.0" font-family="-apple-system,BlinkMacSystemFont,'SF Pro Text','Segoe UI',Roboto,system-ui,sans-serif" font-size="9.5" font-weight="500" fill="#8a94ad" text-anchor="start">transactions</text><rect x="676.0" y="222.0" width="34.0" height="20.0" rx="10" fill="#43e08a"/><circle cx="702.0" cy="232" r="8" fill="#fff"/><rect x="288.0" y="264.0" width="430.0" height="48.0" rx="11" fill="rgba(255,255,255,0.03)" stroke="#26314e" stroke-width="1"/><rect x="298.0" y="271.0" width="34.0" height="34.0" rx="11" fill="rgba(98,109,136,0.16)"/><path d="M315 280.64 c4.6000000000000005 0 4.6000000000000005 3.68 4.6000000000000005 7.36 l1.84 1.84 h-12.88 l1.84 -1.84 c0 -3.68 0 -7.36 4.6000000000000005 -7.36 M313.16 293.52 c0 2.7600000000000002 3.68 2.7600000000000002 3.68 0" fill="none" stroke="#626d88" stroke-width="1.56" stroke-linecap="round" stroke-linejoin="round"/><text x="342.0" y="287.0" font-family="-apple-system,BlinkMacSystemFont,'SF Pro Text','Segoe UI',Roboto,system-ui,sans-serif" font-size="11.5" font-weight="650" fill="#eef1f7" text-anchor="start">Calendar</text><text x="342.0" y="302.0" font-family="-apple-system,BlinkMacSystemFont,'SF Pro Text','Segoe UI',Roboto,system-ui,sans-serif" font-size="9.5" font-weight="500" fill="#8a94ad" text-anchor="start">events</text><rect x="676.0" y="278.0" width="34.0" height="20.0" rx="10" fill="#2a3450"/><circle cx="688.0" cy="288" r="8" fill="#fff"/><rect x="288.0" y="320.0" width="430.0" height="48.0" rx="11" fill="rgba(255,255,255,0.03)" stroke="#26314e" stroke-width="1"/><rect x="298.0" y="327.0" width="34.0" height="34.0" rx="11" fill="rgba(98,109,136,0.16)"/><path d="M307.64 338.48 h14.72 a2 2 0 0 1 2 2 v6.44 a2 2 0 0 1 -2 2 h-8.280000000000001 l-3.68 3.68 v-3.68 h-2.7600000000000002 a2 2 0 0 1 -2 -2 v-6.44 a2 2 0 0 1 2 -2 Z" fill="none" stroke="#626d88" stroke-width="1.56" stroke-linecap="round" stroke-linejoin="round"/><text x="342.0" y="343.0" font-family="-apple-system,BlinkMacSystemFont,'SF Pro Text','Segoe UI',Roboto,system-ui,sans-serif" font-size="11.5" font-weight="650" fill="#eef1f7" text-anchor="start">Messages</text><text x="342.0" y="358.0" font-family="-apple-system,BlinkMacSystemFont,'SF Pro Text','Segoe UI',Roboto,system-ui,sans-serif" font-size="9.5" font-weight="500" fill="#8a94ad" text-anchor="start">not connected</text><rect x="676.0" y="334.0" width="34.0" height="20.0" rx="10" fill="#2a3450"/><circle cx="688.0" cy="344" r="8" fill="#fff"/><rect x="288.0" y="382.0" width="430.0" height="46.0" rx="11" fill="rgba(67,224,138,0.08)" stroke="#43e08a" stroke-width="1"/><path d="M305.2 405 c3.4 -5.1 10.2 -5.1 13.6 0 c-3.4 5.1 -10.2 5.1 -13.6 0 Z" fill="none" stroke="#43e08a" stroke-width="1.44" stroke-linecap="round" stroke-linejoin="round"/><circle cx="312" cy="405" r="2.04" fill="#43e08a"/><text x="334.0" y="401.0" font-family="-apple-system,BlinkMacSystemFont,'SF Pro Text','Segoe UI',Roboto,system-ui,sans-serif" font-size="11.5" font-weight="650" fill="#eef1f7" text-anchor="start">Who accessed my data</text><text x="334.0" y="416.0" font-family="-apple-system,BlinkMacSystemFont,'SF Pro Text','Segoe UI',Roboto,system-ui,sans-serif" font-size="9.5" font-weight="500" fill="#8a94ad" text-anchor="start">stored · read · erased — chain OK</text><rect x="758.0" y="106.0" width="470.0" height="260.0" rx="14" fill="url(#gCard)" stroke="#26314e" stroke-width="1"/><text x="776.0" y="133.0" font-family="-apple-system,BlinkMacSystemFont,'SF Pro Text','Segoe UI',Roboto,system-ui,sans-serif" font-size="12.5" font-weight="700" fill="#eef1f7" text-anchor="start">Devices</text><text x="1210.0" y="133.0" font-family="-apple-system,BlinkMacSystemFont,'SF Pro Text','Segoe UI',Roboto,system-ui,sans-serif" font-size="10" font-weight="600" fill="#626d88" text-anchor="end">where Jim lives</text><rect x="778.0" y="152.0" width="430.0" height="52.0" rx="11" fill="rgba(255,255,255,0.03)" stroke="#26314e" stroke-width="1"/><rect x="788.0" y="161.0" width="34.0" height="34.0" rx="11" fill="rgba(67,224,138,0.16)"/><rect x="800.4" y="173.4" width="9.200000000000001" height="9.200000000000001" rx="2.5" fill="none" stroke="#43e08a" stroke-width="1.56" stroke-linecap="round" stroke-linejoin="round"/><path d="M802.7 173.4 v-2.7600000000000002 h4.6000000000000005 v2.7600000000000002 M802.7 182.6 v2.7600000000000002 h4.6000000000000005 v-2.7600000000000002" fill="none" stroke="#43e08a" stroke-width="1.56" stroke-linecap="round" stroke-linejoin="round"/><text x="832.0" y="175.0" font-family="-apple-system,BlinkMacSystemFont,'SF Pro Text','Segoe UI',Roboto,system-ui,sans-serif" font-size="11.5" font-weight="650" fill="#eef1f7" text-anchor="start">Apple Watch</text><text x="832.0" y="191.0" font-family="-apple-system,BlinkMacSystemFont,'SF Pro Text','Segoe UI',Roboto,system-ui,sans-serif" font-size="9.5" font-weight="500" fill="#8a94ad" text-anchor="start">wearable · Bluetooth</text><rect x="1144.0" y="169.0" width="50.0" height="16.0" rx="8" fill="rgba(67,224,138,0.14)"/><circle cx="1153.0" cy="177" r="3" fill="#43e08a"/><text x="1160.0" y="181.0" font-family="-apple-system,BlinkMacSystemFont,'SF Pro Text','Segoe UI',Roboto,system-ui,sans-serif" font-size="9" font-weight="700" fill="#43e08a" text-anchor="start" letter-spacing="0.5">ACTIVE</text><rect x="778.0" y="212.0" width="430.0" height="52.0" rx="11" fill="rgba(255,255,255,0.03)" stroke="#26314e" stroke-width="1"/><rect x="788.0" y="221.0" width="34.0" height="34.0" rx="11" fill="rgba(67,224,138,0.16)"/><rect x="802.24" y="230.64" width="5.5200000000000005" height="10.120000000000001" rx="2.7600000000000002" fill="none" stroke="#43e08a" stroke-width="1.56" stroke-linecap="round" stroke-linejoin="round"/><path d="M799.48 238 c0 4.6000000000000005 11.040000000000001 4.6000000000000005 11.040000000000001 0 M805.0 242.6 v2.7600000000000002" fill="none" stroke="#43e08a" stroke-width="1.56" stroke-linecap="round" stroke-linejoin="round"/><text x="832.0" y="235.0" font-family="-apple-system,BlinkMacSystemFont,'SF Pro Text','Segoe UI',Roboto,system-ui,sans-serif" font-size="11.5" font-weight="650" fill="#eef1f7" text-anchor="start">Kitchen console</text><text x="832.0" y="251.0" font-family="-apple-system,BlinkMacSystemFont,'SF Pro Text','Segoe UI',Roboto,system-ui,sans-serif" font-size="9.5" font-weight="500" fill="#8a94ad" text-anchor="start">on-device LLM</text><rect x="1168.0" y="229.0" width="26.0" height="16.0" rx="8" fill="rgba(67,224,138,0.14)"/><circle cx="1177.0" cy="237" r="3" fill="#43e08a"/><text x="1184.0" y="241.0" font-family="-apple-system,BlinkMacSystemFont,'SF Pro Text','Segoe UI',Roboto,system-ui,sans-serif" font-size="9" font-weight="700" fill="#43e08a" text-anchor="start" letter-spacing="0.5">ON</text><rect x="778.0" y="272.0" width="430.0" height="52.0" rx="11" fill="rgba(255,255,255,0.03)" stroke="#26314e" stroke-width="1"/><rect x="788.0" y="281.0" width="34.0" height="34.0" rx="11" fill="rgba(67,224,138,0.16)"/><path d="M806.84 290.64 L799.48 298.92 L805.0 298.92 L803.16 305.36 L810.52 297.08 L805.0 297.08 Z" fill="#43e08a"/><text x="832.0" y="295.0" font-family="-apple-system,BlinkMacSystemFont,'SF Pro Text','Segoe UI',Roboto,system-ui,sans-serif" font-size="11.5" font-weight="650" fill="#eef1f7" text-anchor="start">Helper bot</text><text x="832.0" y="311.0" font-family="-apple-system,BlinkMacSystemFont,'SF Pro Text','Segoe UI',Roboto,system-ui,sans-serif" font-size="9.5" font-weight="500" fill="#8a94ad" text-anchor="start">autonomous · relayed</text><rect x="1156.0" y="289.0" width="38.0" height="16.0" rx="8" fill="rgba(247,183,49,0.14)"/><circle cx="1165.0" cy="297" r="3" fill="#f7b731"/><text x="1172.0" y="301.0" font-family="-apple-system,BlinkMacSystemFont,'SF Pro Text','Segoe UI',Roboto,system-ui,sans-serif" font-size="9" font-weight="700" fill="#f7b731" text-anchor="start" letter-spacing="0.5">IDLE</text><rect x="758.0" y="388.0" width="470.0" height="380.0" rx="14" fill="url(#gCard)" stroke="#26314e" stroke-width="1"/><text x="776.0" y="415.0" font-family="-apple-system,BlinkMacSystemFont,'SF Pro Text','Segoe UI',Roboto,system-ui,sans-serif" font-size="12.5" font-weight="700" fill="#eef1f7" text-anchor="start">Model &amp; cloud</text><text x="1210.0" y="415.0" font-family="-apple-system,BlinkMacSystemFont,'SF Pro Text','Segoe UI',Roboto,system-ui,sans-serif" font-size="10" font-weight="600" fill="#626d88" text-anchor="end">greater model, opt-in</text><rect x="778.0" y="434.0" width="430.0" height="52.0" rx="11" fill="rgba(255,255,255,0.03)" stroke="#26314e" stroke-width="1"/><rect x="788.0" y="443.0" width="34.0" height="34.0" rx="11" fill="rgba(167,139,250,0.16)"/><path d="M799.48 463.68 a3.68 3.68 0 0 1 0.92 -7.36 a4.6000000000000005 4.6000000000000005 0 0 1 9.200000000000001 0.92 a3.22 3.22 0 0 1 -0.92 6.44 Z" fill="none" stroke="#a78bfa" stroke-width="1.56" stroke-linecap="round" stroke-linejoin="round"/><text x="832.0" y="457.0" font-family="-apple-system,BlinkMacSystemFont,'SF Pro Text','Segoe UI',Roboto,system-ui,sans-serif" font-size="11.5" font-weight="650" fill="#eef1f7" text-anchor="start">Cloud model</text><text x="832.0" y="473.0" font-family="-apple-system,BlinkMacSystemFont,'SF Pro Text','Segoe UI',Roboto,system-ui,sans-serif" font-size="9.5" font-weight="500" fill="#8a94ad" text-anchor="start">local fallback</text><rect x="1168.0" y="451.0" width="26.0" height="16.0" rx="8" fill="rgba(67,224,138,0.14)"/><circle cx="1177.0" cy="459" r="3" fill="#43e08a"/><text x="1184.0" y="463.0" font-family="-apple-system,BlinkMacSystemFont,'SF Pro Text','Segoe UI',Roboto,system-ui,sans-serif" font-size="9" font-weight="700" fill="#43e08a" text-anchor="start" letter-spacing="0.5">ON</text><rect x="778.0" y="494.0" width="430.0" height="52.0" rx="11" fill="rgba(255,255,255,0.03)" stroke="#26314e" stroke-width="1"/><rect x="788.0" y="503.0" width="34.0" height="34.0" rx="11" fill="rgba(67,224,138,0.16)"/><path d="M805.0 512.64 l6.44 2.7600000000000002 v4.6000000000000005 c0 4.6000000000000005 -2.7600000000000002 6.44 -6.44 8.280000000000001 c-3.68 -1.84 -6.44 -3.68 -6.44 -8.280000000000001 v-4.6000000000000005 Z" fill="none" stroke="#43e08a" stroke-width="1.56" stroke-linecap="round" stroke-linejoin="round"/><text x="832.0" y="517.0" font-family="-apple-system,BlinkMacSystemFont,'SF Pro Text','Segoe UI',Roboto,system-ui,sans-serif" font-size="11.5" font-weight="650" fill="#eef1f7" text-anchor="start">Offline mode</text><text x="832.0" y="533.0" font-family="-apple-system,BlinkMacSystemFont,'SF Pro Text','Segoe UI',Roboto,system-ui,sans-serif" font-size="9.5" font-weight="500" fill="#8a94ad" text-anchor="start">nothing leaves this device</text><rect x="1150.0" y="511.0" width="44.0" height="16.0" rx="8" fill="rgba(67,224,138,0.14)"/><circle cx="1159.0" cy="519" r="3" fill="#43e08a"/><text x="1166.0" y="523.0" font-family="-apple-system,BlinkMacSystemFont,'SF Pro Text','Segoe UI',Roboto,system-ui,sans-serif" font-size="9" font-weight="700" fill="#43e08a" text-anchor="start" letter-spacing="0.5">READY</text><rect x="778.0" y="554.0" width="430.0" height="52.0" rx="11" fill="rgba(255,255,255,0.03)" stroke="#26314e" stroke-width="1"/><rect x="788.0" y="563.0" width="34.0" height="34.0" rx="11" fill="rgba(56,189,248,0.16)"/><path d="M797.64 580 c3.68 -5.5200000000000005 11.040000000000001 -5.5200000000000005 14.72 0 c-3.68 5.5200000000000005 -11.040000000000001 5.5200000000000005 -14.72 0 Z" fill="none" stroke="#38bdf8" stroke-width="1.56" stroke-linecap="round" stroke-linejoin="round"/><circle cx="805.0" cy="580" r="2.208" fill="#38bdf8"/><text x="832.0" y="577.0" font-family="-apple-system,BlinkMacSystemFont,'SF Pro Text','Segoe UI',Roboto,system-ui,sans-serif" font-size="11.5" font-weight="650" fill="#eef1f7" text-anchor="start">Contribution preview</text><text x="832.0" y="593.0" font-family="-apple-system,BlinkMacSystemFont,'SF Pro Text','Segoe UI',Roboto,system-ui,sans-serif" font-size="9.5" font-weight="500" fill="#8a94ad" text-anchor="start">exactly what would be shared</text></svg>