<svg xmlns="http://www.w3.org/2000/svg" width="1280" height="820" viewBox="0 0 1280 820" role="img" aria-label="Jim Mini — Live Monitoring"><defs>
      <linearGradient id="gPage" x1="0" y1="0" x2="0.4" y2="1">
        <stop offset="0" stop-color="#0a1120"/><stop offset="1" stop-color="#070b16"/></linearGradient>
      <linearGradient id="gScr" x1="0" y1="0" x2="0.5" y2="1">
        <stop offset="0" stop-color="#0e1626"/><stop offset="1" stop-color="#0a0f1c"/></linearGradient>
      <linearGradient id="gSide" x1="0" y1="0" x2="0" y2="1">
        <stop offset="0" stop-color="#141d31"/><stop offset="1" stop-color="#0b1120"/></linearGradient>
      <linearGradient id="gCard" x1="0" y1="0" x2="0.4" y2="1">
        <stop offset="0" stop-color="#182238"/><stop offset="1" stop-color="#1f2b45"/></linearGradient>
      <linearGradient id="gBrand" x1="0" y1="0" x2="1" y2="0">
        <stop offset="0" stop-color="#7c5cff"/><stop offset="1" stop-color="#3aa0ff"/></linearGradient>
      <linearGradient id="gEmer" x1="0" y1="0" x2="0" y2="1"><stop offset="0" stop-color="#ff5b52"/><stop offset="1" stop-color="#ff3b30"/></linearGradient>
      <linearGradient id="mV" x1="0" y1="0" x2="1" y2="0"><stop offset="0" stop-color="#7c5cff"/><stop offset="1" stop-color="#3aa0ff"/></linearGradient>
      <linearGradient id="mG" x1="0" y1="0" x2="1" y2="0"><stop offset="0" stop-color="#2fd27a"/><stop offset="1" stop-color="#43e08a"/></linearGradient>
      <linearGradient id="mO" x1="0" y1="0" x2="1" y2="0"><stop offset="0" stop-color="#f7b731"/><stop offset="1" stop-color="#ff7a45"/></linearGradient>
      <radialGradient id="orb" cx="34%" cy="30%" r="75%">
        <stop offset="0" stop-color="#c3b0ff"/><stop offset="42%" stop-color="#7c5cff"/>
        <stop offset="80%" stop-color="#2f6cf0"/><stop offset="100%" stop-color="#14204a"/></radialGradient>
    </defs><rect x="0.0" y="0.0" width="1280.0" height="820.0" rx="0" fill="url(#gPage)"/><rect x="24" y="24" width="1232" height="772" rx="10" fill="url(#gScr)" stroke="#26314e" stroke-width="1"/><rect x="24.0" y="24.0" width="216.0" height="772.0" rx="18" fill="url(#gSide)"/><rect x="222.0" y="24.0" width="18.0" height="772.0" rx="0" fill="url(#gScr)"/><line x1="240" y1="24" x2="240" y2="796" stroke="#26314e" stroke-width="1"/><line x1="240" y1="78" x2="1256" y2="78" stroke="#26314e" stroke-width="1"/><line x1="1164" y1="52" x2="1175" y2="52" stroke="#8a94ad" stroke-width="1.3"/><rect x="1193.0" y="46.0" width="11.0" height="11.0" rx="1.5" fill="none" stroke="#8a94ad" stroke-width="1.3"/><path d="M1223 46 l11 11 M1234 46 l-11 11" stroke="#8a94ad" stroke-width="1.3" stroke-linecap="round"/><circle cx="120" cy="51" r="11" fill="url(#orb)"/><path d="M120 47.0 l3.5 1.5 v2.5 c0 2.5 -1.5 3.5 -3.5 4.5 c-2.0 -1.0 -3.5 -2.0 -3.5 -4.5 v-2.5 Z" fill="none" stroke="rgba(255,255,255,0.95)" stroke-width="0.85" stroke-linecap="round" stroke-linejoin="round"/><text x="138.0" y="49.0" font-family="-apple-system,BlinkMacSystemFont,'SF Pro Text','Segoe UI',Roboto,system-ui,sans-serif" font-size="14" font-weight="800" fill="#eef1f7" text-anchor="start" letter-spacing="0.5">JIM</text><text x="138.0" y="63.0" font-family="-apple-system,BlinkMacSystemFont,'SF Pro Text','Segoe UI',Roboto,system-ui,sans-serif" font-size="8.5" font-weight="500" fill="#626d88" text-anchor="start">Guardian guidance</text><text x="268.0" y="57.0" font-family="-apple-system,BlinkMacSystemFont,'SF Pro Text','Segoe UI',Roboto,system-ui,sans-serif" font-size="15" font-weight="700" fill="#eef1f7" text-anchor="start" letter-spacing="-0.2">Live Monitoring</text><rect x="1134.96" y="43.8" width="2.08" height="3.2" rx="1" transform="rotate(0 1136 51)" fill="#8a94ad"/><rect x="1134.96" y="43.8" width="2.08" height="3.2" rx="1" transform="rotate(45 1136 51)" fill="#8a94ad"/><rect x="1134.96" y="43.8" width="2.08" height="3.2" rx="1" transform="rotate(90 1136 51)" fill="#8a94ad"/><rect x="1134.96" y="43.8" width="2.08" height="3.2" rx="1" transform="rotate(135 1136 51)" fill="#8a94ad"/><rect x="1134.96" y="43.8" width="2.08" height="3.2" rx="1" transform="rotate(180 1136 51)" fill="#8a94ad"/><rect x="1134.96" y="43.8" width="2.08" height="3.2" rx="1" transform="rotate(225 1136 51)" fill="#8a94ad"/><rect x="1134.96" y="43.8" width="2.08" height="3.2" rx="1" transform="rotate(270 1136 51)" fill="#8a94ad"/><rect x="1134.96" y="43.8" width="2.08" height="3.2" rx="1" transform="rotate(315 1136 51)" fill="#8a94ad"/><circle cx="1136" cy="51" r="3.6799999999999997" fill="none" stroke="#8a94ad" stroke-width="1.36" stroke-linecap="round" stroke-linejoin="round"/><rect x="1032.0" y="46.0" width="80.0" height="16.0" rx="8" fill="rgba(67,224,138,0.14)"/><circle cx="1041.0" cy="54" r="3" fill="#43e08a"/><text x="1048.0" y="58.0" font-family="-apple-system,BlinkMacSystemFont,'SF Pro Text','Segoe UI',Roboto,system-ui,sans-serif" font-size="9" font-weight="700" fill="#43e08a" text-anchor="start" letter-spacing="0.5">Guardian on</text><circle cx="1020" cy="51" r="13" fill="url(#orb)"/><circle cx="1020" cy="48.6" r="2.04" fill="none" stroke="rgba(255,255,255,0.9)" stroke-width="1.02" stroke-linecap="round" stroke-linejoin="round"/><path d="M1016.4 55.2 c0 -3.5999999999999996 7.199999999999999 -3.5999999999999996 7.199999999999999 0" fill="none" stroke="rgba(255,255,255,0.9)" stroke-width="1.02" stroke-linecap="round" stroke-linejoin="round"/><circle cx="58" cy="111" r="5.3999999999999995" fill="none" stroke="#8a94ad" stroke-width="1.22" stroke-linecap="round" stroke-linejoin="round"/><circle cx="58" cy="111" r="2.52" fill="none" stroke="#8a94ad" stroke-width="1.22" stroke-linecap="round" stroke-linejoin="round"/><circle cx="58" cy="111" r="0.648" fill="#8a94ad"/><text x="78.0" y="116.0" font-family="-apple-system,BlinkMacSystemFont,'SF Pro Text','Segoe UI',Roboto,system-ui,sans-serif" font-size="12.5" font-weight="500" fill="#8a94ad" text-anchor="start">Overview</text><rect x="36.0" y="138.0" width="192.0" height="38.0" rx="10" fill="rgba(67,224,138,0.16)"/><rect x="36.0" y="138.0" width="3.0" height="38.0" rx="2" fill="#43e08a"/><path d="M58 161.32 C51.52 154.84,52.96 150.52,58 154.12 C63.04 150.52,64.48 154.84,58 161.32 Z" fill="#43e08a"/><text x="78.0" y="162.0" font-family="-apple-system,BlinkMacSystemFont,'SF Pro Text','Segoe UI',Roboto,system-ui,sans-serif" font-size="12.5" font-weight="650" fill="#eef1f7" text-anchor="start">Monitoring</text><rect x="52.96" y="203.72" width="2.304" height="3.5999999999999996" rx="1" fill="#8a94ad"/><rect x="56.56" y="200.84" width="2.304" height="6.4799999999999995" rx="1" fill="#8a94ad"/><rect x="60.16" y="204.44" width="2.304" height="2.88" rx="1" fill="#8a94ad"/><rect x="63.76" y="199.4" width="2.304" height="7.92" rx="1" fill="#8a94ad"/><text x="78.0" y="208.0" font-family="-apple-system,BlinkMacSystemFont,'SF Pro Text','Segoe UI',Roboto,system-ui,sans-serif" font-size="12.5" font-weight="500" fill="#8a94ad" text-anchor="start">Health</text><path d="M58 243.96 v10.08 M52.96 249 h10.08" fill="none" stroke="#8a94ad" stroke-width="2.16" stroke-linecap="round"/><text x="78.0" y="254.0" font-family="-apple-system,BlinkMacSystemFont,'SF Pro Text','Segoe UI',Roboto,system-ui,sans-serif" font-size="12.5" font-weight="500" fill="#8a94ad" text-anchor="start">Emergency</text><circle cx="55.84" cy="295" r="3.5999999999999996" fill="none" stroke="#8a94ad" stroke-width="1.22" stroke-linecap="round" stroke-linejoin="round"/><circle cx="60.16" cy="295" r="3.5999999999999996" fill="none" stroke="#8a94ad" stroke-width="1.22" stroke-linecap="round" stroke-linejoin="round"/><text x="78.0" y="300.0" font-family="-apple-system,BlinkMacSystemFont,'SF Pro Text','Segoe UI',Roboto,system-ui,sans-serif" font-size="12.5" font-weight="500" fill="#8a94ad" text-anchor="start">Coach</text><rect x="54.4" y="337.4" width="7.199999999999999" height="7.199999999999999" rx="2.5" fill="none" stroke="#8a94ad" stroke-width="1.22" stroke-linecap="round" stroke-linejoin="round"/><path d="M56.2 337.4 v-2.16 h3.5999999999999996 v2.16 M56.2 344.6 v2.16 h3.5999999999999996 v-2.16" fill="none" stroke="#8a94ad" stroke-width="1.22" stroke-linecap="round" stroke-linejoin="round"/><text x="78.0" y="346.0" font-family="-apple-system,BlinkMacSystemFont,'SF Pro Text','Segoe UI',Roboto,system-ui,sans-serif" font-size="12.5" font-weight="500" fill="#8a94ad" text-anchor="start">Devices</text><path d="M58 381.24 l5.04 2.16 v3.5999999999999996 c0 3.5999999999999996 -2.16 5.04 -5.04 6.4799999999999995 c-2.88 -1.44 -5.04 -2.88 -5.04 -6.4799999999999995 v-3.5999999999999996 Z" fill="none" stroke="#8a94ad" stroke-width="1.22" stroke-linecap="round" stroke-linejoin="round"/><text x="78.0" y="392.0" font-family="-apple-system,BlinkMacSystemFont,'SF Pro Text','Segoe UI',Roboto,system-ui,sans-serif" font-size="12.5" font-weight="500" fill="#8a94ad" text-anchor="start">Privacy</text><line x1="40" y1="726" x2="224" y2="726" stroke="#26314e" stroke-width="1"/><rect x="40.0" y="740.0" width="184.0" height="40.0" rx="10" fill="rgba(255,255,255,0.04)" stroke="#26314e" stroke-width="1"/><path d="M58 754.72 l4.62 1.98 v3.3000000000000003 c0 3.3000000000000003 -1.98 4.62 -4.62 5.94 c-2.64 -1.32 -4.62 -2.64 -4.62 -5.94 v-3.3000000000000003 Z" fill="none" stroke="#43e08a" stroke-width="1.12" stroke-linecap="round" stroke-linejoin="round"/><text x="76.0" y="756.0" font-family="-apple-system,BlinkMacSystemFont,'SF Pro Text','Segoe UI',Roboto,system-ui,sans-serif" font-size="10.5" font-weight="650" fill="#eef1f7" text-anchor="start">Watching</text><text x="76.0" y="769.0" font-family="-apple-system,BlinkMacSystemFont,'SF Pro Text','Segoe UI',Roboto,system-ui,sans-serif" font-size="8.5" font-weight="500" fill="#626d88" text-anchor="start">rules are transparent</text><rect x="268.0" y="106.0" width="225.0" height="96.0" rx="14" fill="url(#gCard)" stroke="#26314e" stroke-width="1"/><text x="286.0" y="134.0" font-family="-apple-system,BlinkMacSystemFont,'SF Pro Text','Segoe UI',Roboto,system-ui,sans-serif" font-size="11" font-weight="600" fill="#8a94ad" text-anchor="start">Heart rate</text><text x="286.0" y="168.0" font-family="-apple-system,BlinkMacSystemFont,'SF Pro Text','Segoe UI',Roboto,system-ui,sans-serif" font-size="27" font-weight="800" fill="#ff4d5e" text-anchor="start">110</text><text x="286.0" y="186.0" font-family="-apple-system,BlinkMacSystemFont,'SF Pro Text','Segoe UI',Roboto,system-ui,sans-serif" font-size="9.5" font-weight="500" fill="#626d88" text-anchor="start">+38 over baseline</text><rect x="445.0" y="120.0" width="34.0" height="34.0" rx="11" fill="rgba(255,77,94,0.16)"/><path d="M462.0 142.52 C453.72 134.24,455.56 128.72,462.0 133.32 C468.44 128.72,470.28 134.24,462.0 142.52 Z" fill="#ff4d5e"/><rect x="415.4" y="177.0" width="61.6" height="17.0" rx="8" fill="rgba(247,183,49,0.15)"/><text x="446.2" y="189.0" font-family="-apple-system,BlinkMacSystemFont,'SF Pro Text','Segoe UI',Roboto,system-ui,sans-serif" font-size="9.5" font-weight="700" fill="#f7b731" text-anchor="middle" letter-spacing="0.4">ELEVATED</text><rect x="513.0" y="106.0" width="225.0" height="96.0" rx="14" fill="url(#gCard)" stroke="#26314e" stroke-width="1"/><text x="531.0" y="134.0" font-family="-apple-system,BlinkMacSystemFont,'SF Pro Text','Segoe UI',Roboto,system-ui,sans-serif" font-size="11" font-weight="600" fill="#8a94ad" text-anchor="start">Respiration</text><text x="531.0" y="168.0" font-family="-apple-system,BlinkMacSystemFont,'SF Pro Text','Segoe UI',Roboto,system-ui,sans-serif" font-size="27" font-weight="800" fill="#38bdf8" text-anchor="start">22</text><text x="531.0" y="186.0" font-family="-apple-system,BlinkMacSystemFont,'SF Pro Text','Segoe UI',Roboto,system-ui,sans-serif" font-size="9.5" font-weight="500" fill="#626d88" text-anchor="start">per minute</text><rect x="690.0" y="120.0" width="34.0" height="34.0" rx="11" fill="rgba(56,189,248,0.16)"/><path d="M707.0 130.56 v5.5200000000000005" fill="none" stroke="#38bdf8" stroke-width="1.56" stroke-linecap="round" stroke-linejoin="round"/><path d="M706.08 135.16 c-4.6000000000000005 0 -5.5200000000000005 3.68 -4.6000000000000005 7.36 l3.68 0 v-8.280000000000001" fill="none" stroke="#38bdf8" stroke-width="1.56" stroke-linecap="round" stroke-linejoin="round"/><path d="M707.92 135.16 c4.6000000000000005 0 5.5200000000000005 3.68 4.6000000000000005 7.36 l-3.68 0 v-8.280000000000001" fill="none" stroke="#38bdf8" stroke-width="1.56" stroke-linecap="round" stroke-linejoin="round"/><rect x="660.4" y="177.0" width="61.6" height="17.0" rx="8" fill="rgba(247,183,49,0.15)"/><text x="691.2" y="189.0" font-family="-apple-system,BlinkMacSystemFont,'SF Pro Text','Segoe UI',Roboto,system-ui,sans-serif" font-size="9.5" font-weight="700" fill="#f7b731" text-anchor="middle" letter-spacing="0.4">ELEVATED</text><rect x="758.0" y="106.0" width="225.0" height="96.0" rx="14" fill="url(#gCard)" stroke="#26314e" stroke-width="1"/><text x="776.0" y="134.0" font-family="-apple-system,BlinkMacSystemFont,'SF Pro Text','Segoe UI',Roboto,system-ui,sans-serif" font-size="11" font-weight="600" fill="#8a94ad" text-anchor="start">Blood oxygen</text><text x="776.0" y="168.0" font-family="-apple-system,BlinkMacSystemFont,'SF Pro Text','Segoe UI',Roboto,system-ui,sans-serif" font-size="27" font-weight="800" fill="#38bdf8" text-anchor="start">96%</text><text x="776.0" y="186.0" font-family="-apple-system,BlinkMacSystemFont,'SF Pro Text','Segoe UI',Roboto,system-ui,sans-serif" font-size="9.5" font-weight="500" fill="#626d88" text-anchor="start">SpO₂</text><rect x="935.0" y="120.0" width="34.0" height="34.0" rx="11" fill="rgba(56,189,248,0.16)"/><path d="M952.0 130.56 C958.44 137.92,956.6 143.44,952.0 143.44 C947.4 143.44,945.56 137.92,952.0 130.56 Z" fill="#38bdf8"/><rect x="1003.0" y="106.0" width="225.0" height="96.0" rx="14" fill="url(#gCard)" stroke="#26314e" stroke-width="1"/><text x="1021.0" y="134.0" font-family="-apple-system,BlinkMacSystemFont,'SF Pro Text','Segoe UI',Roboto,system-ui,sans-serif" font-size="11" font-weight="600" fill="#8a94ad" text-anchor="start">Stress</text><text x="1021.0" y="168.0" font-family="-apple-system,BlinkMacSystemFont,'SF Pro Text','Segoe UI',Roboto,system-ui,sans-serif" font-size="27" font-weight="800" fill="#ff4d5e" text-anchor="start">High</text><text x="1021.0" y="186.0" font-family="-apple-system,BlinkMacSystemFont,'SF Pro Text','Segoe UI',Roboto,system-ui,sans-serif" font-size="9.5" font-weight="500" fill="#626d88" text-anchor="start">detected now</text><rect x="1180.0" y="120.0" width="34.0" height="34.0" rx="11" fill="rgba(255,77,94,0.16)"/><path d="M1198.84 129.64 L1191.48 137.92 L1197.0 137.92 L1195.16 144.36 L1202.52 136.08 L1197.0 136.08 Z" fill="#ff4d5e"/><rect x="1169.0" y="177.0" width="43.0" height="17.0" rx="8" fill="rgba(255,59,48,0.15)"/><text x="1190.5" y="189.0" font-family="-apple-system,BlinkMacSystemFont,'SF Pro Text','Segoe UI',Roboto,system-ui,sans-serif" font-size="9.5" font-weight="700" fill="#ff3b30" text-anchor="middle" letter-spacing="0.4">ALERT</text><rect x="268.0" y="224.0" width="576.0" height="544.0" rx="14" fill="url(#gCard)" stroke="#26314e" stroke-width="1"/><text x="286.0" y="251.0" font-family="-apple-system,BlinkMacSystemFont,'SF Pro Text','Segoe UI',Roboto,system-ui,sans-serif" font-size="12.5" font-weight="700" fill="#eef1f7" text-anchor="start">Heart rate — live</text><text x="826.0" y="251.0" font-family="-apple-system,BlinkMacSystemFont,'SF Pro Text','Segoe UI',Roboto,system-ui,sans-serif" font-size="10" font-weight="600" fill="#626d88" text-anchor="end">rising</text><line x1="288" y1="331.0" x2="824.0" y2="331.0" stroke="rgba(38,49,78,0.5)" stroke-width="1"/><line x1="288" y1="386.0" x2="824.0" y2="386.0" stroke="rgba(38,49,78,0.5)" stroke-width="1"/><line x1="288" y1="441.0" x2="824.0" y2="441.0" stroke="rgba(38,49,78,0.5)" stroke-width="1"/><line x1="288" y1="472.4" x2="824.0" y2="472.4" stroke="rgba(98,109,136,0.9)" stroke-width="1" stroke-dasharray="4 4"/><text x="822.0" y="467.4" font-family="-apple-system,BlinkMacSystemFont,'SF Pro Text','Segoe UI',Roboto,system-ui,sans-serif" font-size="8.5" font-weight="500" fill="#626d88" text-anchor="end">baseline</text><polygon points="288,496 288.0,472.4 355.0,456.7 422.0,433.1 489.0,401.7 556.0,362.4 623.0,331.0 690.0,299.6 757.0,283.9 824.0,276.0 824.0,496" fill="rgba(255,77,94,0.13)"/><polyline points="288.0,472.4 355.0,456.7 422.0,433.1 489.0,401.7 556.0,362.4 623.0,331.0 690.0,299.6 757.0,283.9 824.0,276.0" fill="none" stroke="#ff4d5e" stroke-width="2.5" stroke-linejoin="round" stroke-linecap="round"/><circle cx="824.0" cy="276.0" r="4" fill="#ff4d5e"/><rect x="292.0" y="524.0" width="528.0" height="46.0" rx="11" fill="rgba(255,77,94,0.09)" stroke="#ff4d5e" stroke-width="1"/><path d="M314 540.2 L320.8 552.1 H307.2 Z" fill="none" stroke="#ff4d5e" stroke-width="1.44" stroke-linecap="round" stroke-linejoin="round"/><path d="M314 544.45 v3.4" fill="none" stroke="#ff4d5e" stroke-width="1.44" stroke-linecap="round" stroke-linejoin="round"/><circle cx="314" cy="550.4" r="0.765" fill="#ff4d5e"/><text x="336.0" y="544.0" font-family="-apple-system,BlinkMacSystemFont,'SF Pro Text','Segoe UI',Roboto,system-ui,sans-serif" font-size="11.5" font-weight="650" fill="#eef1f7" text-anchor="start">Anxiety pattern detected</text><text x="336.0" y="559.0" font-family="-apple-system,BlinkMacSystemFont,'SF Pro Text','Segoe UI',Roboto,system-ui,sans-serif" font-size="9.5" font-weight="500" fill="#8a94ad" text-anchor="start">guidance offered · monitoring continues</text><rect x="864.0" y="224.0" width="364.0" height="544.0" rx="14" fill="url(#gCard)" stroke="#26314e" stroke-width="1"/><text x="882.0" y="251.0" font-family="-apple-system,BlinkMacSystemFont,'SF Pro Text','Segoe UI',Roboto,system-ui,sans-serif" font-size="12.5" font-weight="700" fill="#eef1f7" text-anchor="start">Detect → guide → escalate</text><line x1="894.0" y1="292" x2="894.0" y2="524" stroke="#26314e" stroke-width="2"/><circle cx="894.0" cy="296" r="11" fill="#0a0f1c" stroke="#38bdf8" stroke-width="2"/><path d="M895.2 291.2 L890.4 296.6 L894.0 296.6 L892.8 300.8 L897.6 295.4 L894.0 295.4 Z" fill="#38bdf8"/><rect x="920.0" y="278.0" width="276.0" height="52.0" rx="12" fill="rgba(255,255,255,0.03)" stroke="#26314e" stroke-width="1"/><text x="938.0" y="296.0" font-family="-apple-system,BlinkMacSystemFont,'SF Pro Text','Segoe UI',Roboto,system-ui,sans-serif" font-size="12" font-weight="700" fill="#eef1f7" text-anchor="start">Biometric sample</text><text x="938.0" y="312.0" font-family="-apple-system,BlinkMacSystemFont,'SF Pro Text','Segoe UI',Roboto,system-ui,sans-serif" font-size="9.5" font-weight="500" fill="#8a94ad" text-anchor="start">HR 110 · resp 22 · 10:02</text><circle cx="894.0" cy="368" r="11" fill="#0a0f1c" stroke="#f7b731" stroke-width="2"/><path d="M894.0 363.2 L898.8 371.6 H889.2 Z" fill="none" stroke="#f7b731" stroke-width="1.02" stroke-linecap="round" stroke-linejoin="round"/><path d="M894.0 366.2 v2.4" fill="none" stroke="#f7b731" stroke-width="1.02" stroke-linecap="round" stroke-linejoin="round"/><circle cx="894.0" cy="370.4" r="0.54" fill="#f7b731"/><rect x="920.0" y="350.0" width="276.0" height="52.0" rx="12" fill="rgba(255,255,255,0.03)" stroke="#26314e" stroke-width="1"/><text x="938.0" y="368.0" font-family="-apple-system,BlinkMacSystemFont,'SF Pro Text','Segoe UI',Roboto,system-ui,sans-serif" font-size="12" font-weight="700" fill="#eef1f7" text-anchor="start">Detection</text><text x="938.0" y="384.0" font-family="-apple-system,BlinkMacSystemFont,'SF Pro Text','Segoe UI',Roboto,system-ui,sans-serif" font-size="9.5" font-weight="500" fill="#8a94ad" text-anchor="start">anxiety · guidance</text><circle cx="894.0" cy="440" r="11" fill="#0a0f1c" stroke="#43e08a" stroke-width="2"/><path d="M894.0 435.2 l4.2 1.7999999999999998 v3.0 c0 3.0 -1.7999999999999998 4.2 -4.2 5.3999999999999995 c-2.4 -1.2 -4.2 -2.4 -4.2 -5.3999999999999995 v-3.0 Z" fill="none" stroke="#43e08a" stroke-width="1.02" stroke-linecap="round" stroke-linejoin="round"/><rect x="920.0" y="422.0" width="276.0" height="52.0" rx="12" fill="rgba(255,255,255,0.03)" stroke="#26314e" stroke-width="1"/><text x="938.0" y="440.0" font-family="-apple-system,BlinkMacSystemFont,'SF Pro Text','Segoe UI',Roboto,system-ui,sans-serif" font-size="12" font-weight="700" fill="#eef1f7" text-anchor="start">Guidance delivered</text><text x="938.0" y="456.0" font-family="-apple-system,BlinkMacSystemFont,'SF Pro Text','Segoe UI',Roboto,system-ui,sans-serif" font-size="9.5" font-weight="500" fill="#8a94ad" text-anchor="start">breathing + reassurance</text><circle cx="894.0" cy="512" r="11" fill="#0a0f1c" stroke="#ff4d5e" stroke-width="2"/><path d="M890.4 508.4 c0 5.3999999999999995 1.7999999999999998 7.199999999999999 7.199999999999999 7.199999999999999 l0.0 -2.4 l-2.4 -1.2 l-1.2 1.2 c-1.7999999999999998 -0.6 -2.4 -1.2 -2.4 -2.4 l1.2 -1.2 l-1.2 -2.4 Z" fill="#ff4d5e"/><rect x="920.0" y="494.0" width="276.0" height="52.0" rx="12" fill="rgba(255,255,255,0.03)" stroke="#26314e" stroke-width="1"/><text x="938.0" y="512.0" font-family="-apple-system,BlinkMacSystemFont,'SF Pro Text','Segoe UI',Roboto,system-ui,sans-serif" font-size="12" font-weight="700" fill="#eef1f7" text-anchor="start">Escalation ready</text><text x="938.0" y="528.0" font-family="-apple-system,BlinkMacSystemFont,'SF Pro Text','Segoe UI',Roboto,system-ui,sans-serif" font-size="9.5" font-weight="500" fill="#8a94ad" text-anchor="start">contact on standby</text></svg>