<svg xmlns="http://www.w3.org/2000/svg" width="1280" height="820" viewBox="0 0 1280 820" role="img" aria-label="Jim Mini — Health"><defs>
      <linearGradient id="gPage" x1="0" y1="0" x2="0.4" y2="1">
        <stop offset="0" stop-color="#0a1120"/><stop offset="1" stop-color="#070b16"/></linearGradient>
      <linearGradient id="gScr" x1="0" y1="0" x2="0.5" y2="1">
        <stop offset="0" stop-color="#0e1626"/><stop offset="1" stop-color="#0a0f1c"/></linearGradient>
      <linearGradient id="gSide" x1="0" y1="0" x2="0" y2="1">
        <stop offset="0" stop-color="#141d31"/><stop offset="1" stop-color="#0b1120"/></linearGradient>
      <linearGradient id="gCard" x1="0" y1="0" x2="0.4" y2="1">
        <stop offset="0" stop-color="#182238"/><stop offset="1" stop-color="#1f2b45"/></linearGradient>
      <linearGradient id="gBrand" x1="0" y1="0" x2="1" y2="0">
        <stop offset="0" stop-color="#7c5cff"/><stop offset="1" stop-color="#3aa0ff"/></linearGradient>
      <linearGradient id="gEmer" x1="0" y1="0" x2="0" y2="1"><stop offset="0" stop-color="#ff5b52"/><stop offset="1" stop-color="#ff3b30"/></linearGradient>
      <linearGradient id="mV" x1="0" y1="0" x2="1" y2="0"><stop offset="0" stop-color="#7c5cff"/><stop offset="1" stop-color="#3aa0ff"/></linearGradient>
      <linearGradient id="mG" x1="0" y1="0" x2="1" y2="0"><stop offset="0" stop-color="#2fd27a"/><stop offset="1" stop-color="#43e08a"/></linearGradient>
      <linearGradient id="mO" x1="0" y1="0" x2="1" y2="0"><stop offset="0" stop-color="#f7b731"/><stop offset="1" stop-color="#ff7a45"/></linearGradient>
      <radialGradient id="orb" cx="34%" cy="30%" r="75%">
        <stop offset="0" stop-color="#c3b0ff"/><stop offset="42%" stop-color="#7c5cff"/>
        <stop offset="80%" stop-color="#2f6cf0"/><stop offset="100%" stop-color="#14204a"/></radialGradient>
    </defs><rect x="0.0" y="0.0" width="1280.0" height="820.0" rx="0" fill="url(#gPage)"/><rect x="24" y="24" width="1232" height="772" rx="10" fill="url(#gScr)" stroke="#26314e" stroke-width="1"/><rect x="24.0" y="24.0" width="216.0" height="772.0" rx="18" fill="url(#gSide)"/><rect x="222.0" y="24.0" width="18.0" height="772.0" rx="0" fill="url(#gScr)"/><line x1="240" y1="24" x2="240" y2="796" stroke="#26314e" stroke-width="1"/><line x1="240" y1="78" x2="1256" y2="78" stroke="#26314e" stroke-width="1"/><line x1="1164" y1="52" x2="1175" y2="52" stroke="#8a94ad" stroke-width="1.3"/><rect x="1193.0" y="46.0" width="11.0" height="11.0" rx="1.5" fill="none" stroke="#8a94ad" stroke-width="1.3"/><path d="M1223 46 l11 11 M1234 46 l-11 11" stroke="#8a94ad" stroke-width="1.3" stroke-linecap="round"/><circle cx="120" cy="51" r="11" fill="url(#orb)"/><path d="M120 47.0 l3.5 1.5 v2.5 c0 2.5 -1.5 3.5 -3.5 4.5 c-2.0 -1.0 -3.5 -2.0 -3.5 -4.5 v-2.5 Z" fill="none" stroke="rgba(255,255,255,0.95)" stroke-width="0.85" stroke-linecap="round" stroke-linejoin="round"/><text x="138.0" y="49.0" font-family="-apple-system,BlinkMacSystemFont,'SF Pro Text','Segoe UI',Roboto,system-ui,sans-serif" font-size="14" font-weight="800" fill="#eef1f7" text-anchor="start" letter-spacing="0.5">JIM</text><text x="138.0" y="63.0" font-family="-apple-system,BlinkMacSystemFont,'SF Pro Text','Segoe UI',Roboto,system-ui,sans-serif" font-size="8.5" font-weight="500" fill="#626d88" text-anchor="start">Guardian guidance</text><text x="268.0" y="57.0" font-family="-apple-system,BlinkMacSystemFont,'SF Pro Text','Segoe UI',Roboto,system-ui,sans-serif" font-size="15" font-weight="700" fill="#eef1f7" text-anchor="start" letter-spacing="-0.2">Health</text><rect x="1134.96" y="43.8" width="2.08" height="3.2" rx="1" transform="rotate(0 1136 51)" fill="#8a94ad"/><rect x="1134.96" y="43.8" width="2.08" height="3.2" rx="1" transform="rotate(45 1136 51)" fill="#8a94ad"/><rect x="1134.96" y="43.8" width="2.08" height="3.2" rx="1" transform="rotate(90 1136 51)" fill="#8a94ad"/><rect x="1134.96" y="43.8" width="2.08" height="3.2" rx="1" transform="rotate(135 1136 51)" fill="#8a94ad"/><rect x="1134.96" y="43.8" width="2.08" height="3.2" rx="1" transform="rotate(180 1136 51)" fill="#8a94ad"/><rect x="1134.96" y="43.8" width="2.08" height="3.2" rx="1" transform="rotate(225 1136 51)" fill="#8a94ad"/><rect x="1134.96" y="43.8" width="2.08" height="3.2" rx="1" transform="rotate(270 1136 51)" fill="#8a94ad"/><rect x="1134.96" y="43.8" width="2.08" height="3.2" rx="1" transform="rotate(315 1136 51)" fill="#8a94ad"/><circle cx="1136" cy="51" r="3.6799999999999997" fill="none" stroke="#8a94ad" stroke-width="1.36" stroke-linecap="round" stroke-linejoin="round"/><rect x="1032.0" y="46.0" width="80.0" height="16.0" rx="8" fill="rgba(67,224,138,0.14)"/><circle cx="1041.0" cy="54" r="3" fill="#43e08a"/><text x="1048.0" y="58.0" font-family="-apple-system,BlinkMacSystemFont,'SF Pro Text','Segoe UI',Roboto,system-ui,sans-serif" font-size="9" font-weight="700" fill="#43e08a" text-anchor="start" letter-spacing="0.5">Guardian on</text><circle cx="1020" cy="51" r="13" fill="url(#orb)"/><circle cx="1020" cy="48.6" r="2.04" fill="none" stroke="rgba(255,255,255,0.9)" stroke-width="1.02" stroke-linecap="round" stroke-linejoin="round"/><path d="M1016.4 55.2 c0 -3.5999999999999996 7.199999999999999 -3.5999999999999996 7.199999999999999 0" fill="none" stroke="rgba(255,255,255,0.9)" stroke-width="1.02" stroke-linecap="round" stroke-linejoin="round"/><circle cx="58" cy="111" r="5.3999999999999995" fill="none" stroke="#8a94ad" stroke-width="1.22" stroke-linecap="round" stroke-linejoin="round"/><circle cx="58" cy="111" r="2.52" fill="none" stroke="#8a94ad" stroke-width="1.22" stroke-linecap="round" stroke-linejoin="round"/><circle cx="58" cy="111" r="0.648" fill="#8a94ad"/><text x="78.0" y="116.0" font-family="-apple-system,BlinkMacSystemFont,'SF Pro Text','Segoe UI',Roboto,system-ui,sans-serif" font-size="12.5" font-weight="500" fill="#8a94ad" text-anchor="start">Overview</text><path d="M58 161.32 C51.52 154.84,52.96 150.52,58 154.12 C63.04 150.52,64.48 154.84,58 161.32 Z" fill="#8a94ad"/><text x="78.0" y="162.0" font-family="-apple-system,BlinkMacSystemFont,'SF Pro Text','Segoe UI',Roboto,system-ui,sans-serif" font-size="12.5" font-weight="500" fill="#8a94ad" text-anchor="start">Monitoring</text><rect x="36.0" y="184.0" width="192.0" height="38.0" rx="10" fill="rgba(67,224,138,0.16)"/><rect x="36.0" y="184.0" width="3.0" height="38.0" rx="2" fill="#43e08a"/><rect x="52.96" y="203.72" width="2.304" height="3.5999999999999996" rx="1" fill="#43e08a"/><rect x="56.56" y="200.84" width="2.304" height="6.4799999999999995" rx="1" fill="#43e08a"/><rect x="60.16" y="204.44" width="2.304" height="2.88" rx="1" fill="#43e08a"/><rect x="63.76" y="199.4" width="2.304" height="7.92" rx="1" fill="#43e08a"/><text x="78.0" y="208.0" font-family="-apple-system,BlinkMacSystemFont,'SF Pro Text','Segoe UI',Roboto,system-ui,sans-serif" font-size="12.5" font-weight="650" fill="#eef1f7" text-anchor="start">Health</text><path d="M58 243.96 v10.08 M52.96 249 h10.08" fill="none" stroke="#8a94ad" stroke-width="2.16" stroke-linecap="round"/><text x="78.0" y="254.0" font-family="-apple-system,BlinkMacSystemFont,'SF Pro Text','Segoe UI',Roboto,system-ui,sans-serif" font-size="12.5" font-weight="500" fill="#8a94ad" text-anchor="start">Emergency</text><circle cx="55.84" cy="295" r="3.5999999999999996" fill="none" stroke="#8a94ad" stroke-width="1.22" stroke-linecap="round" stroke-linejoin="round"/><circle cx="60.16" cy="295" r="3.5999999999999996" fill="none" stroke="#8a94ad" stroke-width="1.22" stroke-linecap="round" stroke-linejoin="round"/><text x="78.0" y="300.0" font-family="-apple-system,BlinkMacSystemFont,'SF Pro Text','Segoe UI',Roboto,system-ui,sans-serif" font-size="12.5" font-weight="500" fill="#8a94ad" text-anchor="start">Coach</text><rect x="54.4" y="337.4" width="7.199999999999999" height="7.199999999999999" rx="2.5" fill="none" stroke="#8a94ad" stroke-width="1.22" stroke-linecap="round" stroke-linejoin="round"/><path d="M56.2 337.4 v-2.16 h3.5999999999999996 v2.16 M56.2 344.6 v2.16 h3.5999999999999996 v-2.16" fill="none" stroke="#8a94ad" stroke-width="1.22" stroke-linecap="round" stroke-linejoin="round"/><text x="78.0" y="346.0" font-family="-apple-system,BlinkMacSystemFont,'SF Pro Text','Segoe UI',Roboto,system-ui,sans-serif" font-size="12.5" font-weight="500" fill="#8a94ad" text-anchor="start">Devices</text><path d="M58 381.24 l5.04 2.16 v3.5999999999999996 c0 3.5999999999999996 -2.16 5.04 -5.04 6.4799999999999995 c-2.88 -1.44 -5.04 -2.88 -5.04 -6.4799999999999995 v-3.5999999999999996 Z" fill="none" stroke="#8a94ad" stroke-width="1.22" stroke-linecap="round" stroke-linejoin="round"/><text x="78.0" y="392.0" font-family="-apple-system,BlinkMacSystemFont,'SF Pro Text','Segoe UI',Roboto,system-ui,sans-serif" font-size="12.5" font-weight="500" fill="#8a94ad" text-anchor="start">Privacy</text><line x1="40" y1="726" x2="224" y2="726" stroke="#26314e" stroke-width="1"/><rect x="40.0" y="740.0" width="184.0" height="40.0" rx="10" fill="rgba(255,255,255,0.04)" stroke="#26314e" stroke-width="1"/><path d="M58 754.72 l4.62 1.98 v3.3000000000000003 c0 3.3000000000000003 -1.98 4.62 -4.62 5.94 c-2.64 -1.32 -4.62 -2.64 -4.62 -5.94 v-3.3000000000000003 Z" fill="none" stroke="#43e08a" stroke-width="1.12" stroke-linecap="round" stroke-linejoin="round"/><text x="76.0" y="756.0" font-family="-apple-system,BlinkMacSystemFont,'SF Pro Text','Segoe UI',Roboto,system-ui,sans-serif" font-size="10.5" font-weight="650" fill="#eef1f7" text-anchor="start">Watching</text><text x="76.0" y="769.0" font-family="-apple-system,BlinkMacSystemFont,'SF Pro Text','Segoe UI',Roboto,system-ui,sans-serif" font-size="8.5" font-weight="500" fill="#626d88" text-anchor="start">rules are transparent</text><rect x="268.0" y="106.0" width="225.0" height="96.0" rx="14" fill="url(#gCard)" stroke="#26314e" stroke-width="1"/><text x="286.0" y="134.0" font-family="-apple-system,BlinkMacSystemFont,'SF Pro Text','Segoe UI',Roboto,system-ui,sans-serif" font-size="11" font-weight="600" fill="#8a94ad" text-anchor="start">Heart rate</text><text x="286.0" y="168.0" font-family="-apple-system,BlinkMacSystemFont,'SF Pro Text','Segoe UI',Roboto,system-ui,sans-serif" font-size="27" font-weight="800" fill="#ff4d5e" text-anchor="start">72</text><text x="286.0" y="186.0" font-family="-apple-system,BlinkMacSystemFont,'SF Pro Text','Segoe UI',Roboto,system-ui,sans-serif" font-size="9.5" font-weight="500" fill="#626d88" text-anchor="start">bpm</text><rect x="445.0" y="120.0" width="34.0" height="34.0" rx="11" fill="rgba(255,77,94,0.16)"/><path d="M462.0 142.52 C453.72 134.24,455.56 128.72,462.0 133.32 C468.44 128.72,470.28 134.24,462.0 142.52 Z" fill="#ff4d5e"/><rect x="513.0" y="106.0" width="225.0" height="96.0" rx="14" fill="url(#gCard)" stroke="#26314e" stroke-width="1"/><text x="531.0" y="134.0" font-family="-apple-system,BlinkMacSystemFont,'SF Pro Text','Segoe UI',Roboto,system-ui,sans-serif" font-size="11" font-weight="600" fill="#8a94ad" text-anchor="start">Sleep</text><text x="531.0" y="168.0" font-family="-apple-system,BlinkMacSystemFont,'SF Pro Text','Segoe UI',Roboto,system-ui,sans-serif" font-size="27" font-weight="800" fill="#a78bfa" text-anchor="start">7h 45m</text><text x="531.0" y="186.0" font-family="-apple-system,BlinkMacSystemFont,'SF Pro Text','Segoe UI',Roboto,system-ui,sans-serif" font-size="9.5" font-weight="500" fill="#626d88" text-anchor="start">last night</text><rect x="690.0" y="120.0" width="34.0" height="34.0" rx="11" fill="rgba(167,139,250,0.16)"/><path d="M711.6 137 a5.5200000000000005 5.5200000000000005 0 1 1 -6.44 -5.5200000000000005 a7.36 7.36 0 1 0 6.44 5.5200000000000005 Z" fill="#a78bfa"/><rect x="758.0" y="106.0" width="225.0" height="96.0" rx="14" fill="url(#gCard)" stroke="#26314e" stroke-width="1"/><text x="776.0" y="134.0" font-family="-apple-system,BlinkMacSystemFont,'SF Pro Text','Segoe UI',Roboto,system-ui,sans-serif" font-size="11" font-weight="600" fill="#8a94ad" text-anchor="start">Steps</text><text x="776.0" y="168.0" font-family="-apple-system,BlinkMacSystemFont,'SF Pro Text','Segoe UI',Roboto,system-ui,sans-serif" font-size="27" font-weight="800" fill="#43e08a" text-anchor="start">8,342</text><text x="776.0" y="186.0" font-family="-apple-system,BlinkMacSystemFont,'SF Pro Text','Segoe UI',Roboto,system-ui,sans-serif" font-size="9.5" font-weight="500" fill="#626d88" text-anchor="start">today</text><rect x="935.0" y="120.0" width="34.0" height="34.0" rx="11" fill="rgba(67,224,138,0.16)"/><rect x="945.56" y="140.68" width="2.9440000000000004" height="1.84" rx="1" fill="#43e08a"/><rect x="950.16" y="137.92000000000002" width="2.9440000000000004" height="4.6000000000000005" rx="1" fill="#43e08a"/><rect x="954.76" y="135.16" width="2.9440000000000004" height="7.36" rx="1" fill="#43e08a"/><rect x="959.3599999999999" y="132.4" width="2.9440000000000004" height="10.120000000000001" rx="1" fill="#43e08a"/><rect x="1003.0" y="106.0" width="225.0" height="96.0" rx="14" fill="url(#gCard)" stroke="#26314e" stroke-width="1"/><text x="1021.0" y="134.0" font-family="-apple-system,BlinkMacSystemFont,'SF Pro Text','Segoe UI',Roboto,system-ui,sans-serif" font-size="11" font-weight="600" fill="#8a94ad" text-anchor="start">Blood oxygen</text><text x="1021.0" y="168.0" font-family="-apple-system,BlinkMacSystemFont,'SF Pro Text','Segoe UI',Roboto,system-ui,sans-serif" font-size="27" font-weight="800" fill="#38bdf8" text-anchor="start">98%</text><text x="1021.0" y="186.0" font-family="-apple-system,BlinkMacSystemFont,'SF Pro Text','Segoe UI',Roboto,system-ui,sans-serif" font-size="9.5" font-weight="500" fill="#626d88" text-anchor="start">SpO₂</text><rect x="1180.0" y="120.0" width="34.0" height="34.0" rx="11" fill="rgba(56,189,248,0.16)"/><path d="M1197.0 130.56 C1203.44 137.92,1201.6 143.44,1197.0 143.44 C1192.4 143.44,1190.56 137.92,1197.0 130.56 Z" fill="#38bdf8"/><rect x="268.0" y="224.0" width="595.2" height="236.0" rx="14" fill="url(#gCard)" stroke="#26314e" stroke-width="1"/><text x="286.0" y="251.0" font-family="-apple-system,BlinkMacSystemFont,'SF Pro Text','Segoe UI',Roboto,system-ui,sans-serif" font-size="12.5" font-weight="700" fill="#eef1f7" text-anchor="start">Resting heart rate — 14 days</text><text x="845.2" y="251.0" font-family="-apple-system,BlinkMacSystemFont,'SF Pro Text','Segoe UI',Roboto,system-ui,sans-serif" font-size="10" font-weight="600" fill="#626d88" text-anchor="end">stable</text><line x1="288" y1="314.0" x2="843.2" y2="314.0" stroke="rgba(38,49,78,0.5)" stroke-width="1"/><line x1="288" y1="352.0" x2="843.2" y2="352.0" stroke="rgba(38,49,78,0.5)" stroke-width="1"/><line x1="288" y1="390.0" x2="843.2" y2="390.0" stroke="rgba(38,49,78,0.5)" stroke-width="1"/><line x1="288" y1="366.5" x2="843.2" y2="366.5" stroke="rgba(98,109,136,0.9)" stroke-width="1" stroke-dasharray="4 4"/><text x="841.2" y="361.5" font-family="-apple-system,BlinkMacSystemFont,'SF Pro Text','Segoe UI',Roboto,system-ui,sans-serif" font-size="8.5" font-weight="500" fill="#626d88" text-anchor="end">baseline</text><polygon points="288,428 288.0,321.2 330.7,366.5 373.4,276.0 416.1,411.7 458.8,366.5 501.5,321.2 544.2,366.5 587.0,276.0 629.7,366.5 672.4,411.7 715.1,321.2 757.8,366.5 800.5,366.5 843.2,366.5 843.2,428" fill="rgba(67,224,138,0.13)"/><polyline points="288.0,321.2 330.7,366.5 373.4,276.0 416.1,411.7 458.8,366.5 501.5,321.2 544.2,366.5 587.0,276.0 629.7,366.5 672.4,411.7 715.1,321.2 757.8,366.5 800.5,366.5 843.2,366.5" fill="none" stroke="#43e08a" stroke-width="2.5" stroke-linejoin="round" stroke-linecap="round"/><circle cx="843.2" cy="366.5" r="4" fill="#43e08a"/><rect x="883.2" y="224.0" width="344.8" height="236.0" rx="14" fill="url(#gCard)" stroke="#26314e" stroke-width="1"/><text x="901.2" y="251.0" font-family="-apple-system,BlinkMacSystemFont,'SF Pro Text','Segoe UI',Roboto,system-ui,sans-serif" font-size="12.5" font-weight="700" fill="#eef1f7" text-anchor="start">This month</text><text x="901.2" y="276.0" font-family="-apple-system,BlinkMacSystemFont,'SF Pro Text','Segoe UI',Roboto,system-ui,sans-serif" font-size="11" font-weight="600" fill="#8a94ad" text-anchor="start">Avg mood</text><text x="1210.0" y="276.0" font-family="-apple-system,BlinkMacSystemFont,'SF Pro Text','Segoe UI',Roboto,system-ui,sans-serif" font-size="12.5" font-weight="750" fill="#43e08a" text-anchor="end">4.1 ↑</text><text x="901.2" y="318.0" font-family="-apple-system,BlinkMacSystemFont,'SF Pro Text','Segoe UI',Roboto,system-ui,sans-serif" font-size="11" font-weight="600" fill="#8a94ad" text-anchor="start">Goals on track</text><text x="1210.0" y="318.0" font-family="-apple-system,BlinkMacSystemFont,'SF Pro Text','Segoe UI',Roboto,system-ui,sans-serif" font-size="12.5" font-weight="750" fill="#7c5cff" text-anchor="end">4 / 6</text><text x="901.2" y="360.0" font-family="-apple-system,BlinkMacSystemFont,'SF Pro Text','Segoe UI',Roboto,system-ui,sans-serif" font-size="11" font-weight="600" fill="#8a94ad" text-anchor="start">Longest streak</text><text x="1210.0" y="360.0" font-family="-apple-system,BlinkMacSystemFont,'SF Pro Text','Segoe UI',Roboto,system-ui,sans-serif" font-size="12.5" font-weight="750" fill="#f7b731" text-anchor="end">30 d</text><text x="901.2" y="402.0" font-family="-apple-system,BlinkMacSystemFont,'SF Pro Text','Segoe UI',Roboto,system-ui,sans-serif" font-size="11" font-weight="600" fill="#8a94ad" text-anchor="start">Escalations</text><text x="1210.0" y="402.0" font-family="-apple-system,BlinkMacSystemFont,'SF Pro Text','Segoe UI',Roboto,system-ui,sans-serif" font-size="12.5" font-weight="750" fill="#38bdf8" text-anchor="end">2 · resolved</text><rect x="268.0" y="482.0" width="960.0" height="286.0" rx="14" fill="url(#gCard)" stroke="#26314e" stroke-width="1"/><text x="286.0" y="509.0" font-family="-apple-system,BlinkMacSystemFont,'SF Pro Text','Segoe UI',Roboto,system-ui,sans-serif" font-size="12.5" font-weight="700" fill="#eef1f7" text-anchor="start">Foresight</text><text x="1210.0" y="509.0" font-family="-apple-system,BlinkMacSystemFont,'SF Pro Text','Segoe UI',Roboto,system-ui,sans-serif" font-size="10" font-weight="600" fill="#626d88" text-anchor="end">caught before it happens</text><rect x="286.0" y="526.0" width="292.0" height="222.0" rx="12" fill="rgba(255,255,255,0.03)" stroke="#26314e" stroke-width="1"/><rect x="298.0" y="538.0" width="34.0" height="34.0" rx="11" fill="rgba(56,189,248,0.16)"/><path d="M315.0 548.56 v5.5200000000000005" fill="none" stroke="#38bdf8" stroke-width="1.56" stroke-linecap="round" stroke-linejoin="round"/><path d="M314.08 553.16 c-4.6000000000000005 0 -5.5200000000000005 3.68 -4.6000000000000005 7.36 l3.68 0 v-8.280000000000001" fill="none" stroke="#38bdf8" stroke-width="1.56" stroke-linecap="round" stroke-linejoin="round"/><path d="M315.92 553.16 c4.6000000000000005 0 5.5200000000000005 3.68 4.6000000000000005 7.36 l-3.68 0 v-8.280000000000001" fill="none" stroke="#38bdf8" stroke-width="1.56" stroke-linecap="round" stroke-linejoin="round"/><text x="342.0" y="552.0" font-family="-apple-system,BlinkMacSystemFont,'SF Pro Text','Segoe UI',Roboto,system-ui,sans-serif" font-size="11" font-weight="650" fill="#eef1f7" text-anchor="start">Blood oxygen slipping</text><text x="342.0" y="567.0" font-family="-apple-system,BlinkMacSystemFont,'SF Pro Text','Segoe UI',Roboto,system-ui,sans-serif" font-size="9.5" font-weight="500" fill="#8a94ad" text-anchor="start">97 → 95 → 93%</text><polyline points="302.0,586.0 432.0,601.0 562.0,616.0" fill="none" stroke="#38bdf8" stroke-width="2.4" stroke-linecap="round" stroke-linejoin="round"/><circle cx="562.0" cy="616.0" r="3.2" fill="#38bdf8"/><rect x="594.0" y="526.0" width="292.0" height="222.0" rx="12" fill="rgba(255,255,255,0.03)" stroke="#26314e" stroke-width="1"/><rect x="606.0" y="538.0" width="34.0" height="34.0" rx="11" fill="rgba(167,139,250,0.16)"/><path d="M627.6 555 a5.5200000000000005 5.5200000000000005 0 1 1 -6.44 -5.5200000000000005 a7.36 7.36 0 1 0 6.44 5.5200000000000005 Z" fill="#a78bfa"/><text x="650.0" y="552.0" font-family="-apple-system,BlinkMacSystemFont,'SF Pro Text','Segoe UI',Roboto,system-ui,sans-serif" font-size="11" font-weight="650" fill="#eef1f7" text-anchor="start">Sleep debt building</text><text x="650.0" y="567.0" font-family="-apple-system,BlinkMacSystemFont,'SF Pro Text','Segoe UI',Roboto,system-ui,sans-serif" font-size="9.5" font-weight="500" fill="#8a94ad" text-anchor="start">6.0 · 5.5 · 5.0 h</text><polyline points="610.0,586.0 740.0,601.0 870.0,616.0" fill="none" stroke="#a78bfa" stroke-width="2.4" stroke-linecap="round" stroke-linejoin="round"/><circle cx="870.0" cy="616.0" r="3.2" fill="#a78bfa"/><rect x="902.0" y="526.0" width="292.0" height="222.0" rx="12" fill="rgba(255,255,255,0.03)" stroke="#26314e" stroke-width="1"/><rect x="914.0" y="538.0" width="34.0" height="34.0" rx="11" fill="rgba(247,183,49,0.16)"/><path d="M925.48 560.52 c0 -8.280000000000001 5.5200000000000005 -11.96 11.040000000000001 -11.040000000000001 c0.92 5.5200000000000005 -2.7600000000000002 11.040000000000001 -11.040000000000001 11.040000000000001 Z M928.24 557.76 l5.5200000000000005 -5.5200000000000005" fill="none" stroke="#f7b731" stroke-width="1.56" stroke-linecap="round" stroke-linejoin="round"/><text x="958.0" y="552.0" font-family="-apple-system,BlinkMacSystemFont,'SF Pro Text','Segoe UI',Roboto,system-ui,sans-serif" font-size="11" font-weight="650" fill="#eef1f7" text-anchor="start">Mood sliding</text><text x="958.0" y="567.0" font-family="-apple-system,BlinkMacSystemFont,'SF Pro Text','Segoe UI',Roboto,system-ui,sans-serif" font-size="9.5" font-weight="500" fill="#8a94ad" text-anchor="start">5 → 4 → 3</text><polyline points="918.0,586.0 1048.0,601.0 1178.0,616.0" fill="none" stroke="#f7b731" stroke-width="2.4" stroke-linecap="round" stroke-linejoin="round"/><circle cx="1178.0" cy="616.0" r="3.2" fill="#f7b731"/></svg>