<svg xmlns="http://www.w3.org/2000/svg" width="1280" height="820" viewBox="0 0 1280 820" role="img" aria-label="Jim Mini — Coach &amp; Life"><defs>
      <linearGradient id="gPage" x1="0" y1="0" x2="0.4" y2="1">
        <stop offset="0" stop-color="#0a1120"/><stop offset="1" stop-color="#070b16"/></linearGradient>
      <linearGradient id="gScr" x1="0" y1="0" x2="0.5" y2="1">
        <stop offset="0" stop-color="#0e1626"/><stop offset="1" stop-color="#0a0f1c"/></linearGradient>
      <linearGradient id="gSide" x1="0" y1="0" x2="0" y2="1">
        <stop offset="0" stop-color="#141d31"/><stop offset="1" stop-color="#0b1120"/></linearGradient>
      <linearGradient id="gCard" x1="0" y1="0" x2="0.4" y2="1">
        <stop offset="0" stop-color="#182238"/><stop offset="1" stop-color="#1f2b45"/></linearGradient>
      <linearGradient id="gBrand" x1="0" y1="0" x2="1" y2="0">
        <stop offset="0" stop-color="#7c5cff"/><stop offset="1" stop-color="#3aa0ff"/></linearGradient>
      <linearGradient id="gEmer" x1="0" y1="0" x2="0" y2="1"><stop offset="0" stop-color="#ff5b52"/><stop offset="1" stop-color="#ff3b30"/></linearGradient>
      <linearGradient id="mV" x1="0" y1="0" x2="1" y2="0"><stop offset="0" stop-color="#7c5cff"/><stop offset="1" stop-color="#3aa0ff"/></linearGradient>
      <linearGradient id="mG" x1="0" y1="0" x2="1" y2="0"><stop offset="0" stop-color="#2fd27a"/><stop offset="1" stop-color="#43e08a"/></linearGradient>
      <linearGradient id="mO" x1="0" y1="0" x2="1" y2="0"><stop offset="0" stop-color="#f7b731"/><stop offset="1" stop-color="#ff7a45"/></linearGradient>
      <radialGradient id="orb" cx="34%" cy="30%" r="75%">
        <stop offset="0" stop-color="#c3b0ff"/><stop offset="42%" stop-color="#7c5cff"/>
        <stop offset="80%" stop-color="#2f6cf0"/><stop offset="100%" stop-color="#14204a"/></radialGradient>
    </defs><rect x="0.0" y="0.0" width="1280.0" height="820.0" rx="0" fill="url(#gPage)"/><rect x="24" y="24" width="1232" height="772" rx="10" fill="url(#gScr)" stroke="#26314e" stroke-width="1"/><rect x="24.0" y="24.0" width="216.0" height="772.0" rx="18" fill="url(#gSide)"/><rect x="222.0" y="24.0" width="18.0" height="772.0" rx="0" fill="url(#gScr)"/><line x1="240" y1="24" x2="240" y2="796" stroke="#26314e" stroke-width="1"/><line x1="240" y1="78" x2="1256" y2="78" stroke="#26314e" stroke-width="1"/><line x1="1164" y1="52" x2="1175" y2="52" stroke="#8a94ad" stroke-width="1.3"/><rect x="1193.0" y="46.0" width="11.0" height="11.0" rx="1.5" fill="none" stroke="#8a94ad" stroke-width="1.3"/><path d="M1223 46 l11 11 M1234 46 l-11 11" stroke="#8a94ad" stroke-width="1.3" stroke-linecap="round"/><circle cx="120" cy="51" r="11" fill="url(#orb)"/><path d="M120 47.0 l3.5 1.5 v2.5 c0 2.5 -1.5 3.5 -3.5 4.5 c-2.0 -1.0 -3.5 -2.0 -3.5 -4.5 v-2.5 Z" fill="none" stroke="rgba(255,255,255,0.95)" stroke-width="0.85" stroke-linecap="round" stroke-linejoin="round"/><text x="138.0" y="49.0" font-family="-apple-system,BlinkMacSystemFont,'SF Pro Text','Segoe UI',Roboto,system-ui,sans-serif" font-size="14" font-weight="800" fill="#eef1f7" text-anchor="start" letter-spacing="0.5">JIM</text><text x="138.0" y="63.0" font-family="-apple-system,BlinkMacSystemFont,'SF Pro Text','Segoe UI',Roboto,system-ui,sans-serif" font-size="8.5" font-weight="500" fill="#626d88" text-anchor="start">Guardian guidance</text><text x="268.0" y="57.0" font-family="-apple-system,BlinkMacSystemFont,'SF Pro Text','Segoe UI',Roboto,system-ui,sans-serif" font-size="15" font-weight="700" fill="#eef1f7" text-anchor="start" letter-spacing="-0.2">Coach &amp; Life</text><rect x="1134.96" y="43.8" width="2.08" height="3.2" rx="1" transform="rotate(0 1136 51)" fill="#8a94ad"/><rect x="1134.96" y="43.8" width="2.08" height="3.2" rx="1" transform="rotate(45 1136 51)" fill="#8a94ad"/><rect x="1134.96" y="43.8" width="2.08" height="3.2" rx="1" transform="rotate(90 1136 51)" fill="#8a94ad"/><rect x="1134.96" y="43.8" width="2.08" height="3.2" rx="1" transform="rotate(135 1136 51)" fill="#8a94ad"/><rect x="1134.96" y="43.8" width="2.08" height="3.2" rx="1" transform="rotate(180 1136 51)" fill="#8a94ad"/><rect x="1134.96" y="43.8" width="2.08" height="3.2" rx="1" transform="rotate(225 1136 51)" fill="#8a94ad"/><rect x="1134.96" y="43.8" width="2.08" height="3.2" rx="1" transform="rotate(270 1136 51)" fill="#8a94ad"/><rect x="1134.96" y="43.8" width="2.08" height="3.2" rx="1" transform="rotate(315 1136 51)" fill="#8a94ad"/><circle cx="1136" cy="51" r="3.6799999999999997" fill="none" stroke="#8a94ad" stroke-width="1.36" stroke-linecap="round" stroke-linejoin="round"/><rect x="1032.0" y="46.0" width="80.0" height="16.0" rx="8" fill="rgba(67,224,138,0.14)"/><circle cx="1041.0" cy="54" r="3" fill="#43e08a"/><text x="1048.0" y="58.0" font-family="-apple-system,BlinkMacSystemFont,'SF Pro Text','Segoe UI',Roboto,system-ui,sans-serif" font-size="9" font-weight="700" fill="#43e08a" text-anchor="start" letter-spacing="0.5">Guardian on</text><circle cx="1020" cy="51" r="13" fill="url(#orb)"/><circle cx="1020" cy="48.6" r="2.04" fill="none" stroke="rgba(255,255,255,0.9)" stroke-width="1.02" stroke-linecap="round" stroke-linejoin="round"/><path d="M1016.4 55.2 c0 -3.5999999999999996 7.199999999999999 -3.5999999999999996 7.199999999999999 0" fill="none" stroke="rgba(255,255,255,0.9)" stroke-width="1.02" stroke-linecap="round" stroke-linejoin="round"/><circle cx="58" cy="111" r="5.3999999999999995" fill="none" stroke="#8a94ad" stroke-width="1.22" stroke-linecap="round" stroke-linejoin="round"/><circle cx="58" cy="111" r="2.52" fill="none" stroke="#8a94ad" stroke-width="1.22" stroke-linecap="round" stroke-linejoin="round"/><circle cx="58" cy="111" r="0.648" fill="#8a94ad"/><text x="78.0" y="116.0" font-family="-apple-system,BlinkMacSystemFont,'SF Pro Text','Segoe UI',Roboto,system-ui,sans-serif" font-size="12.5" font-weight="500" fill="#8a94ad" text-anchor="start">Overview</text><path d="M58 161.32 C51.52 154.84,52.96 150.52,58 154.12 C63.04 150.52,64.48 154.84,58 161.32 Z" fill="#8a94ad"/><text x="78.0" y="162.0" font-family="-apple-system,BlinkMacSystemFont,'SF Pro Text','Segoe UI',Roboto,system-ui,sans-serif" font-size="12.5" font-weight="500" fill="#8a94ad" text-anchor="start">Monitoring</text><rect x="52.96" y="203.72" width="2.304" height="3.5999999999999996" rx="1" fill="#8a94ad"/><rect x="56.56" y="200.84" width="2.304" height="6.4799999999999995" rx="1" fill="#8a94ad"/><rect x="60.16" y="204.44" width="2.304" height="2.88" rx="1" fill="#8a94ad"/><rect x="63.76" y="199.4" width="2.304" height="7.92" rx="1" fill="#8a94ad"/><text x="78.0" y="208.0" font-family="-apple-system,BlinkMacSystemFont,'SF Pro Text','Segoe UI',Roboto,system-ui,sans-serif" font-size="12.5" font-weight="500" fill="#8a94ad" text-anchor="start">Health</text><path d="M58 243.96 v10.08 M52.96 249 h10.08" fill="none" stroke="#8a94ad" stroke-width="2.16" stroke-linecap="round"/><text x="78.0" y="254.0" font-family="-apple-system,BlinkMacSystemFont,'SF Pro Text','Segoe UI',Roboto,system-ui,sans-serif" font-size="12.5" font-weight="500" fill="#8a94ad" text-anchor="start">Emergency</text><rect x="36.0" y="276.0" width="192.0" height="38.0" rx="10" fill="rgba(67,224,138,0.16)"/><rect x="36.0" y="276.0" width="3.0" height="38.0" rx="2" fill="#43e08a"/><circle cx="55.84" cy="295" r="3.5999999999999996" fill="none" stroke="#43e08a" stroke-width="1.22" stroke-linecap="round" stroke-linejoin="round"/><circle cx="60.16" cy="295" r="3.5999999999999996" fill="none" stroke="#43e08a" stroke-width="1.22" stroke-linecap="round" stroke-linejoin="round"/><text x="78.0" y="300.0" font-family="-apple-system,BlinkMacSystemFont,'SF Pro Text','Segoe UI',Roboto,system-ui,sans-serif" font-size="12.5" font-weight="650" fill="#eef1f7" text-anchor="start">Coach</text><rect x="54.4" y="337.4" width="7.199999999999999" height="7.199999999999999" rx="2.5" fill="none" stroke="#8a94ad" stroke-width="1.22" stroke-linecap="round" stroke-linejoin="round"/><path d="M56.2 337.4 v-2.16 h3.5999999999999996 v2.16 M56.2 344.6 v2.16 h3.5999999999999996 v-2.16" fill="none" stroke="#8a94ad" stroke-width="1.22" stroke-linecap="round" stroke-linejoin="round"/><text x="78.0" y="346.0" font-family="-apple-system,BlinkMacSystemFont,'SF Pro Text','Segoe UI',Roboto,system-ui,sans-serif" font-size="12.5" font-weight="500" fill="#8a94ad" text-anchor="start">Devices</text><path d="M58 381.24 l5.04 2.16 v3.5999999999999996 c0 3.5999999999999996 -2.16 5.04 -5.04 6.4799999999999995 c-2.88 -1.44 -5.04 -2.88 -5.04 -6.4799999999999995 v-3.5999999999999996 Z" fill="none" stroke="#8a94ad" stroke-width="1.22" stroke-linecap="round" stroke-linejoin="round"/><text x="78.0" y="392.0" font-family="-apple-system,BlinkMacSystemFont,'SF Pro Text','Segoe UI',Roboto,system-ui,sans-serif" font-size="12.5" font-weight="500" fill="#8a94ad" text-anchor="start">Privacy</text><line x1="40" y1="726" x2="224" y2="726" stroke="#26314e" stroke-width="1"/><rect x="40.0" y="740.0" width="184.0" height="40.0" rx="10" fill="rgba(255,255,255,0.04)" stroke="#26314e" stroke-width="1"/><path d="M58 754.72 l4.62 1.98 v3.3000000000000003 c0 3.3000000000000003 -1.98 4.62 -4.62 5.94 c-2.64 -1.32 -4.62 -2.64 -4.62 -5.94 v-3.3000000000000003 Z" fill="none" stroke="#43e08a" stroke-width="1.12" stroke-linecap="round" stroke-linejoin="round"/><text x="76.0" y="756.0" font-family="-apple-system,BlinkMacSystemFont,'SF Pro Text','Segoe UI',Roboto,system-ui,sans-serif" font-size="10.5" font-weight="650" fill="#eef1f7" text-anchor="start">Watching</text><text x="76.0" y="769.0" font-family="-apple-system,BlinkMacSystemFont,'SF Pro Text','Segoe UI',Roboto,system-ui,sans-serif" font-size="8.5" font-weight="500" fill="#626d88" text-anchor="start">rules are transparent</text><rect x="268.0" y="106.0" width="480.0" height="260.0" rx="14" fill="url(#gCard)" stroke="#26314e" stroke-width="1"/><text x="286.0" y="133.0" font-family="-apple-system,BlinkMacSystemFont,'SF Pro Text','Segoe UI',Roboto,system-ui,sans-serif" font-size="12.5" font-weight="700" fill="#eef1f7" text-anchor="start">Life coach</text><text x="730.0" y="133.0" font-family="-apple-system,BlinkMacSystemFont,'SF Pro Text','Segoe UI',Roboto,system-ui,sans-serif" font-size="10" font-weight="600" fill="#626d88" text-anchor="end">24/7 across your life</text><rect x="292.0" y="152.0" width="432.0" height="44.0" rx="11" fill="rgba(255,255,255,0.03)" stroke="#26314e" stroke-width="1"/><rect x="302.0" y="157.0" width="34.0" height="34.0" rx="11" fill="rgba(167,139,250,0.16)"/><circle cx="316.24" cy="174" r="4.6000000000000005" fill="none" stroke="#a78bfa" stroke-width="1.56" stroke-linecap="round" stroke-linejoin="round"/><circle cx="321.76" cy="174" r="4.6000000000000005" fill="none" stroke="#a78bfa" stroke-width="1.56" stroke-linecap="round" stroke-linejoin="round"/><text x="346.0" y="172.0" font-family="-apple-system,BlinkMacSystemFont,'SF Pro Text','Segoe UI',Roboto,system-ui,sans-serif" font-size="11.5" font-weight="650" fill="#eef1f7" text-anchor="start">Mental health</text><text x="346.0" y="186.0" font-family="-apple-system,BlinkMacSystemFont,'SF Pro Text','Segoe UI',Roboto,system-ui,sans-serif" font-size="9.5" font-weight="500" fill="#8a94ad" text-anchor="start">grounded in recent check-ins</text><rect x="292.0" y="204.0" width="432.0" height="44.0" rx="11" fill="rgba(255,255,255,0.03)" stroke="#26314e" stroke-width="1"/><rect x="302.0" y="209.0" width="34.0" height="34.0" rx="11" fill="rgba(67,224,138,0.16)"/><rect x="312.56" y="226.92000000000002" width="2.9440000000000004" height="4.6000000000000005" rx="1" fill="#43e08a"/><rect x="317.16" y="223.24" width="2.9440000000000004" height="8.280000000000001" rx="1" fill="#43e08a"/><rect x="321.76" y="227.84" width="2.9440000000000004" height="3.68" rx="1" fill="#43e08a"/><rect x="326.36" y="221.4" width="2.9440000000000004" height="10.120000000000001" rx="1" fill="#43e08a"/><text x="346.0" y="224.0" font-family="-apple-system,BlinkMacSystemFont,'SF Pro Text','Segoe UI',Roboto,system-ui,sans-serif" font-size="11.5" font-weight="650" fill="#eef1f7" text-anchor="start">Health &amp; fitness</text><text x="346.0" y="238.0" font-family="-apple-system,BlinkMacSystemFont,'SF Pro Text','Segoe UI',Roboto,system-ui,sans-serif" font-size="9.5" font-weight="500" fill="#8a94ad" text-anchor="start">tied to your goals</text><rect x="292.0" y="256.0" width="432.0" height="44.0" rx="11" fill="rgba(255,255,255,0.03)" stroke="#26314e" stroke-width="1"/><rect x="302.0" y="261.0" width="34.0" height="34.0" rx="11" fill="rgba(124,92,255,0.16)"/><path d="M320.84 270.64 L313.48 278.92 L319 278.92 L317.16 285.36 L324.52 277.08 L319 277.08 Z" fill="#7c5cff"/><text x="346.0" y="276.0" font-family="-apple-system,BlinkMacSystemFont,'SF Pro Text','Segoe UI',Roboto,system-ui,sans-serif" font-size="11.5" font-weight="650" fill="#eef1f7" text-anchor="start">Career</text><text x="346.0" y="290.0" font-family="-apple-system,BlinkMacSystemFont,'SF Pro Text','Segoe UI',Roboto,system-ui,sans-serif" font-size="9.5" font-weight="500" fill="#8a94ad" text-anchor="start">interview prep ready</text><rect x="292.0" y="308.0" width="432.0" height="44.0" rx="11" fill="rgba(255,255,255,0.03)" stroke="#26314e" stroke-width="1"/><rect x="302.0" y="313.0" width="34.0" height="34.0" rx="11" fill="rgba(244,114,182,0.16)"/><path d="M319 335.52 C310.72 327.24,312.56 321.72,319 326.32 C325.44 321.72,327.28 327.24,319 335.52 Z" fill="#f472b6"/><text x="346.0" y="328.0" font-family="-apple-system,BlinkMacSystemFont,'SF Pro Text','Segoe UI',Roboto,system-ui,sans-serif" font-size="11.5" font-weight="650" fill="#eef1f7" text-anchor="start">Relationships</text><text x="346.0" y="342.0" font-family="-apple-system,BlinkMacSystemFont,'SF Pro Text','Segoe UI',Roboto,system-ui,sans-serif" font-size="9.5" font-weight="500" fill="#8a94ad" text-anchor="start">communication tips</text><rect x="268.0" y="388.0" width="480.0" height="380.0" rx="14" fill="url(#gCard)" stroke="#26314e" stroke-width="1"/><text x="286.0" y="415.0" font-family="-apple-system,BlinkMacSystemFont,'SF Pro Text','Segoe UI',Roboto,system-ui,sans-serif" font-size="12.5" font-weight="700" fill="#eef1f7" text-anchor="start">Goals</text><text x="292.0" y="440.0" font-family="-apple-system,BlinkMacSystemFont,'SF Pro Text','Segoe UI',Roboto,system-ui,sans-serif" font-size="11.5" font-weight="600" fill="#eef1f7" text-anchor="start">Fitness · work out 4×/week</text><text x="724.0" y="440.0" font-family="-apple-system,BlinkMacSystemFont,'SF Pro Text','Segoe UI',Roboto,system-ui,sans-serif" font-size="11" font-weight="700" fill="#43e08a" text-anchor="end">75%</text><rect x="292.0" y="448.0" width="432.0" height="7.0" rx="4" fill="#0d1526" stroke="#26314e" stroke-width="1"/><rect x="292.0" y="448.0" width="324.0" height="7.0" rx="4" fill="#43e08a"/><text x="292.0" y="480.0" font-family="-apple-system,BlinkMacSystemFont,'SF Pro Text','Segoe UI',Roboto,system-ui,sans-serif" font-size="11.5" font-weight="600" fill="#eef1f7" text-anchor="start">Career · launch new app</text><text x="724.0" y="480.0" font-family="-apple-system,BlinkMacSystemFont,'SF Pro Text','Segoe UI',Roboto,system-ui,sans-serif" font-size="11" font-weight="700" fill="#7c5cff" text-anchor="end">60%</text><rect x="292.0" y="488.0" width="432.0" height="7.0" rx="4" fill="#0d1526" stroke="#26314e" stroke-width="1"/><rect x="292.0" y="488.0" width="259.2" height="7.0" rx="4" fill="#7c5cff"/><text x="292.0" y="520.0" font-family="-apple-system,BlinkMacSystemFont,'SF Pro Text','Segoe UI',Roboto,system-ui,sans-serif" font-size="11.5" font-weight="600" fill="#eef1f7" text-anchor="start">Wellness · meditate daily</text><text x="724.0" y="520.0" font-family="-apple-system,BlinkMacSystemFont,'SF Pro Text','Segoe UI',Roboto,system-ui,sans-serif" font-size="11" font-weight="700" fill="#38bdf8" text-anchor="end">40%</text><rect x="292.0" y="528.0" width="432.0" height="7.0" rx="4" fill="#0d1526" stroke="#26314e" stroke-width="1"/><rect x="292.0" y="528.0" width="172.8" height="7.0" rx="4" fill="#38bdf8"/><text x="292.0" y="560.0" font-family="-apple-system,BlinkMacSystemFont,'SF Pro Text','Segoe UI',Roboto,system-ui,sans-serif" font-size="11.5" font-weight="600" fill="#eef1f7" text-anchor="start">Finance · save $10,000</text><text x="724.0" y="560.0" font-family="-apple-system,BlinkMacSystemFont,'SF Pro Text','Segoe UI',Roboto,system-ui,sans-serif" font-size="11" font-weight="700" fill="#f7b731" text-anchor="end">55%</text><rect x="292.0" y="568.0" width="432.0" height="7.0" rx="4" fill="#0d1526" stroke="#26314e" stroke-width="1"/><rect x="292.0" y="568.0" width="237.6" height="7.0" rx="4" fill="#f7b731"/><rect x="768.0" y="106.0" width="460.0" height="236.0" rx="14" fill="url(#gCard)" stroke="#26314e" stroke-width="1"/><text x="786.0" y="133.0" font-family="-apple-system,BlinkMacSystemFont,'SF Pro Text','Segoe UI',Roboto,system-ui,sans-serif" font-size="12.5" font-weight="700" fill="#eef1f7" text-anchor="start">Insights</text><text x="1210.0" y="133.0" font-family="-apple-system,BlinkMacSystemFont,'SF Pro Text','Segoe UI',Roboto,system-ui,sans-serif" font-size="10" font-weight="600" fill="#626d88" text-anchor="end">proactive nudges</text><rect x="786.0" y="152.0" width="424.0" height="52.0" rx="11" fill="rgba(255,255,255,0.03)" stroke="#26314e" stroke-width="1"/><rect x="798.0" y="161.0" width="34.0" height="34.0" rx="11" fill="rgba(247,183,49,0.16)"/><path d="M815.0 170.64 L822.36 183.52 H807.64 Z" fill="none" stroke="#f7b731" stroke-width="1.56" stroke-linecap="round" stroke-linejoin="round"/><path d="M815.0 175.24 v3.68" fill="none" stroke="#f7b731" stroke-width="1.56" stroke-linecap="round" stroke-linejoin="round"/><circle cx="815.0" cy="181.68" r="0.8280000000000001" fill="#f7b731"/><text x="842.0" y="175.0" font-family="-apple-system,BlinkMacSystemFont,'SF Pro Text','Segoe UI',Roboto,system-ui,sans-serif" font-size="11.5" font-weight="650" fill="#eef1f7" text-anchor="start">High spending alert</text><text x="842.0" y="191.0" font-family="-apple-system,BlinkMacSystemFont,'SF Pro Text','Segoe UI',Roboto,system-ui,sans-serif" font-size="9.5" font-weight="500" fill="#8a94ad" text-anchor="start">above your usual</text><rect x="1169.0" y="165.0" width="43.0" height="17.0" rx="8" fill="rgba(247,183,49,0.15)"/><text x="1190.5" y="177.0" font-family="-apple-system,BlinkMacSystemFont,'SF Pro Text','Segoe UI',Roboto,system-ui,sans-serif" font-size="9.5" font-weight="700" fill="#f7b731" text-anchor="middle" letter-spacing="0.4">ALERT</text><rect x="786.0" y="212.0" width="424.0" height="52.0" rx="11" fill="rgba(255,255,255,0.03)" stroke="#26314e" stroke-width="1"/><rect x="798.0" y="221.0" width="34.0" height="34.0" rx="11" fill="rgba(67,224,138,0.16)"/><path d="M819.6 238 a5.5200000000000005 5.5200000000000005 0 1 1 -6.44 -5.5200000000000005 a7.36 7.36 0 1 0 6.44 5.5200000000000005 Z" fill="#43e08a"/><text x="842.0" y="235.0" font-family="-apple-system,BlinkMacSystemFont,'SF Pro Text','Segoe UI',Roboto,system-ui,sans-serif" font-size="11.5" font-weight="650" fill="#eef1f7" text-anchor="start">You slept better</text><text x="842.0" y="251.0" font-family="-apple-system,BlinkMacSystemFont,'SF Pro Text','Segoe UI',Roboto,system-ui,sans-serif" font-size="9.5" font-weight="500" fill="#8a94ad" text-anchor="start">7.5h · keep it up</text><rect x="1162.8" y="225.0" width="49.2" height="17.0" rx="8" fill="rgba(67,224,138,0.15)"/><text x="1187.4" y="237.0" font-family="-apple-system,BlinkMacSystemFont,'SF Pro Text','Segoe UI',Roboto,system-ui,sans-serif" font-size="9.5" font-weight="700" fill="#43e08a" text-anchor="middle" letter-spacing="0.4">PRAISE</text><rect x="786.0" y="272.0" width="424.0" height="52.0" rx="11" fill="rgba(255,255,255,0.03)" stroke="#26314e" stroke-width="1"/><rect x="798.0" y="281.0" width="34.0" height="34.0" rx="11" fill="rgba(124,92,255,0.16)"/><path d="M816.84 290.64 L809.48 298.92 L815.0 298.92 L813.16 305.36 L820.52 297.08 L815.0 297.08 Z" fill="#7c5cff"/><text x="842.0" y="295.0" font-family="-apple-system,BlinkMacSystemFont,'SF Pro Text','Segoe UI',Roboto,system-ui,sans-serif" font-size="11.5" font-weight="650" fill="#eef1f7" text-anchor="start">Interview prep</text><text x="842.0" y="311.0" font-family="-apple-system,BlinkMacSystemFont,'SF Pro Text','Segoe UI',Roboto,system-ui,sans-serif" font-size="9.5" font-weight="500" fill="#8a94ad" text-anchor="start">want a practice round?</text><rect x="768.0" y="364.0" width="460.0" height="404.0" rx="14" fill="url(#gCard)" stroke="#26314e" stroke-width="1"/><text x="786.0" y="391.0" font-family="-apple-system,BlinkMacSystemFont,'SF Pro Text','Segoe UI',Roboto,system-ui,sans-serif" font-size="12.5" font-weight="700" fill="#eef1f7" text-anchor="start">Habits</text><text x="1210.0" y="391.0" font-family="-apple-system,BlinkMacSystemFont,'SF Pro Text','Segoe UI',Roboto,system-ui,sans-serif" font-size="10" font-weight="600" fill="#626d88" text-anchor="end">streaks</text><rect x="786.0" y="410.0" width="424.0" height="46.0" rx="11" fill="rgba(255,255,255,0.03)" stroke="#26314e" stroke-width="1"/><rect x="798.0" y="416.0" width="34.0" height="34.0" rx="11" fill="rgba(247,183,49,0.16)"/><path d="M815.0 425.64 c4.6000000000000005 3.68 1.84 5.5200000000000005 1.84 7.36 a3.68 3.68 0 1 1 -7.36 0 c0 -1.84 0.92 -2.7600000000000002 1.84 -3.68 c0 1.84 1.84 1.84 1.84 0 c0 -2.7600000000000002 1.84 -3.68 1.84 -3.68 Z" fill="#f7b731"/><text x="842.0" y="431.0" font-family="-apple-system,BlinkMacSystemFont,'SF Pro Text','Segoe UI',Roboto,system-ui,sans-serif" font-size="11.5" font-weight="650" fill="#eef1f7" text-anchor="start">Meditate</text><text x="842.0" y="445.0" font-family="-apple-system,BlinkMacSystemFont,'SF Pro Text','Segoe UI',Roboto,system-ui,sans-serif" font-size="9.5" font-weight="500" fill="#8a94ad" text-anchor="start">daily</text><rect x="1175.2" y="422.0" width="36.8" height="17.0" rx="8" fill="rgba(247,183,49,0.15)"/><text x="1193.6" y="434.0" font-family="-apple-system,BlinkMacSystemFont,'SF Pro Text','Segoe UI',Roboto,system-ui,sans-serif" font-size="9.5" font-weight="700" fill="#f7b731" text-anchor="middle" letter-spacing="0.4">🔥 12</text><rect x="786.0" y="464.0" width="424.0" height="46.0" rx="11" fill="rgba(255,255,255,0.03)" stroke="#26314e" stroke-width="1"/><rect x="798.0" y="470.0" width="34.0" height="34.0" rx="11" fill="rgba(67,224,138,0.16)"/><rect x="808.56" y="490.68" width="2.9440000000000004" height="1.84" rx="1" fill="#43e08a"/><rect x="813.16" y="487.92" width="2.9440000000000004" height="4.6000000000000005" rx="1" fill="#43e08a"/><rect x="817.76" y="485.16" width="2.9440000000000004" height="7.36" rx="1" fill="#43e08a"/><rect x="822.3599999999999" y="482.4" width="2.9440000000000004" height="10.120000000000001" rx="1" fill="#43e08a"/><text x="842.0" y="485.0" font-family="-apple-system,BlinkMacSystemFont,'SF Pro Text','Segoe UI',Roboto,system-ui,sans-serif" font-size="11.5" font-weight="650" fill="#eef1f7" text-anchor="start">Morning walk</text><text x="842.0" y="499.0" font-family="-apple-system,BlinkMacSystemFont,'SF Pro Text','Segoe UI',Roboto,system-ui,sans-serif" font-size="9.5" font-weight="500" fill="#8a94ad" text-anchor="start">milestone</text><rect x="1187.6" y="476.0" width="24.4" height="17.0" rx="8" fill="rgba(247,183,49,0.15)"/><text x="1199.8" y="488.0" font-family="-apple-system,BlinkMacSystemFont,'SF Pro Text','Segoe UI',Roboto,system-ui,sans-serif" font-size="9.5" font-weight="700" fill="#f7b731" text-anchor="middle" letter-spacing="0.4">30</text><rect x="786.0" y="518.0" width="424.0" height="46.0" rx="11" fill="rgba(255,255,255,0.03)" stroke="#26314e" stroke-width="1"/><rect x="798.0" y="524.0" width="34.0" height="34.0" rx="11" fill="rgba(56,189,248,0.16)"/><path d="M815.0 534.56 C821.44 541.92,819.6 547.44,815.0 547.44 C810.4 547.44,808.56 541.92,815.0 534.56 Z" fill="#38bdf8"/><text x="842.0" y="539.0" font-family="-apple-system,BlinkMacSystemFont,'SF Pro Text','Segoe UI',Roboto,system-ui,sans-serif" font-size="11.5" font-weight="650" fill="#eef1f7" text-anchor="start">Hydrate</text><text x="842.0" y="553.0" font-family="-apple-system,BlinkMacSystemFont,'SF Pro Text','Segoe UI',Roboto,system-ui,sans-serif" font-size="9.5" font-weight="500" fill="#8a94ad" text-anchor="start">on track</text><rect x="1193.8" y="530.0" width="18.2" height="17.0" rx="8" fill="rgba(247,183,49,0.15)"/><text x="1202.9" y="542.0" font-family="-apple-system,BlinkMacSystemFont,'SF Pro Text','Segoe UI',Roboto,system-ui,sans-serif" font-size="9.5" font-weight="700" fill="#f7b731" text-anchor="middle" letter-spacing="0.4">7</text></svg>